<svg xmlns="http://www.w3.org/2000/svg" viewBox="0 0 500 500"><g id="freepik--background-complete--inject-1"><g><g><g><path d="M443.92,316.903h-180.746c-3.232,0-5.862-2.63-5.862-5.862V47.768c0-3.232,2.63-5.862,5.862-5.862h180.746c3.232,0,5.862,2.629,5.862,5.862V311.041c0,3.233-2.63,5.862-5.862,5.862ZM263.174,42.156c-3.095,0-5.612,2.518-5.612,5.612V311.041c0,3.095,2.518,5.612,5.612,5.612h180.746c3.095,0,5.612-2.517,5.612-5.612V47.768c0-3.094-2.518-5.612-5.612-5.612h-180.746Z" style="fill:#e0e0e0;"></path><path d="M235.493,316.903H54.746c-3.232,0-5.862-2.63-5.862-5.862V47.768c0-3.232,2.629-5.862,5.862-5.862H235.493c3.232,0,5.862,2.629,5.862,5.862V311.041c0,3.233-2.63,5.862-5.862,5.862ZM54.746,42.156c-3.094,0-5.612,2.518-5.612,5.612V311.041c0,3.095,2.518,5.612,5.612,5.612H235.493c3.095,0,5.612-2.517,5.612-5.612V47.768c0-3.094-2.518-5.612-5.612-5.612H54.746Z" style="fill:#e0e0e0;"></path></g><rect x="0" y="377.973" width="500" height=".25" style="fill:#e0e0e0;"></rect></g><rect x="51.672" y="392.237" width="16.06" height=".25" style="fill:#e0e0e0;"></rect><rect x="170.352" y="389.527" width="53.53" height=".25" style="fill:#e0e0e0;"></rect><rect x="68.732" y="401.527" width="36.25" height=".25" style="fill:#e0e0e0;"></rect><rect x="378.352" y="389.397" width="43.19" height=".25" style="fill:#e0e0e0;"></rect><rect x="430.452" y="389.397" width="6.33" height=".25" style="fill:#e0e0e0;"></rect><rect x="316.212" y="395.627" width="53.89" height=".25" style="fill:#e0e0e0;"></rect></g><path d="M261.964,379.07l-8.111-124.62,.274-.02,9.212,124.544c-.459,.034-.916,.066-1.375,.096Zm-25.171-.086l-1.198-.093,9.959-124.485,.45,.034-9.212,124.544Zm51.898-3.734l-27.247-121.876,.591-.132,27.678,121.778-1.022,.23Zm-78.255-.197l-1.176-.271,28.378-121.617,.435,.1-27.637,121.788Zm103.658-7.46l-44.856-116.55,.327-.127,45.744,116.204c-.403,.159-.808,.317-1.215,.473Zm-129.198-.392l-1.12-.443,46.254-116.002,.422,.167-45.556,116.279Zm153.403-11.088l-61.96-108.429,.416-.239,62.557,108.086-1.014,.582Zm-177.509-.523c-.371-.214-.741-.43-1.11-.647l63.303-107.651,.321,.187-62.513,108.111Zm199.484-14.267l-77.156-98.198,.24-.19,77.969,97.554c-.35,.28-.701,.558-1.053,.834Zm-221.447-.711c-.388-.309-.775-.62-1.16-.933l78.82-96.868,.129,.103-77.789,97.697Zm241.162-17.333l-91.016-85.511,.289-.309,91.567,84.921-.84,.899Zm-260.717-.792l-.783-.848,91.92-84.537,.337,.365-91.474,85.02Zm277.389-19.789l-102.533-71.296,.152-.22,103.167,70.374c-.26,.382-.522,.762-.786,1.142Zm-294-.985c-.247-.36-.492-.723-.736-1.085l103.596-69.741,.19,.28-103.049,70.546Zm307.628-22.203l-112.21-54.817,.255-.524,112.425,54.375-.47,.966Zm-321.005-.876c-.191-.396-.382-.793-.57-1.19l112.859-53.469,.141,.294-112.43,54.365Zm330.88-23.769l-119.048-37.729,.09-.292,119.362,36.727c-.133,.431-.267,.863-.404,1.293Zm-340.68-1.125c-.125-.404-.248-.807-.37-1.211l119.586-35.987,.113,.368-119.329,36.83Zm346.823-25.039l-123.406-19.155,.069-.457,123.516,18.435-.18,1.177Zm-352.761-.966c-.064-.423-.126-.845-.186-1.268l123.621-17.713,.054,.366-123.489,18.615Zm354.898-25.334l-124.879-1.108v-.515h124.885v.244c0,.461-.002,.921-.006,1.38Zm-232.009-1.259H71.551l.003-1.15,124.882,.648v.502Zm106.564-7.987l-.039-.263,123.461-18.795c.07,.457,.137,.914,.203,1.372l-123.625,17.687Zm-105.973-.186l-123.546-18.228c.064-.432,.129-.864,.196-1.295l123.402,19.184-.052,.339Zm104.307-7.358l-.175-.57,119.313-36.882,.31,1.011-119.448,36.442Zm-102.568-.325l-119.377-36.675,.367-1.179,119.137,37.448-.126,.406Zm99.701-7.139l-.215-.448,112.394-54.438,.499,1.037-112.678,53.849Zm-96.818-.24l-112.496-54.226,.505-1.041,112.21,54.817-.219,.449Zm92.893-6.664l-.32-.47,103.049-70.546,.609,.894-103.338,70.123Zm-88.861-.326L102.456,100.626c.241-.355,.484-.708,.728-1.061l102.705,71.047-.208,.303Zm83.694-6.213l-.158-.17,91.383-85.119c.323,.347,.644,.695,.963,1.044l-92.189,84.245Zm-78.677-.079L119.046,79.794c.291-.314,.583-.627,.876-.939l91.027,85.499-.251,.269Zm72.866-5.355l-.276-.221,77.789-97.697c.339,.269,.678,.541,1.015,.814l-78.529,97.104Zm-66.961-.135L138.522,61.669c.35-.28,.7-.559,1.052-.836l77.27,98.108-.241,.191Zm60.417-4.387l-.36-.209,62.375-108.191,1.071,.622-63.086,107.779Zm-53.813-.133l-62.696-108.006c.37-.215,.741-.428,1.112-.64l61.9,108.464-.316,.182Zm46.585-3.401l-.327-.13,45.493-116.303c.407,.159,.811,.319,1.215,.481l-46.381,115.952Zm-39.392-.078l-45.904-116.141c.41-.162,.821-.322,1.232-.481l44.978,116.502-.307,.12Zm31.842-2.29l-.328-.075,27.422-121.836c.428,.096,.856,.194,1.283,.294l-28.377,121.617Zm-24.31-.041l-27.852-121.738c.434-.099,.868-.197,1.304-.293l26.857,121.962-.309,.069Zm16.382-1.182l-.351-.026,9.028-124.557c.433,.031,.865,.064,1.296,.099l-9.973,124.484Zm-8.466-.013l-9.409-124.529c.431-.032,.863-.063,1.296-.093l8.466,124.597-.353,.025Z" style="fill:#e6e6e6;"></path><path d="M115.183,155.031c-2.342-1.769-5.759-1.97-8.292-.486-3.362-6.794-12.731-9.792-19.413-6.213-1.743-7.321-8.956-12.949-16.482-12.858-7.525,.091-14.601,5.89-16.168,13.251-.249,1.17-.414,2.451-1.25,3.306-1.359,1.388-3.628,.922-5.566,.771-6.094-.475-12.227,3.803-13.884,9.687l83.927-.306c.735-2.842-.53-5.383-2.872-7.153Z" style="fill:#f0f0f0;"></path><path d="M461.35,266.708c-2.391-1.807-5.881-2.011-8.467-.496-3.433-6.937-12.999-9.998-19.822-6.344-1.78-7.475-9.145-13.221-16.829-13.129-7.684,.093-14.908,6.014-16.508,13.53-.254,1.194-.422,2.503-1.277,3.376-1.388,1.418-3.705,.942-5.683,.788-6.223-.485-12.484,3.883-14.176,9.891l85.693-.312c.751-2.901-.541-5.496-2.932-7.303Z" style="fill:#e6e6e6;"></path><path d="M430.49,62.896c-2.092-1.58-5.143-1.759-7.405-.434-3.002-6.067-11.369-8.745-17.337-5.548-1.557-6.538-7.999-11.564-14.719-11.483-6.72,.081-13.039,5.26-14.438,11.833-.222,1.045-.369,2.189-1.117,2.952-1.214,1.24-3.24,.824-4.97,.689-5.442-.425-10.919,3.396-12.399,8.651l74.95-.273c.656-2.538-.473-4.807-2.565-6.387Z" style="fill:#f0f0f0;"></path><path d="M98.379,254.58c-1.175-.888-2.889-.988-4.16-.244-1.686-3.408-6.387-4.912-9.739-3.117-.874-3.673-4.493-6.496-8.268-6.45-3.775,.045-7.324,2.955-8.11,6.647-.125,.587-.208,1.23-.627,1.658-.682,.696-1.82,.463-2.792,.387-3.057-.238-6.134,1.908-6.965,4.86l42.102-.153c.369-1.426-.266-2.7-1.441-3.588Z" style="fill:#f0f0f0;"></path><path d="M453.175,93.462c-1.175-.888-2.889-.988-4.16-.244-1.687-3.408-6.387-4.912-9.739-3.117-.875-3.673-4.493-6.496-8.268-6.45-3.775,.046-7.324,2.955-8.11,6.647-.125,.587-.208,1.23-.627,1.658-.682,.697-1.82,.463-2.792,.387-3.057-.239-6.133,1.908-6.965,4.859l42.102-.153c.369-1.426-.266-2.7-1.441-3.588Z" style="fill:#f0f0f0;"></path></g><g id="freepik--Shadow--inject-1"><path d="M435.831,436.088c0,10.113-83.199,18.312-185.831,18.312s-185.831-8.199-185.831-18.312,83.199-18.312,185.831-18.312,185.831,8.199,185.831,18.312Z" style="fill:#f5f5f5;"></path></g><g id="freepik--Character_3--inject-1"><g><g><rect x="147.314" y="78.171" width="212.15" height="299.927" rx="12.545" ry="12.545" style="fill:#263238;"></rect><rect x="147.314" y="78.171" width="212.15" height="299.927" rx="12.545" ry="12.545" style="fill:#fff; opacity:.3;"></rect><rect x="156.495" y="90.427" width="193.789" height="278.489" rx="7.932" ry="7.932" style="fill:#fff;"></rect><g id="freepik--freepik--background-complete--inject-33--inject-1"><polygon points="201.528 129.042 204.439 127.415 207.349 129.042 206.795 125.59 209.15 123.141 205.894 122.635 204.439 119.501 202.983 122.635 199.727 123.141 202.083 125.59 201.528 129.042" style="fill:#f0f0f0;"></polygon><path d="M340.64,290.836h-23.784v-45.523c4.181-.513,7.34-4.279,7.349-8.762v-.942c.005-4.882-3.707-8.843-8.29-8.848h-.016v-11.486l4.824-1.782c-7.064-15.985-11.896-32.983-14.344-50.457l-2.718-19.426-2.774,19.426c-2.445,17.473-7.275,34.472-14.336,50.457l4.824,1.782v11.469c-4.587,0-8.306,3.961-8.306,8.848v1.251h-42.809v-28.23h-.153c8.137-5.687,13.154-13.464,13.154-22.055,0-12.299-10.3-22.954-25.32-28.153-8.987-3.157-16.283-10.249-20.053-19.494,5.773-.203,10.298-5.353,10.107-11.503-.191-6.15-5.026-10.97-10.799-10.766-.408,.004-.816,.03-1.222,.077,4.501,.617,7.68,5.005,7.101,9.799-.579,4.795-4.698,8.182-9.199,7.564-3.704-.508-6.62-3.612-7.1-7.557-.051,.429-.078,.861-.081,1.293,.006,5.843,4.235,10.696,9.705,11.135-3.776,9.236-11.071,16.317-20.053,19.468-15.028,5.199-25.328,15.854-25.328,28.153,0,8.565,5.025,16.368,13.162,22.055h-.161v28.213h-17.722v132.074h184.34v-63.51c2.767,.005,5.013-2.381,5.017-5.328v-3.897c0-2.952-2.246-5.345-5.017-5.345Z" style="fill:#f0f0f0;"></path><rect x="156.299" y="245.313" width="160.556" height="45.523" style="fill:#e6e6e6;"></rect><path d="M231.142,325.457c0-6.398-5.355-11.948-13.179-14.646-5.012-1.761-8.996-5.86-10.823-11.135h0c-1.827,5.274-5.811,9.373-10.823,11.135-7.815,2.698-13.179,8.248-13.179,14.646,.025,2.37,.732,4.676,2.026,6.604v36.83h43.958v-36.83c1.288-1.931,1.992-4.235,2.018-6.604Z" style="fill:#e0e0e0;"></path><path d="M250.069,323.127h0c-4.354,.01-7.88,3.772-7.88,8.411v37.361h15.8v-37.361c-.004-4.65-3.547-8.416-7.912-8.411h-.008Z" style="fill:#e0e0e0;"></path><path d="M275.06,323.127h0c4.365,0,7.904,3.77,7.904,8.419v37.361h-15.808v-37.37c.004-4.647,3.542-8.411,7.904-8.411Z" style="fill:#e0e0e0;"></path><path d="M300.042,323.127h0c4.365,0,7.904,3.77,7.904,8.419v37.361h-15.808v-37.37c.004-4.647,3.542-8.411,7.904-8.411Z" style="fill:#e0e0e0;"></path><path d="M325.009,323.127h0c-4.361,0-7.896,3.766-7.896,8.411h0v37.361h15.8v-37.361c-.004-4.647-3.542-8.411-7.904-8.411Z" style="fill:#e0e0e0;"></path><path d="M164.195,323.127h0c-4.361,0-7.896,3.766-7.896,8.411h0v37.361h15.8v-37.361c-.004-4.647-3.542-8.411-7.904-8.411Z" style="fill:#e0e0e0;"></path><polygon points="174.984 269.864 182.705 261.639 190.426 269.864 182.705 278.088 174.984 269.864" style="fill:#e0e0e0;"></polygon><polygon points="223.853 269.865 231.574 261.641 239.296 269.865 231.574 278.09 223.853 269.865" style="fill:#e0e0e0;"></polygon><polygon points="272.723 269.867 280.444 261.642 288.165 269.867 280.444 278.092 272.723 269.867" style="fill:#e0e0e0;"></polygon><polygon points="174.021 236.825 240.26 236.825 240.26 208.612 174.182 208.612 174.021 236.825" style="fill:#e6e6e6;"></polygon><rect x="291.391" y="215.275" width="24.476" height="11.469" style="fill:#e0e0e0;"></rect></g></g><rect x="232.472" y="83.392" width="41.834" height="2.66" rx=".837" ry=".837" style="fill:#263238;"></rect></g><g><g><path d="M325.53,234.373l-5.945,4.836,9.132,9.169,5.483-8.976c2.62-2.104,8.659-4.686,14.962-7.568,4.089-1.908,5.996-11.469,5.996-11.469,0,0,2.984-4.564,1.006-5.474-4.657-2.142-10.096,7.377-10.873,7.636-4.762,2.376-7.693,3.518-8.515,3.376-.822-.142,5.974-2.945,6.618-5.627,.645-2.682-7.224,2.345-10.414,2.751s-7.78,9.559-7.449,11.346Z" style="fill:#b97964;"></path><g><path d="M347.132,230.33c-.07,0-.141-.03-.189-.087-1.611-1.878-3.668-3.375-5.95-4.33-.127-.053-.188-.2-.134-.327,.053-.128,.201-.188,.327-.134,2.353,.984,4.475,2.528,6.136,4.466,.09,.104,.078,.263-.026,.353-.048,.04-.105,.06-.163,.06Z" style="opacity:.3;"></path><path d="M346.301,229.507c-.079,0-.156-.038-.205-.107-.079-.113-.051-.269,.062-.348l2.359-1.64c.331-.674,3.081-6.213,4.712-7.385,.312-.225,.633-.311,.955-.251,.528,.097,.84,.56,.853,.579,.077,.115,.045,.271-.07,.347-.113,.075-.27,.044-.346-.07-.002-.002-.212-.308-.53-.364-.174-.032-.371,.023-.57,.167-1.598,1.148-4.552,7.195-4.582,7.256-.019,.039-.047,.071-.082,.096l-2.413,1.677c-.043,.03-.093,.045-.143,.045Z" style="opacity:.3;"></path><path d="M343.587,227.247c-.099,0-.192-.059-.232-.157-.051-.128,.011-.274,.14-.325,.972-.39,3.599-1.527,4.084-2.1,.179-.212,.697-.996,1.353-1.987,1.599-2.419,4.016-6.074,5.294-7.202,.531-.469,1.042-.669,1.529-.589,.623,.101,.938,.628,.95,.651,.069,.119,.029,.272-.09,.342-.121,.07-.273,.029-.342-.09,0-.002-.215-.35-.603-.41-.329-.047-.703,.108-1.115,.472-1.229,1.084-3.719,4.852-5.207,7.103-.69,1.044-1.189,1.799-1.388,2.035-.652,.771-3.91,2.093-4.28,2.241-.03,.012-.062,.018-.093,.018Z" style="opacity:.3;"></path></g></g><g><g><g><g><path d="M227.636,191.534s1.314-9.424-4.204-25.76c0-.018,.854-.442,.854-.46-.762-2.285-1.559-4.393-2.303-6.217-.018-.053-.018-.071-.018-.071l23.24,13.002c-.301,5.314,2.043,15.455,3.363,19.723,0,0,1.699,6.647-8.688,7.441-7.589,.581-12.247-7.658-12.247-7.658Z" style="fill:#b97964;"></path><path d="M245.919,179.449l-13.153-2.369c1.358,3.999,5.152,8.645,14.233,8.642,0,0-1.101-4.494-1.08-6.273Z" style="opacity:.2;"></path></g><g><path d="M221.313,148.038c2.151,14.281,3.076,22.38,10.987,29.041,11.901,10.02,28.673,2.074,30.838-12.605,1.948-13.213-1.896-34.348-16.473-38.684-14.361-4.272-27.503,7.966-25.353,22.248Z" style="fill:#b97964;"></path><path d="M217.967,130.933c1.272-8.087,21.097-9.926,26.994-6.372,.881,.531,9.202,5.703,9.891,5.38l-24.419,3.574c-.869-.114-2.943,1.624-3.576,4.347,0,0,2.574,21.96-3.101,28.884-5.23-2.002-6.293-10.702-8.333-15.758-3.04-7.533-3.414-18.409,2.544-20.055Z" style="fill:#263238;"></path><path d="M217.967,130.933c1.272-8.087,21.097-9.926,26.994-6.372,.881,.531,9.202,5.703,9.891,5.38l-24.419,3.574c-.869-.114-2.943,1.624-3.576,4.347,0,0,2.574,21.96-3.101,28.884-5.23-2.002-6.293-10.702-8.333-15.758-3.04-7.533-3.414-18.409,2.544-20.055Z" style="fill:#fff; opacity:.7;"></path><path d="M216.7,160.509c1.474,3.596,4.478,6.158,7.452,7.322,4.473,1.75,5.657-3.076,4.851-7.565-.725-4.04-2.352-8.895-7.052-8.726-4.63,.166-6.937,4.859-5.251,8.97Z" style="fill:#b97964;"></path><path d="M240.148,150.745c.13,1.47,1.014,2.584,1.975,2.49,.961-.094,1.635-1.362,1.505-2.832-.13-1.47-1.014-2.584-1.975-2.49-.961,.094-1.635,1.362-1.506,2.832Z" style="fill:#263238;"></path><path d="M255.45,150.745c.129,1.47,1.014,2.584,1.975,2.49,.961-.094,1.635-1.362,1.505-2.832-.13-1.47-1.014-2.584-1.975-2.489-.961,.094-1.635,1.362-1.505,2.831Z" style="fill:#263238;"></path><path d="M251.909,148.981s5.297,6.89,7.05,9.732c-1.882,2.028-5.48,1.488-5.48,1.488l-1.57-11.219Z" style="fill:#a24e3f;"></path><path d="M238.029,143.76c.23,.071,.492,.02,.682-.158,2.261-2.109,4.741-1.545,4.766-1.539,.371,.089,.747-.139,.839-.508,.092-.37-.135-.741-.504-.831-.13-.032-3.238-.74-6.043,1.877-.28,.261-.296,.697-.037,.973,.084,.09,.187,.151,.297,.185Z" style="fill:#263238;"></path><path d="M238.029,143.76c.23,.071,.492,.02,.682-.158,2.261-2.109,4.741-1.545,4.766-1.539,.371,.089,.747-.139,.839-.508,.092-.37-.135-.741-.504-.831-.13-.032-3.238-.74-6.043,1.877-.28,.261-.296,.697-.037,.973,.084,.09,.187,.151,.297,.185Z" style="fill:#fff; opacity:.7;"></path><path d="M248.424,165.715c-2.436,0-4.351-1.26-5.921-2.524-.161-.13-.187-.366-.057-.527s.366-.186,.527-.057c2.265,1.823,4.084,2.521,6.067,2.328,.204-.029,.39,.13,.409,.337,.02,.207-.131,.39-.337,.409-.234,.023-.464,.034-.689,.034Z" style="fill:#263238;"></path></g><path d="M226.565,160.221c-.116,0-.22-.082-.245-.2-.241-1.183-.79-2.288-1.588-3.195-.521-.591-1.372-1.332-2.46-1.5-.987-.151-2.005,.287-2.424,1.043-.067,.121-.218,.163-.34,.098-.121-.067-.165-.219-.098-.34,.526-.948,1.736-1.48,2.938-1.295,1.237,.19,2.183,1.01,2.759,1.663,.856,.973,1.445,2.157,1.704,3.426,.027,.135-.06,.267-.195,.295-.017,.003-.034,.005-.05,.005Z" style="opacity:.2;"></path></g><path d="M262.481,142.618c.125-.039,.241-.114,.331-.224,.242-.296,.202-.733-.091-.975-2.937-2.423-5.963-1.464-6.104-1.438-.362,.117-.565,.507-.452,.871,.113,.363,.495,.563,.856,.451,.124-.045,2.465-.754,4.823,1.191,.184,.152,.425,.191,.638,.125Z" style="fill:#263238;"></path><path d="M262.481,142.618c.125-.039,.241-.114,.331-.224,.242-.296,.202-.733-.091-.975-2.937-2.423-5.963-1.464-6.104-1.438-.362,.117-.565,.507-.452,.871,.113,.363,.495,.563,.856,.451,.124-.045,2.465-.754,4.823,1.191,.184,.152,.425,.191,.638,.125Z" style="fill:#fff; opacity:.7;"></path></g><path d="M214.231,147.908s12.256-21.012,33.985-18.826c3.623,.365,6.693,1.356,8.771,4.346,.135,.195,.263,.39,.38,.584,0,0-5.243-18.153-24.601-16.677-19.359,1.475-21.67,21.784-18.535,30.573Z" style="fill:#5AE4A7;"></path><path d="M255.62,129.965c-.019-.027-.034-.055-.053-.082-2.079-2.99-5.148-3.981-8.772-4.346-19.31-1.943-31.13,14.424-33.524,18.094,.194,1.593,.52,3.05,.958,4.277,0,0,12.256-21.012,33.985-18.826,3.623,.364,6.693,1.356,8.771,4.346,.135,.195,.263,.39,.38,.584,0,0-.498-1.716-1.745-4.047Z" style="opacity:.3;"></path><path d="M249.491,176.767c.917-.257,.916-2.143,.916-2.143,0,0,2.556,5.648-3.239,6.003-5.795,.355-8.668-1.837-9.317-4.218-.649-2.381,3.027-4.997,3.027-4.997,0,0-1.022,1.431,.843,3.371,1.173,1.136,2.913,1.458,4.415,.818,0,0,2.437,1.423,3.355,1.166Z" style="fill:#263238;"></path><path d="M249.491,176.767c.917-.257,.916-2.143,.916-2.143,0,0,2.556,5.648-3.239,6.003-5.795,.355-8.668-1.837-9.317-4.218-.649-2.381,3.027-4.997,3.027-4.997,0,0-1.022,1.431,.843,3.371,1.173,1.136,2.913,1.458,4.415,.818,0,0,2.437,1.423,3.355,1.166Z" style="fill:#fff; opacity:.7;"></path></g><g><g><path d="M192.624,330.05l-8.646-1.597c-2.14,7.623-3.298,15.488-3.445,23.404-.057,5.155,7.798,11.53,7.798,11.53,0,0,2.463,6.287,4.219,4.524,1.756-1.763-2.05-10.463-2.082-12.418-.093-6.079-.228-12.219,.325-12.996,.552-.777,.08,7.608,2.524,9.598,2.444,1.99,1.156-8.599,2.315-12.086,1.159-3.487-1.004-9.418-3.008-9.96Z" style="fill:#b97964;"></path></g><g><path d="M323.366,234.332l-20.926,17.881s-.938-3.313-2.347-8.15h0c-3.145-10.638-6.463-27.447-13.53-40.445-8.114-16.664-21.729-12.402-21.729-12.402-8.509,6.207-9.639,23.548,16.017,60.628,2.362,9.109,4.913,18.46,6.067,21.06,2.432,5.476,13.772,6.707,21.153,1.097,8.242-6.264,24.114-30.813,24.114-30.813l-8.82-8.856Z" style="fill:#5AE4A7;"></path><path d="M323.366,234.332l-20.926,17.881s-.938-3.313-2.347-8.15h0c-3.145-10.638-6.463-27.447-13.53-40.445-8.114-16.664-21.729-12.402-21.729-12.402-8.509,6.207-9.639,23.548,16.017,60.628,2.362,9.109,4.913,18.46,6.067,21.06,2.432,5.476,13.772,6.707,21.153,1.097,8.242-6.264,24.114-30.813,24.114-30.813l-8.82-8.856Z" style="opacity:.3;"></path><path d="M296.73,369.721c-.199,.459-8.404-56.202-10.222-73.329-3.204-30.181-8.054-75.965-13.035-103.107-.547-.593-4.115-2.742-6.08-2.742-7.028-.165-34.106-2.209-61.434,2.575l3.491,83.745c.7,.792-8.276,72.524-11.484,92.858h98.764Z" style="fill:#5AE4A7;"></path><path d="M296.73,369.721c-.199,.459-8.404-56.202-10.222-73.329-3.204-30.181-8.054-75.965-13.035-103.107-.547-.593-4.115-2.742-6.08-2.742-7.028-.165-34.106-2.209-61.434,2.575l3.491,83.745c.7,.792-8.276,72.524-11.484,92.858h98.764Z" style="opacity:.3;"></path><polygon points="224.428 190.728 227.537 184.032 239.883 189.524 246.548 183.627 251.709 189.968 242.845 206.259 224.428 190.728" style="fill:#5AE4A7;"></polygon><path d="M302.44,252.213s-1.201,4.374-.562,8.318l3.991-11.248-3.429,2.93Z" style="isolation:isolate; opacity:.2;"></path><path d="M191.683,207.557c-5.117,14.758-3.887,51.261-5.968,61.56-2.992,14.804-3.954,62.48-3.954,62.48l16.7,1.521,7.443-53.097,4.089-41.459,.157-46.176s-13.351,.414-18.468,15.172Z" style="fill:#5AE4A7;"></path><path d="M191.683,207.557c-5.117,14.758-3.887,51.261-5.968,61.56-2.992,14.804-3.954,62.48-3.954,62.48l16.7,1.521,7.443-53.097,4.089-41.459,.157-46.176s-13.351,.414-18.468,15.172Z" style="opacity:.3;"></path><polygon points="181.93 324.913 196.962 326.889 197.277 324.536 182.007 322.652 181.93 324.913" style="fill:#5AE4A7;"></polygon><polygon points="319.332 237.779 328.804 248.264 330.017 246.467 320.599 236.697 319.332 237.779" style="fill:#5AE4A7;"></polygon></g></g><polygon points="208.49 253.811 208.009 223.75 211.872 251.55 209.451 276.863 208.49 253.811" style="isolation:isolate; opacity:.2;"></polygon></g></g><g id="freepik--Speech_Bubble--inject-1"><g><g><path d="M273.714,96.153h28.172c5.651,0,10.232,4.581,10.232,10.232v17.085c0,5.651-4.581,10.232-10.232,10.232h-7.213l-6.873,6.529-1.003-6.529h-13.083c-5.65,0-10.231-4.581-10.231-10.231v-17.086c0-5.651,4.581-10.231,10.231-10.231Z" style="fill:#5AE4A7;"></path><g><path d="M280.546,114.973c0,1.664-1.349,3.014-3.014,3.014s-3.014-1.349-3.014-3.014,1.349-3.014,3.014-3.014,3.014,1.349,3.014,3.014Z" style="fill:#fff;"></path><path d="M290.814,114.973c0,1.664-1.35,3.014-3.014,3.014s-3.014-1.349-3.014-3.014,1.349-3.014,3.014-3.014,3.014,1.349,3.014,3.014Z" style="fill:#fff;"></path><path d="M301.353,114.973c0,1.664-1.349,3.014-3.014,3.014s-3.014-1.349-3.014-3.014,1.349-3.014,3.014-3.014,3.014,1.349,3.014,3.014Z" style="fill:#fff;"></path></g></g><path d="M273.241,94.644h15.995c.483,0,.483-.75,0-.75h-15.995c-.483,0-.483,.75,0,.75h0Z" style="fill:#5AE4A7;"></path><path d="M291.242,94.644h1.34c.196,0,.384-.172,.375-.375s-.165-.375-.375-.375h-1.34c-.196,0-.384,.172-.375,.375s.165,.375,.375,.375h0Z" style="fill:#5AE4A7;"></path></g></g><g id="freepik--Book--inject-1"><g><path d="M337.51,151.055l-43.396,1.101c-1.395,.035-2.46,1.252-2.3,2.639,1.258,10.917,6.128,52.88,6.703,53.627,.662,.859,31.549-8.291,38.911-3.302l.008,.478c.014,.807,.669,1.453,1.476,1.453,1.782,.001,4.62,.072,6.367,.121,.843,.024,1.527-.661,1.513-1.504l-.027-1.576s9.282-1.702,19.18-2.182c10.709-.52,16.957,.383,19.134-.42,2.176-.803-6.342-57.454-6.342-57.454l-41.228,7.018Z" style="fill:#5AE4A7;"></path><path d="M302.06,205.341l.029,1.688s14.67-6.026,26.588-5.211c6.422,.439,9.8,.9,11.55,1.231,1.304,.247,2.634,.115,3.871-.365,3.493-1.356,10.878-3.981,18.026-4.985,9.824-1.379,20.258,2.501,20.258,2.501l-.04-2.301s-18.22-9.565-18.65-9.471c-.43,.094-19.863,.343-19.863,.343l-40.253,10.198-1.515,6.372Z" style="fill:#fff; opacity:.3;"></path><path d="M294.938,150.573l6.178,55.175s23.613-10.743,38.343-3.506c1.681,.826,2.15,.972,3.683-.104,6.099-4.281,23.714-13.533,40.742-3.367l-5.813-55.853s-28.166-11.156-40.562,8.138c0,0-20.046-20.206-42.573-.483Z" style="fill:#5AE4A7;"></path><path d="M294.938,150.573l6.178,55.175s23.613-10.743,38.343-3.506c1.681,.826,2.15,.972,3.683-.104,6.099-4.281,23.714-13.533,40.742-3.367l-5.813-55.853s-28.166-11.156-40.562,8.138c0,0-20.046-20.206-42.573-.483Z" style="fill:#fff; opacity:.6;"></path><path d="M337.51,151.055c1.674,17.22,3.195,34.454,4.56,51.701-1.676-17.22-3.194-34.454-4.56-51.701h0Z" style="fill:#263238;"></path><g><path d="M343.881,162.198c8.236-7.344,20.413-9.249,30.886-6.424-10.56-2.492-22.437-.658-30.886,6.424h0Z" style="fill:#263238;"></path><path d="M343.015,157.35c8.235-7.389,20.399-9.136,30.886-6.424-10.572-2.379-22.438-.703-30.886,6.424h0Z" style="fill:#263238;"></path><path d="M344.241,165.902c8.237-7.41,20.391-9.045,30.886-6.424-10.578-2.288-22.436-.724-30.886,6.424h0Z" style="fill:#263238;"></path><path d="M344.601,169.607c8.237-7.389,20.398-9.1,30.886-6.424-10.572-2.343-22.436-.703-30.886,6.424h0Z" style="fill:#263238;"></path><path d="M344.961,173.312c8.144-7.418,20.151-8.998,30.589-6.515-10.512-2.151-22.242-.639-30.589,6.515h0Z" style="fill:#263238;"></path><path d="M345.321,177.017c8.226-7.481,20.375-9.03,30.886-6.424-10.589-2.274-22.457-.791-30.886,6.424h0Z" style="fill:#263238;"></path><path d="M345.768,181.621c8.231-7.497,20.369-8.898,30.886-6.424-10.592-2.141-22.453-.807-30.886,6.424h0Z" style="fill:#263238;"></path><path d="M345.758,185.917c8.231-7.422,20.391-9.115,30.886-6.424-10.575-2.359-22.452-.732-30.886,6.424h0Z" style="fill:#263238;"></path><path d="M346.287,191.374c8.244-7.441,20.38-8.841,30.886-6.424-10.58-2.084-22.441-.751-30.886,6.424h0Z" style="fill:#263238;"></path></g><g><path d="M333.703,162.473c-9.801-4.974-21.985-4.682-31.538,.752,9.377-5.734,21.898-6.032,31.538-.752h0Z" style="fill:#263238;"></path><path d="M333.447,157.555c-9.801-4.974-21.985-4.682-31.538,.752,9.377-5.734,21.898-6.032,31.538-.752h0Z" style="fill:#263238;"></path><path d="M334.194,166.163c-9.801-4.974-21.985-4.682-31.538,.752,9.377-5.734,21.899-6.032,31.538-.752h0Z" style="fill:#263238;"></path><path d="M334.684,169.852c-9.801-4.973-21.985-4.682-31.538,.752,9.377-5.734,21.899-6.032,31.538-.752h0Z" style="fill:#263238;"></path><path d="M335.174,173.542c-9.801-4.974-21.985-4.682-31.538,.752,9.377-5.734,21.899-6.032,31.538-.752h0Z" style="fill:#263238;"></path><path d="M335.664,177.232c-9.801-4.974-21.985-4.682-31.538,.752,9.377-5.734,21.899-6.032,31.538-.752h0Z" style="fill:#263238;"></path><path d="M336.274,181.818c-9.801-4.974-21.985-4.682-31.538,.752,9.377-5.734,21.899-6.032,31.538-.752h0Z" style="fill:#263238;"></path><path d="M337.258,185.999c-9.801-4.973-21.985-4.682-31.538,.752,9.377-5.734,21.899-6.032,31.538-.752h0Z" style="fill:#263238;"></path><path d="M337.981,191.434c-9.801-4.974-21.985-4.682-31.538,.752,9.377-5.734,21.899-6.032,31.538-.752h0Z" style="fill:#263238;"></path></g><path d="M341.101,146.665s4.057,50.298,4.26,49.863c.204-.435,1.739-3.05,1.739-3.05l2.326,1.398-4.58-51.14s-3.012-1.179-3.745,2.929Z" style="fill:#5AE4A7;"></path></g></g></svg>
