<?xml version="1.0" encoding="utf-8"?>
<!-- Generator: Adobe Illustrator 27.5.0, SVG Export Plug-In . SVG Version: 6.00 Build 0)  -->
<svg version="1.1" xmlns="http://www.w3.org/2000/svg" xmlns:xlink="http://www.w3.org/1999/xlink" x="0px" y="0px"
	 viewBox="0 0 500 500" style="enable-background:new 0 0 500 500;" xml:space="preserve">
<g id="Background_Simple">
	<g>
		<path style="fill:#92E3A9;" d="M484.927,266.013c-0.067,26.703-5.074,52.943-13.242,77.251
			c-24.392,72.593-80.726,136.005-153.99,132.809c-46.978-2.049-93.938-9.057-140.917-14.611
			c-40.102-4.741-79.969-9.083-113.585-40.998c-14.549-13.813-26.722-31.15-34.838-50.575
			C5.794,315.885,15.13,252.13,41.916,205.576c26.786-46.553,68.664-78.322,112.274-103.337c17.782-10.2,37.879-19.653,58.101-13.29
			c12.453,3.919,23.335,13.424,35.313,19.342c40.299,19.91,83.668-3.513,126.314,1.534c25.333,2.998,50.387,16.552,69.431,37.564
			c22.747,25.096,36.363,59.929,40.285,94.752C484.531,250.113,484.947,258.084,484.927,266.013z"/>
		<path style="opacity:0.7;fill:#FFFFFF;" d="M484.927,266.013c-0.067,26.703-5.074,52.943-13.242,77.251
			c-24.392,72.593-80.726,136.005-153.99,132.809c-46.978-2.049-93.938-9.057-140.917-14.611
			c-40.102-4.741-79.969-9.083-113.585-40.998c-14.549-13.813-26.722-31.15-34.838-50.575
			C5.794,315.885,15.13,252.13,41.916,205.576c26.786-46.553,68.664-78.322,112.274-103.337c17.782-10.2,37.879-19.653,58.101-13.29
			c12.453,3.919,23.335,13.424,35.313,19.342c40.299,19.91,83.668-3.513,126.314,1.534c25.333,2.998,50.387,16.552,69.431,37.564
			c22.747,25.096,36.363,59.929,40.285,94.752C484.531,250.113,484.947,258.084,484.927,266.013z"/>
	</g>
</g>
<g id="Mandala">
	<g style="opacity:0.19;">
		<path d="M247.465,33.334c-91.629,0-165.91,74.28-165.91,165.91c0,91.63,74.28,165.91,165.91,165.91s165.91-74.28,165.91-165.91
			C413.375,107.615,339.095,33.334,247.465,33.334z M247.465,355.888c-86.512,0-156.644-70.132-156.644-156.644
			c0-86.512,70.132-156.644,156.644-156.644s156.644,70.132,156.644,156.644C404.109,285.756,333.977,355.888,247.465,355.888z"/>
		<g>
			<g>
				<polygon style="fill:#FFFFFF;" points="249.071,200.675 148.821,96.555 149.577,32.306 211.558,61.785 				"/>
				<path d="M184.535,93.836c0,0-10.535-10.535-18.165-10.172c-7.629,0.363-14.532-1.09-13.442-7.266
					c1.09-6.176,9.809-7.266,17.075-3.633C177.269,76.398,184.535,93.836,184.535,93.836z"/>
				<path d="M186.842,91.917c0,0-1.873-14.781,3.088-20.589c4.961-5.807,8.041-12.153,2.492-15.075
					c-5.549-2.922-11.752,3.301-13.332,11.27C177.51,75.491,186.842,91.917,186.842,91.917z"/>
				<path d="M170.923,52.007c3.073,4.461,2.26,16.089,2.26,16.089s-11.154-3.384-14.227-7.846s-2.885-9.923,0.419-12.2
					C162.68,45.774,167.85,47.545,170.923,52.007z"/>
			</g>
			<g>
				<polygon style="fill:#FFFFFF;" points="251.327,197.518 111.031,232.278 55.768,199.499 112.288,160.561 				"/>
				<path d="M126.533,199.989c0,0-14.392,3.856-17.892,10.645s-8.21,12.04-13.013,8.008c-4.804-4.032-1.388-12.128,5.391-16.604
					C107.798,197.563,126.533,199.989,126.533,199.989z"/>
				<path d="M126.024,197.032c0,0-13.737-5.769-16.286-12.969c-2.549-7.2-6.504-13.04-11.81-9.696s-3.017,11.828,3.094,17.181
					C107.133,196.9,126.024,197.032,126.024,197.032z"/>
				<path d="M83.502,190.863c5.4-0.431,15.063,6.087,15.063,6.087s-8.508,7.968-13.908,8.398c-5.4,0.431-10.037-2.463-10.356-6.463
					C73.983,194.885,78.102,191.293,83.502,190.863z"/>
			</g>
			<g>
				<polygon style="fill:#FFFFFF;" points="249.721,193.987 209.675,332.866 153.656,364.336 148.195,295.919 				"/>
				<path d="M189.464,303.297c0,0-3.856,14.392,0.273,20.817c4.129,6.425,6.322,13.13,0.428,15.274
					c-5.894,2.144-11.197-4.862-11.684-12.971C177.995,318.308,189.464,303.297,189.464,303.297z"/>
				<path d="M186.648,302.259c0,0-11.865,9.012-19.374,7.62c-7.51-1.393-14.546-0.887-14.302,5.379
					c0.244,6.267,8.735,8.527,16.426,5.911C177.089,318.553,186.648,302.259,186.648,302.259z"/>
				<path d="M160.044,335.999c2.327-4.892,12.804-10.002,12.804-10.002s2.646,11.352,0.319,16.244
					c-2.327,4.892-7.151,7.46-10.775,5.737C158.768,346.255,157.717,340.891,160.044,335.999z"/>
			</g>
			<g>
				<polygon style="fill:#FFFFFF;" points="245.859,193.612 346.109,297.732 345.354,361.981 283.372,332.502 				"/>
				<path d="M310.396,300.451c0,0,10.535,10.535,18.165,10.172c7.629-0.363,14.532,1.09,13.442,7.266
					c-1.09,6.176-9.809,7.266-17.075,3.633C317.662,317.889,310.396,300.451,310.396,300.451z"/>
				<path d="M308.089,302.371c0,0,1.873,14.781-3.088,20.589c-4.961,5.807-8.041,12.153-2.492,15.075
					c5.549,2.922,11.752-3.301,13.332-11.27C317.42,318.796,308.089,302.371,308.089,302.371z"/>
				<path d="M324.007,342.28c-3.073-4.461-2.26-16.089-2.26-16.089s11.154,3.384,14.227,7.845c3.073,4.461,2.885,9.923-0.419,12.2
					C332.251,348.513,327.081,346.742,324.007,342.28z"/>
			</g>
			<g>
				<polygon style="fill:#FFFFFF;" points="243.604,196.769 383.9,162.01 439.163,194.789 382.643,233.727 				"/>
				<path d="M368.397,194.298c0,0,14.392-3.856,17.892-10.645c3.5-6.789,8.21-12.04,13.013-8.008
					c4.804,4.032,1.388,12.128-5.391,16.604C387.132,196.724,368.397,194.298,368.397,194.298z"/>
				<path d="M368.906,197.255c0,0,13.737,5.769,16.286,12.969s6.504,13.04,11.81,9.696c5.305-3.344,3.017-11.828-3.094-17.181
					C387.797,197.387,368.906,197.255,368.906,197.255z"/>
				<path d="M411.428,203.424c-5.4,0.431-15.064-6.087-15.064-6.087s8.508-7.967,13.908-8.398c5.4-0.431,10.037,2.463,10.356,6.463
					C420.948,199.402,416.829,202.994,411.428,203.424z"/>
			</g>
			<g>
				<polygon style="fill:#FFFFFF;" points="245.21,200.3 285.255,61.421 341.275,29.951 346.736,98.368 				"/>
				<path d="M305.467,90.99c0,0,3.856-14.392-0.273-20.817c-4.129-6.425-6.322-13.13-0.428-15.274
					c5.893-2.144,11.197,4.862,11.684,12.971C316.936,75.979,305.467,90.99,305.467,90.99z"/>
				<path d="M308.283,92.028c0,0,11.865-9.012,19.375-7.62c7.51,1.393,14.546,0.887,14.302-5.379
					c-0.244-6.267-8.735-8.527-16.426-5.911C317.842,75.734,308.283,92.028,308.283,92.028z"/>
				<path d="M334.886,58.288c-2.327,4.892-12.804,10.002-12.804,10.002s-2.646-11.352-0.319-16.244
					c2.327-4.892,7.151-7.46,10.775-5.737C336.162,48.033,337.213,53.396,334.886,58.288z"/>
			</g>
		</g>
		<g>
			<g>
				<path d="M302.724,89.53c-2.25-21.202-39.712-47.406-51.192-54.972c-11.48,7.565-48.942,33.769-51.192,54.972
					c-2.381,22.435,41.886,81.481,51.192,93.612C260.838,171.01,305.105,111.964,302.724,89.53z"/>
				<path style="fill:#FFFFFF;" d="M275.115,105.988c-13.842-7.177-23.583,6.152-23.583,6.152s-9.741-13.329-23.583-6.152
					c-8.551,4.434-15.893,18.969-7.177,26.146c8.715,7.177,13.329-1.538,11.791-8.203c-1.538-6.665,4.101-14.355,7.69-3.589
					c3.589,10.766-11.242,23.208-9.228,32.298c2.014,9.09,19.362,23.439,19.362,23.439s19.638-14.349,21.652-23.439
					c2.014-9.09-12.817-21.532-9.228-32.298c3.589-10.766,9.228-3.076,7.69,3.589c-1.538,6.665,3.076,15.38,11.791,8.203
					C291.008,124.956,283.666,110.422,275.115,105.988z"/>
				<g>
					<path style="fill:#FFFFFF;" d="M239.291,98.81c0,0-19.994,7.69-29.735,2.051c-9.741-5.639-3.076-17.431,7.177-18.969
						C226.987,80.354,239.291,98.81,239.291,98.81z"/>
					<path style="fill:#FFFFFF;" d="M247.944,95.08c0,0-20.633-12.963-25.454-21.427c-4.382-7.691,0.539-15.35,9.935-13.569
						C240.623,61.64,247.944,95.08,247.944,95.08z"/>
					<path style="fill:#FFFFFF;" d="M263.774,98.81c0,0,19.994,7.69,29.735,2.051c9.741-5.639,3.076-17.431-7.177-18.969
						C276.078,80.354,263.774,98.81,263.774,98.81z"/>
					<path style="fill:#FFFFFF;" d="M255.121,95.08c0,0,20.633-12.963,25.455-21.427c4.382-7.691-0.539-15.35-9.935-13.569
						C262.441,61.64,255.121,95.08,255.121,95.08z"/>
					<path style="fill:#FFFFFF;" d="M250.057,43.955c0,0-7.177,1.538-6.665,8.715c0.513,7.177,7.177,30.247,7.177,30.247
						l7.197-26.54c0.948-3.498,0.192-7.334-2.298-9.967C254.157,45.022,252.389,43.955,250.057,43.955z"/>
				</g>
			</g>
			<g>
				<path d="M181.898,95.481c-19.487-8.653-60.911,10.688-73.203,16.848c0.812,13.725,4.774,59.269,22.011,71.819
					c18.239,13.279,91.508,4.466,106.667,2.473C231.52,172.496,202.518,104.636,181.898,95.481z"/>
				<path style="fill:#FFFFFF;" d="M182.347,127.62c-13.137,8.399-6.464,23.499-6.464,23.499s-16.414,1.771-17.119,17.347
					c-0.436,9.622,8.481,23.248,19.054,19.289c10.573-3.959,5.333-12.313-1.208-14.313c-6.541-2-10.381-10.729,0.737-8.454
					c11.118,2.275,14.478,21.34,23.357,24.141c8.879,2.801,29.98-5.048,29.98-5.048s-2.608-24.182-9.473-30.471
					c-6.865-6.289-25.056,0.333-32.585-8.157c-7.529-8.491,1.95-9.53,6.953-4.865c5.003,4.664,14.857,5.026,12.999-6.11
					C206.72,123.341,190.462,122.432,182.347,127.62z"/>
				<g>
					<path style="fill:#FFFFFF;" d="M158.219,155.056c0,0-3.337,21.16-13.091,26.776c-9.754,5.616-16.633-6.051-12.839-15.7
						C136.083,156.484,158.219,155.056,158.219,155.056z"/>
					<path style="fill:#FFFFFF;" d="M159.315,145.698c0,0-21.543,11.387-31.283,11.331c-8.851-0.051-13.024-8.142-6.783-15.388
						C126.695,135.317,159.315,145.698,159.315,145.698z"/>
					<path style="fill:#FFFFFF;" d="M170.461,133.853c0,0,16.657-13.47,16.643-24.726c-0.014-11.255-13.557-11.379-20.016-3.269
						C160.629,113.969,170.461,133.853,170.461,133.853z"/>
					<path style="fill:#FFFFFF;" d="M162.904,139.482c0,0-0.91-24.35-5.829-32.758c-4.47-7.64-13.563-7.208-16.718,1.819
						C137.604,116.422,162.904,139.482,162.904,139.482z"/>
					<path style="fill:#FFFFFF;" d="M116.096,118.305c0,0-2.257,6.985,4.215,10.129c6.472,3.145,29.784,8.908,29.784,8.908
						l-19.386-19.503c-2.555-2.57-6.255-3.833-9.781-2.994C119.07,115.288,117.262,116.285,116.096,118.305z"/>
				</g>
			</g>
			<g>
				<path d="M126.639,203.095c-17.237,12.55-21.199,58.094-22.011,71.819c12.292,6.16,53.716,25.5,73.203,16.848
					c20.619-9.156,49.621-77.015,55.475-91.14C218.147,198.629,144.878,189.816,126.639,203.095z"/>
				<path style="fill:#FFFFFF;" d="M154.697,218.776c0.705,15.576,17.119,17.347,17.119,17.347s-6.673,15.1,6.464,23.499
					c8.115,5.188,24.374,4.279,26.232-6.857c1.858-11.136-7.997-10.775-12.999-6.11c-5.003,4.664-14.482,3.625-6.953-4.866
					c7.529-8.491,25.72-1.868,32.585-8.157c6.865-6.289,10.618-28.487,10.618-28.487s-22.245-9.833-31.125-7.032
					c-8.879,2.801-12.239,21.866-23.357,24.141c-11.118,2.275-7.278-6.454-0.737-8.454c6.541-2,11.781-10.354,1.208-14.313
					C163.178,195.528,154.261,209.154,154.697,218.776z"/>
				<g>
					<path style="fill:#FFFFFF;" d="M166.393,253.39c0,0,16.657,13.47,16.643,24.726c-0.013,11.255-13.557,11.379-20.016,3.269
						C156.562,273.273,166.393,253.39,166.393,253.39z"/>
					<path style="fill:#FFFFFF;" d="M158.837,247.761c0,0-0.91,24.35-5.829,32.757c-4.47,7.64-13.563,7.208-16.718-1.819
						C133.537,270.821,158.837,247.761,158.837,247.761z"/>
					<path style="fill:#FFFFFF;" d="M154.152,232.186c0,0-3.337-21.16-13.092-26.776c-9.754-5.616-16.633,6.051-12.839,15.7
						C132.016,230.759,154.152,232.186,154.152,232.186z"/>
					<path style="fill:#FFFFFF;" d="M155.248,241.545c0,0-21.543-11.387-31.283-11.331c-8.851,0.051-13.024,8.142-6.783,15.388
						C122.628,251.926,155.248,241.545,155.248,241.545z"/>
					<path style="fill:#FFFFFF;" d="M113.504,271.494c0,0,4.921,5.447,10.88,1.414c5.959-4.033,22.606-21.34,22.606-21.34
						l-26.583,7.037c-3.503,0.927-6.447,3.501-7.483,6.974C112.379,267.409,112.338,269.474,113.504,271.494z"/>
				</g>
			</g>
			<g>
				<path d="M192.206,304.758c2.25,21.203,39.712,47.406,51.192,54.971c11.48-7.565,48.942-33.769,51.192-54.971
					c2.381-22.435-41.886-81.481-51.192-93.612C234.093,223.277,189.826,282.323,192.206,304.758z"/>
				<path style="fill:#FFFFFF;" d="M219.816,288.299c13.842,7.177,23.583-6.152,23.583-6.152s9.741,13.329,23.583,6.152
					c8.551-4.434,15.893-18.969,7.177-26.146c-8.715-7.177-13.329,1.538-11.791,8.203c1.538,6.665-4.101,14.355-7.69,3.589
					c-3.589-10.766,11.242-23.208,9.228-32.298s-19.362-23.439-19.362-23.439s-19.638,14.349-21.652,23.439
					c-2.014,9.09,12.817,21.532,9.228,32.298c-3.589,10.766-9.228,3.076-7.69-3.589c1.538-6.665-3.076-15.38-11.792-8.203
					C203.923,269.331,211.264,283.866,219.816,288.299z"/>
				<g>
					<path style="fill:#FFFFFF;" d="M255.64,295.477c0,0,19.994-7.69,29.735-2.051c9.741,5.639,3.076,17.431-7.177,18.969
						C267.944,313.933,255.64,295.477,255.64,295.477z"/>
					<path style="fill:#FFFFFF;" d="M246.987,299.207c0,0,20.633,12.963,25.455,21.427c4.382,7.691-0.539,15.35-9.935,13.568
						C254.307,332.647,246.987,299.207,246.987,299.207z"/>
					<path style="fill:#FFFFFF;" d="M231.157,295.477c0,0-19.994-7.69-29.735-2.051c-9.741,5.639-3.076,17.431,7.177,18.969
						C218.852,313.933,231.157,295.477,231.157,295.477z"/>
					<path style="fill:#FFFFFF;" d="M239.81,299.207c0,0-20.633,12.963-25.455,21.427c-4.382,7.691,0.539,15.35,9.935,13.568
						C232.489,332.647,239.81,299.207,239.81,299.207z"/>
					<path style="fill:#FFFFFF;" d="M244.874,350.332c0,0,7.177-1.538,6.665-8.715c-0.513-7.177-7.177-30.247-7.177-30.247
						l-7.197,26.54c-0.949,3.498-0.192,7.334,2.298,9.967C240.774,349.265,242.541,350.332,244.874,350.332z"/>
				</g>
			</g>
			<g>
				<path d="M313.032,298.806c19.487,8.653,60.911-10.688,73.203-16.848c-0.812-13.725-4.774-59.269-22.011-71.819
					c-18.239-13.279-91.508-4.466-106.667-2.473C263.411,221.791,292.413,289.651,313.032,298.806z"/>
				<path style="fill:#FFFFFF;" d="M312.584,266.667c13.137-8.399,6.464-23.499,6.464-23.499s16.414-1.771,17.119-17.347
					c0.436-9.622-8.481-23.248-19.055-19.289c-10.573,3.959-5.333,12.313,1.208,14.313c6.541,2,10.381,10.729-0.737,8.454
					c-11.118-2.275-14.478-21.34-23.357-24.141c-8.879-2.801-29.98,5.048-29.98,5.048s2.608,24.182,9.473,30.471
					c6.865,6.289,25.056-0.334,32.585,8.157c7.529,8.491-1.95,9.53-6.953,4.865c-5.003-4.664-14.857-5.026-12.999,6.11
					C288.21,270.946,304.468,271.855,312.584,266.667z"/>
				<g>
					<path style="fill:#FFFFFF;" d="M336.712,239.231c0,0,3.337-21.16,13.091-26.776c9.754-5.616,16.633,6.051,12.839,15.7
						C358.847,237.803,336.712,239.231,336.712,239.231z"/>
					<path style="fill:#FFFFFF;" d="M335.616,248.589c0,0,21.543-11.387,31.283-11.331c8.851,0.051,13.024,8.142,6.783,15.388
						C368.236,258.97,335.616,248.589,335.616,248.589z"/>
					<path style="fill:#FFFFFF;" d="M324.47,260.434c0,0-16.657,13.47-16.643,24.726c0.013,11.255,13.557,11.379,20.016,3.269
						C334.301,280.318,324.47,260.434,324.47,260.434z"/>
					<path style="fill:#FFFFFF;" d="M332.027,254.805c0,0,0.91,24.35,5.829,32.758c4.47,7.64,13.563,7.208,16.718-1.819
						C357.327,277.865,332.027,254.805,332.027,254.805z"/>
					<path style="fill:#FFFFFF;" d="M378.835,275.982c0,0,2.257-6.985-4.215-10.129c-6.472-3.145-29.784-8.908-29.784-8.908
						l19.386,19.503c2.555,2.57,6.255,3.833,9.781,2.994C375.86,278.999,377.669,278.002,378.835,275.982z"/>
				</g>
			</g>
			<g>
				<path d="M368.291,191.192c17.237-12.55,21.199-58.094,22.011-71.819c-12.292-6.16-53.716-25.5-73.203-16.848
					c-20.619,9.156-49.621,77.015-55.475,91.14C276.784,195.658,350.053,204.471,368.291,191.192z"/>
				<path style="fill:#FFFFFF;" d="M340.233,175.511c-0.705-15.576-17.119-17.347-17.119-17.347s6.673-15.1-6.464-23.499
					c-8.115-5.188-24.374-4.279-26.232,6.857c-1.858,11.136,7.997,10.774,13,6.11c5.003-4.664,14.482-3.625,6.953,4.865
					c-7.529,8.491-25.72,1.868-32.585,8.157s-10.618,28.487-10.618,28.487s22.246,9.832,31.125,7.031
					c8.879-2.801,12.239-21.865,23.357-24.141c11.118-2.275,7.278,6.454,0.737,8.454c-6.541,2-11.781,10.354-1.208,14.313
					C331.753,198.759,340.669,185.133,340.233,175.511z"/>
				<g>
					<path style="fill:#FFFFFF;" d="M328.537,140.898c0,0-16.657-13.47-16.643-24.726c0.013-11.255,13.557-11.379,20.016-3.269
						C338.368,121.014,328.537,140.898,328.537,140.898z"/>
					<path style="fill:#FFFFFF;" d="M336.094,146.526c0,0,0.91-24.35,5.829-32.757c4.47-7.64,13.563-7.208,16.718,1.819
						C361.394,123.466,336.094,146.526,336.094,146.526z"/>
					<path style="fill:#FFFFFF;" d="M340.779,162.101c0,0,3.337,21.16,13.091,26.776c9.754,5.616,16.633-6.051,12.839-15.7
						C362.914,163.528,340.779,162.101,340.779,162.101z"/>
					<path style="fill:#FFFFFF;" d="M339.683,152.742c0,0,21.543,11.387,31.283,11.331c8.851-0.051,13.024-8.142,6.783-15.388
						C372.303,142.361,339.683,152.742,339.683,152.742z"/>
					<path style="fill:#FFFFFF;" d="M381.426,122.793c0,0-4.921-5.447-10.88-1.414c-5.96,4.033-22.606,21.339-22.606,21.339
						l26.583-7.037c3.503-0.927,6.447-3.501,7.483-6.974C382.552,126.878,382.593,124.814,381.426,122.793z"/>
				</g>
			</g>
		</g>
		<g>
			<g>
				<path style="fill:#FFFFFF;" d="M259.292,158.162c0,18.22-11.827,32.99-11.827,32.99s-11.827-14.77-11.827-32.99
					c0-18.22,5.295-32.99,11.827-32.99C253.997,125.172,259.292,139.942,259.292,158.162z"/>
				<path style="fill:#FFFFFF;" d="M230.118,160.171c11.712,13.957,12.146,32.874,12.146,32.874s-18.554-3.713-30.266-17.67
					c-11.712-13.957-17.15-28.676-12.146-32.874S218.406,146.214,230.118,160.171z"/>
				<path style="fill:#FFFFFF;" d="M209.061,180.463c17.943,3.164,30.435,17.376,30.435,17.376s-16.6,9.082-34.543,5.918
					c-17.943-3.164-31.57-10.943-30.435-17.376C175.652,179.949,191.118,177.299,209.061,180.463z"/>
				<path style="fill:#FFFFFF;" d="M205.974,209.543c15.779-9.11,34.484-6.253,34.484-6.253s-6.878,17.627-22.657,26.737
					s-31.218,11.91-34.484,6.253C180.051,230.624,190.195,218.653,205.974,209.543z"/>
				<path style="fill:#FFFFFF;" d="M222.301,233.804c6.232-17.121,22.397-26.956,22.397-26.956s6.062,17.924-0.17,35.046
					c-6.232,17.121-16.259,29.19-22.397,26.956C215.993,266.615,216.069,250.925,222.301,233.804z"/>
				<path style="fill:#FFFFFF;" d="M250.403,241.894c-6.232-17.121-0.17-35.046-0.17-35.046s16.165,9.835,22.397,26.956
					c6.232,17.121,6.308,32.812,0.17,35.046C266.662,271.083,256.634,259.015,250.403,241.894z"/>
				<path style="fill:#FFFFFF;" d="M277.13,230.027c-15.779-9.11-22.657-26.737-22.657-26.737s18.705-2.857,34.484,6.253
					c15.779,9.11,25.923,21.081,22.657,26.737C308.348,241.937,292.909,239.137,277.13,230.027z"/>
				<path style="fill:#FFFFFF;" d="M289.977,203.757c-17.943,3.164-34.543-5.918-34.543-5.918s12.492-14.212,30.435-17.376
					c17.943-3.164,33.409-0.514,34.543,5.918C321.547,192.814,307.92,200.593,289.977,203.757z"/>
				<path style="fill:#FFFFFF;" d="M282.932,175.375c-11.712,13.957-30.266,17.67-30.266,17.67s0.434-18.917,12.146-32.874
					c11.712-13.957,25.262-21.868,30.266-17.67S294.644,161.418,282.932,175.375z"/>
			</g>
			<g>
				<path style="stroke:#263238;stroke-miterlimit:10;" d="M254.329,174.52c0,10.574-6.864,19.146-6.864,19.146
					s-6.864-8.572-6.864-19.146c0-10.574,3.073-19.146,6.864-19.146C251.256,155.374,254.329,163.946,254.329,174.52z"/>
				<path style="stroke:#263238;stroke-miterlimit:10;" d="M237.398,175.686c6.797,8.1,7.049,19.079,7.049,19.079
					s-10.768-2.155-17.565-10.255c-6.797-8.1-9.953-16.642-7.049-19.079C222.737,162.995,230.601,167.586,237.398,175.686z"/>
				<path style="stroke:#263238;stroke-miterlimit:10;" d="M225.177,187.463c10.413,1.836,17.663,10.084,17.663,10.084
					s-9.634,5.271-20.047,3.435s-18.322-6.351-17.663-10.084C205.788,187.165,214.763,185.627,225.177,187.463z"/>
				<path style="stroke:#263238;stroke-miterlimit:10;" d="M223.385,204.34c9.158-5.287,20.013-3.629,20.013-3.629
					s-3.992,10.23-13.149,15.517c-9.158,5.287-18.118,6.912-20.013,3.629C208.341,216.574,214.228,209.627,223.385,204.34z"/>
				<path style="stroke:#263238;stroke-miterlimit:10;" d="M232.861,218.419c3.617-9.936,12.998-15.644,12.998-15.644
					s3.518,10.403-0.099,20.339c-3.617,9.936-9.436,16.941-12.998,15.644C229.2,237.462,229.244,228.356,232.861,218.419z"/>
				<path style="stroke:#263238;stroke-miterlimit:10;" d="M249.17,223.115c-3.617-9.936-0.099-20.339-0.099-20.339
					s9.382,5.707,12.998,15.644c3.616,9.937,3.661,19.043,0.098,20.339C258.606,240.055,252.787,233.051,249.17,223.115z"/>
				<path style="stroke:#263238;stroke-miterlimit:10;" d="M264.681,216.228c-9.157-5.287-13.149-15.517-13.149-15.517
					s10.855-1.658,20.013,3.629c9.157,5.287,15.044,12.234,13.149,15.517C282.799,223.14,273.839,221.515,264.681,216.228z"/>
				<path style="stroke:#263238;stroke-miterlimit:10;" d="M272.137,200.982c-10.414,1.836-20.047-3.435-20.047-3.435
					s7.25-8.248,17.663-10.084c10.413-1.836,19.389-0.298,20.047,3.435C290.459,194.631,282.551,199.146,272.137,200.982z"/>
				<path style="stroke:#263238;stroke-miterlimit:10;" d="M268.049,184.51c-6.797,8.1-17.565,10.255-17.565,10.255
					s0.252-10.978,7.049-19.079c6.797-8.1,14.661-12.691,17.565-10.255C278.002,167.868,274.846,176.41,268.049,184.51z"/>
			</g>
			
				<ellipse transform="matrix(0.3863 -0.9224 0.9224 0.3863 -31.9145 350.5191)" style="fill:#FFFFFF;" cx="247.465" cy="199.244" rx="15.561" ry="15.562"/>
		</g>
	</g>
</g>
<g id="Plants">
	<g>
		<g>
			<g>
				<g>
					<path style="fill:#263238;" d="M430.059,462.407c-0.321,0.038-0.599-0.218-0.633-0.594
						c-2.768-31.31,8.964-63.817,30.617-84.833c0.272-0.264,0.661-0.236,0.867,0.065c0.206,0.3,0.153,0.759-0.12,1.023
						c-21.31,20.684-32.855,52.675-30.131,83.49c0.035,0.394-0.213,0.771-0.553,0.842
						C430.09,462.403,430.074,462.405,430.059,462.407z"/>
				</g>
				<g>
					<g>
						<path style="fill:#263238;" d="M442.311,433.827c-7.296-1.755-12.498,11.63-12.253,11.843
							c-0.141,1.523-0.25,3.053-0.326,4.589c0.693-1.933,4.293-4.969,9.891-6.768C445.131,441.475,449.333,435.192,442.311,433.827z
							"/>
					</g>
					<g>
						<path style="fill:#263238;" d="M420.992,429.924c-7.228-1.415-5.875,10.333-0.496,12.937c5.182,2.764,8.494,5.57,9.126,7.404
							c-0.012-1.532,0.008-3.065,0.062-4.595C429.403,445.792,427.773,431.565,420.992,429.924z"/>
					</g>
				</g>
				<g>
					<g>
						<path style="fill:#263238;" d="M445.763,421.035c-6.847-3.174-13.805,9.013-13.601,9.257c-0.355,1.47-0.68,2.952-0.974,4.444
							c0.952-1.758,4.888-4.026,10.59-4.684C447.424,429.168,452.401,423.787,445.763,421.035z"/>
					</g>
					<g>
						<path style="fill:#263238;" d="M425.578,412.932c-6.83-2.831-7.177,9.061-2.317,12.689c4.648,3.757,7.469,7.175,7.82,9.099
							c0.208-1.506,0.447-3.008,0.718-4.503C431.511,430.297,431.943,415.92,425.578,412.932z"/>
					</g>
				</g>
				<g>
					<g>
						<path style="fill:#263238;" d="M450.935,408.995c-6.214-4.502-14.709,6.249-14.544,6.519c-0.553,1.388-1.079,2.792-1.576,4.21
							c1.175-1.55,5.325-3.017,10.964-2.542C451.395,417.429,457.001,413.05,450.935,408.995z"/>
					</g>
					<g>
						<path style="fill:#263238;" d="M432.448,396.939c-6.244-4.163-8.27,7.615-4.054,12.173c3.99,4.652,6.251,8.601,6.319,10.575
							c0.415-1.45,0.861-2.89,1.335-4.319C435.755,415.403,438.213,401.184,432.448,396.939z"/>
					</g>
				</g>
				<g>
					<g>
						<path style="fill:#263238;" d="M457.703,397.971c-5.409-5.712-15.23,3.378-15.101,3.672c-0.736,1.277-1.448,2.573-2.133,3.888
							c1.363-1.313,5.61-1.96,11.031-0.378C456.929,406.505,463.023,403.216,457.703,397.971z"/>
					</g>
					<g>
						<path style="fill:#263238;" d="M441.439,382.295c-5.485-5.382-9.161,6.01-5.705,11.385c3.217,5.43,4.855,9.814,4.642,11.795
							c0.61-1.363,1.248-2.711,1.914-4.045C441.993,401.416,446.433,387.677,441.439,382.295z"/>
					</g>
				</g>
				<g>
					<g>
						<path style="fill:#263238;" d="M465.946,388.224c-4.446-6.773-15.387,0.445-15.294,0.759
							c-0.905,1.136-1.787,2.296-2.645,3.479c1.518-1.048,5.753-0.87,10.809,1.768C463.91,396.641,470.359,394.518,465.946,388.224z
							"/>
					</g>
					<g>
						<path style="fill:#263238;" d="M452.388,369.349c-4.564-6.46-9.858,4.263-7.268,10.319c2.341,6.069,3.299,10.778,2.804,12.72
							c0.792-1.245,1.61-2.472,2.454-3.678C450.08,388.644,456.453,375.72,452.388,369.349z"/>
					</g>
				</g>
				<g>
					<path style="fill:#263238;" d="M455.832,382.261c-0.201-0.007,5.692-11.472,10.767-15.789c4.89-4.403,8.603-1.382,8.7,1.646
						c0.14,3.038-3.364,5.95-6.628,7.664C465.348,377.18,455.806,382.05,455.832,382.261z"/>
					<path style="fill:#263238;" d="M455.844,382.742c-0.018,0.002-0.036,0.003-0.055,0.002c-0.174-0.006-0.322-0.145-0.363-0.34
						c-0.003-0.013-0.004-0.029-0.004-0.047c-0.017-0.132-0.027-0.233,0.088-0.373c0.775-2.279,6.501-12.187,10.863-15.896
						c2.407-2.169,4.927-2.857,6.907-1.876c1.425,0.705,2.379,2.217,2.432,3.851c0.189,4.11-5.23,7.283-6.896,8.157
						c-3.241,1.366-11.925,5.804-12.699,6.365C456.043,382.674,455.945,382.73,455.844,382.742z M470.784,364.767
						c-1.053,0.126-2.383,0.67-3.948,2.079c-4.004,3.406-8.468,11.228-10.037,14.283c0.807-0.446,2.074-1.098,4.057-2.104
						c2.556-1.296,5.921-2.948,7.702-3.698c3.127-1.643,6.457-4.395,6.329-7.149c-0.041-1.296-0.817-2.498-1.975-3.072
						C472.442,364.874,471.722,364.655,470.784,364.767z"/>
				</g>
			</g>
		</g>
		<g>
			<g>
				<path style="fill:#263238;" d="M392.241,407.612c0.154-0.197,0.406-0.221,0.562-0.055c12.446,13.17,17.705,33.886,13.725,54.064
					c-0.013,0.066-0.038,0.125-0.071,0.177l-0.708-0.158c-0.006-0.053-0.007-0.107,0.004-0.164
					c3.917-19.858-1.258-40.246-13.507-53.208C392.09,408.102,392.088,407.808,392.241,407.612z"/>
			</g>
			<g>
				<g>
					<path style="fill:#263238;" d="M400.211,443.829c4.815-1.244,7.219,7.28,7.047,7.421c-0.016,0.977-0.053,1.959-0.113,2.945
						c-0.31-1.232-2.411-3.127-5.885-4.195C397.859,448.792,395.599,444.819,400.211,443.829z"/>
				</g>
				<g>
					<path style="fill:#263238;" d="M414.193,440.98c4.747-1.025,3.051,6.551-0.59,8.311c-3.527,1.86-5.854,3.717-6.389,4.906
						c0.116-0.986,0.21-1.971,0.283-2.954C407.67,451.318,409.718,442.143,414.193,440.98z"/>
				</g>
			</g>
			<g>
				<g>
					<path style="fill:#263238;" d="M398.89,435.658c4.626-2.149,8.244,5.576,8.095,5.736c0.125,0.94,0.23,1.887,0.314,2.842
						c-0.489-1.115-2.86-2.511-6.48-2.844C397.25,440.914,394.428,437.534,398.89,435.658z"/>
				</g>
				<g>
					<path style="fill:#263238;" d="M412.439,430.127c4.591-1.929,3.978,5.712,0.598,8.122c-3.253,2.49-5.307,4.732-5.668,5.975
						c-0.028-0.965-0.076-1.927-0.145-2.884C407.403,441.388,408.136,432.149,412.439,430.127z"/>
				</g>
			</g>
			<g>
				<g>
					<path style="fill:#263238;" d="M396.41,427.999c4.312-2.994,9.019,3.784,8.894,3.961c0.258,0.884,0.498,1.778,0.718,2.682
						c-0.647-0.978-3.212-1.856-6.871-1.46C395.521,433.429,392.224,430.703,396.41,427.999z"/>
				</g>
				<g>
					<path style="fill:#263238;" d="M409.145,419.952c4.308-2.776,4.783,4.765,1.751,7.763c-2.893,3.055-4.624,5.63-4.807,6.901
						c-0.165-0.926-0.35-1.845-0.555-2.756C405.721,431.878,405.14,422.773,409.145,419.952z"/>
				</g>
			</g>
			<g>
				<g>
					<path style="fill:#263238;" d="M392.833,421.017c3.879-3.759,9.556,1.93,9.452,2.121c0.384,0.809,0.75,1.632,1.098,2.466
						c-0.784-0.823-3.47-1.171-7.067-0.068C392.731,426.492,389.043,424.474,392.833,421.017z"/>
				</g>
				<g>
					<path style="fill:#263238;" d="M404.393,410.679c3.905-3.548,5.469,3.719,2.869,7.23c-2.451,3.543-3.812,6.388-3.814,7.658
						c-0.297-0.866-0.612-1.724-0.947-2.57C402.693,422.983,400.803,414.219,404.393,410.679z"/>
				</g>
			</g>
			<g>
				<g>
					<path style="fill:#263238;" d="M388.217,414.881c3.335-4.426,9.863,0.042,9.781,0.245c0.502,0.716,0.988,1.448,1.456,2.195
						c-0.903-0.65-3.638-0.468-7.075,1.309C388.935,420.261,384.937,418.998,388.217,414.881z"/>
				</g>
				<g>
					<path style="fill:#263238;" d="M398.263,402.528c3.389-4.226,6.039,2.585,3.948,6.52c-1.932,3.94-2.879,6.983-2.697,8.224
						c-0.422-0.788-0.862-1.564-1.32-2.326C398.39,414.898,395.201,406.689,398.263,402.528z"/>
				</g>
			</g>
			<g>
				<path style="fill:#263238;" d="M395.14,410.885c0.13-0.008-2.854-7.286-5.814-9.982c-2.835-2.754-5.435-0.752-5.71,1.197
					c-0.304,1.956,1.745,3.773,3.724,4.823C389.378,407.77,395.172,410.749,395.14,410.885z"/>
				<path style="fill:#263238;" d="M395.099,411.195c0.012,0.001,0.023,0.001,0.035,0.001c0.112-0.007,0.217-0.099,0.257-0.224
					c0.003-0.009,0.005-0.019,0.006-0.03c0.02-0.085,0.034-0.151-0.03-0.238c-0.338-1.453-3.324-7.733-5.868-10.049
					c-1.395-1.356-2.967-1.759-4.309-1.097c-0.966,0.476-1.686,1.464-1.834,2.515c-0.411,2.646,2.852,4.6,3.861,5.135
					c1.988,0.827,7.26,3.543,7.719,3.891C394.976,411.155,395.034,411.189,395.099,411.195z M386.755,399.874
					c0.668,0.064,1.485,0.393,2.393,1.274c2.335,2.126,4.656,7.086,5.45,9.025c-0.487-0.274-1.257-0.673-2.461-1.288
					c-1.552-0.793-3.6-1.801-4.693-2.255c-1.895-1.007-3.843-2.724-3.568-4.496c0.118-0.834,0.701-1.619,1.486-2.007
					C385.682,399.969,386.159,399.817,386.755,399.874z"/>
			</g>
		</g>
	</g>
	<g>
		<g>
			<g>
				<g>
					<path style="fill:#263238;" d="M74.739,462.407c0.321,0.038,0.599-0.218,0.632-0.594c2.768-31.31-8.964-63.817-30.617-84.833
						c-0.272-0.264-0.661-0.236-0.867,0.065c-0.206,0.3-0.153,0.759,0.12,1.023c21.31,20.684,32.855,52.675,30.131,83.49
						c-0.035,0.394,0.213,0.771,0.553,0.842C74.708,462.403,74.723,462.405,74.739,462.407z"/>
				</g>
				<g>
					<g>
						<path style="fill:#263238;" d="M62.487,433.827c7.296-1.755,12.498,11.63,12.253,11.843c0.141,1.523,0.25,3.053,0.326,4.589
							c-0.693-1.933-4.293-4.969-9.891-6.768C59.666,441.475,55.464,435.192,62.487,433.827z"/>
					</g>
					<g>
						<path style="fill:#263238;" d="M83.805,429.924c7.228-1.415,5.874,10.333,0.496,12.937c-5.182,2.764-8.494,5.57-9.126,7.404
							c0.012-1.532-0.008-3.065-0.062-4.595C75.395,445.792,77.024,431.565,83.805,429.924z"/>
					</g>
				</g>
				<g>
					<g>
						<path style="fill:#263238;" d="M59.034,421.035c6.847-3.174,13.805,9.013,13.601,9.257c0.355,1.47,0.68,2.952,0.974,4.444
							c-0.952-1.758-4.888-4.026-10.59-4.684C57.373,429.168,52.396,423.787,59.034,421.035z"/>
					</g>
					<g>
						<path style="fill:#263238;" d="M79.219,412.932c6.83-2.831,7.177,9.061,2.317,12.689c-4.648,3.757-7.469,7.175-7.82,9.099
							c-0.208-1.506-0.447-3.008-0.718-4.503C73.286,430.297,72.854,415.92,79.219,412.932z"/>
					</g>
				</g>
				<g>
					<g>
						<path style="fill:#263238;" d="M53.863,408.995c6.214-4.502,14.709,6.249,14.543,6.519c0.553,1.388,1.079,2.792,1.576,4.21
							c-1.175-1.55-5.325-3.017-10.964-2.542C53.402,417.429,47.796,413.05,53.863,408.995z"/>
					</g>
					<g>
						<path style="fill:#263238;" d="M72.35,396.939c6.244-4.163,8.27,7.615,4.054,12.173c-3.99,4.652-6.251,8.601-6.319,10.575
							c-0.415-1.45-0.861-2.89-1.335-4.319C69.042,415.403,66.584,401.184,72.35,396.939z"/>
					</g>
				</g>
				<g>
					<g>
						<path style="fill:#263238;" d="M47.094,397.971c5.409-5.712,15.23,3.378,15.101,3.672c0.736,1.277,1.448,2.573,2.133,3.888
							c-1.363-1.313-5.61-1.96-11.031-0.378C47.868,406.505,41.774,403.216,47.094,397.971z"/>
					</g>
					<g>
						<path style="fill:#263238;" d="M63.359,382.295c5.485-5.382,9.161,6.01,5.705,11.385c-3.218,5.43-4.855,9.814-4.642,11.795
							c-0.61-1.363-1.248-2.711-1.914-4.045C62.804,401.416,58.364,387.677,63.359,382.295z"/>
					</g>
				</g>
				<g>
					<g>
						<path style="fill:#263238;" d="M38.851,388.224c4.446-6.773,15.387,0.445,15.294,0.759c0.905,1.136,1.787,2.296,2.645,3.479
							c-1.518-1.048-5.753-0.87-10.809,1.768C40.887,396.641,34.438,394.518,38.851,388.224z"/>
					</g>
					<g>
						<path style="fill:#263238;" d="M52.41,369.349c4.564-6.46,9.858,4.263,7.268,10.319c-2.341,6.069-3.299,10.778-2.804,12.72
							c-0.792-1.245-1.61-2.472-2.455-3.678C54.717,388.644,48.344,375.72,52.41,369.349z"/>
					</g>
				</g>
				<g>
					<path style="fill:#263238;" d="M48.965,382.261c0.201-0.007-5.692-11.472-10.767-15.789c-4.89-4.403-8.603-1.382-8.7,1.646
						c-0.14,3.038,3.364,5.95,6.628,7.664C39.449,377.18,48.991,382.05,48.965,382.261z"/>
					<path style="fill:#263238;" d="M48.953,382.742c0.018,0.002,0.036,0.003,0.055,0.002c0.174-0.006,0.322-0.145,0.363-0.34
						c0.003-0.013,0.004-0.029,0.004-0.047c0.016-0.132,0.027-0.233-0.088-0.373c-0.775-2.279-6.502-12.187-10.863-15.896
						c-2.407-2.169-4.927-2.857-6.907-1.876c-1.425,0.705-2.379,2.217-2.432,3.851c-0.189,4.11,5.23,7.283,6.896,8.157
						c3.241,1.366,11.925,5.804,12.7,6.365C48.755,382.674,48.852,382.73,48.953,382.742z M34.014,364.767
						c1.053,0.126,2.382,0.67,3.948,2.079c4.004,3.406,8.468,11.228,10.037,14.283c-0.807-0.446-2.074-1.098-4.057-2.104
						c-2.556-1.296-5.921-2.948-7.702-3.698c-3.127-1.643-6.457-4.395-6.33-7.149c0.041-1.296,0.817-2.498,1.976-3.072
						C32.356,364.874,33.075,364.655,34.014,364.767z"/>
				</g>
			</g>
		</g>
		<g>
			<g>
				<path style="fill:#263238;" d="M112.556,407.612c-0.154-0.197-0.406-0.221-0.562-0.055
					c-12.446,13.17-17.705,33.886-13.725,54.064c0.013,0.066,0.038,0.125,0.071,0.177l0.708-0.158
					c0.006-0.053,0.007-0.107-0.004-0.164c-3.917-19.858,1.258-40.246,13.507-53.208
					C112.707,408.102,112.71,407.808,112.556,407.612z"/>
			</g>
			<g>
				<g>
					<path style="fill:#263238;" d="M104.587,443.829c-4.815-1.244-7.219,7.28-7.047,7.421c0.016,0.977,0.053,1.959,0.113,2.945
						c0.31-1.232,2.411-3.127,5.885-4.195C106.938,448.792,109.198,444.819,104.587,443.829z"/>
				</g>
				<g>
					<path style="fill:#263238;" d="M90.604,440.98c-4.747-1.025-3.051,6.551,0.59,8.311c3.527,1.86,5.854,3.717,6.389,4.906
						c-0.116-0.986-0.21-1.971-0.283-2.954C97.127,451.318,95.079,442.143,90.604,440.98z"/>
				</g>
			</g>
			<g>
				<g>
					<path style="fill:#263238;" d="M105.907,435.658c-4.626-2.149-8.244,5.576-8.095,5.736c-0.125,0.94-0.23,1.887-0.314,2.842
						c0.489-1.115,2.86-2.511,6.48-2.844C107.548,440.914,110.37,437.534,105.907,435.658z"/>
				</g>
				<g>
					<path style="fill:#263238;" d="M92.358,430.127c-4.591-1.929-3.978,5.712-0.598,8.122c3.253,2.49,5.307,4.732,5.668,5.975
						c0.028-0.965,0.076-1.927,0.145-2.884C97.394,441.388,96.661,432.149,92.358,430.127z"/>
				</g>
			</g>
			<g>
				<g>
					<path style="fill:#263238;" d="M108.387,427.999c-4.312-2.994-9.019,3.784-8.894,3.961c-0.258,0.884-0.498,1.778-0.718,2.682
						c0.647-0.978,3.212-1.856,6.871-1.46C109.276,433.429,112.573,430.703,108.387,427.999z"/>
				</g>
				<g>
					<path style="fill:#263238;" d="M95.652,419.952c-4.308-2.776-4.783,4.765-1.751,7.763c2.893,3.055,4.624,5.63,4.807,6.901
						c0.165-0.926,0.35-1.845,0.555-2.756C99.077,431.878,99.658,422.773,95.652,419.952z"/>
				</g>
			</g>
			<g>
				<g>
					<path style="fill:#263238;" d="M111.965,421.017c-3.88-3.759-9.556,1.93-9.453,2.121c-0.384,0.809-0.75,1.632-1.098,2.466
						c0.785-0.823,3.47-1.171,7.067-0.068C112.067,426.492,115.754,424.474,111.965,421.017z"/>
				</g>
				<g>
					<path style="fill:#263238;" d="M100.404,410.679c-3.905-3.548-5.469,3.719-2.869,7.23c2.451,3.543,3.812,6.388,3.814,7.658
						c0.297-0.866,0.612-1.724,0.947-2.57C102.105,422.983,103.994,414.219,100.404,410.679z"/>
				</g>
			</g>
			<g>
				<g>
					<path style="fill:#263238;" d="M116.58,414.881c-3.335-4.426-9.863,0.042-9.781,0.245c-0.502,0.716-0.987,1.448-1.456,2.195
						c0.903-0.65,3.638-0.468,7.075,1.309C115.862,420.261,119.86,418.998,116.58,414.881z"/>
				</g>
				<g>
					<path style="fill:#263238;" d="M106.535,402.528c-3.389-4.226-6.039,2.585-3.948,6.52c1.932,3.94,2.879,6.983,2.697,8.224
						c0.422-0.788,0.862-1.564,1.32-2.326C106.407,414.898,109.597,406.689,106.535,402.528z"/>
				</g>
			</g>
			<g>
				<path style="fill:#263238;" d="M109.657,410.885c-0.13-0.008,2.854-7.286,5.814-9.982c2.835-2.754,5.435-0.752,5.71,1.197
					c0.303,1.956-1.745,3.773-3.724,4.823C115.419,407.77,109.626,410.749,109.657,410.885z"/>
				<path style="fill:#263238;" d="M109.698,411.195c-0.011,0.001-0.023,0.001-0.035,0.001c-0.112-0.007-0.217-0.099-0.257-0.224
					c-0.003-0.009-0.005-0.019-0.006-0.03c-0.02-0.085-0.034-0.151,0.03-0.238c0.338-1.453,3.324-7.733,5.868-10.049
					c1.395-1.356,2.967-1.759,4.31-1.097c0.966,0.476,1.686,1.464,1.834,2.515c0.411,2.646-2.852,4.6-3.861,5.135
					c-1.988,0.827-7.26,3.543-7.719,3.891C109.822,411.155,109.763,411.189,109.698,411.195z M118.042,399.874
					c-0.668,0.064-1.485,0.393-2.393,1.274c-2.335,2.126-4.656,7.086-5.45,9.025c0.487-0.274,1.256-0.673,2.461-1.288
					c1.552-0.793,3.6-1.801,4.692-2.255c1.895-1.007,3.843-2.724,3.568-4.496c-0.118-0.834-0.701-1.619-1.486-2.007
					C119.115,399.969,118.638,399.817,118.042,399.874z"/>
			</g>
		</g>
	</g>
</g>
<g id="Characters">
	<g>
		<path style="fill:#FFFFFF;stroke:#263238;stroke-miterlimit:10;" d="M274.188,462.366c0.007-8.526,0.212-24.104,1.165-49.503
			c1.618-43.146-23.731-131.057-26.697-149.933c-2.966-18.877-8.629-66.607-8.629-66.607l-53.145-5.153
			c0,0-4.334,12.569-9.535,33.806c-5.201,21.237-39.873,116.586-43.774,128.722s-13.002,33.372-20.804,58.943
			c-5.119,16.779-8.185,37.476-9.688,49.725H274.188z"/>
		<path style="fill:#D9D9D9;stroke:#263238;stroke-miterlimit:10;" d="M193.175,175.523l-2.388,16.715c0,0,1.857,5.572,9.286,10.082
			s7.429,4.51,7.429,4.51l3.449,15.123l6.368-13.531c0,0,3.98,0.531,9.021-0.531c5.041-1.061,11.143-7.429,11.143-7.429
			l0.796-14.858L193.175,175.523z"/>
		<g>
			<path style="fill:#D9D9D9;stroke:#263238;stroke-miterlimit:10;" d="M187.337,125.642c0,0-2.123,38.206,0,45.37
				c2.123,7.164,10.878,14.327,13.797,19.369c2.919,5.041,12.47,9.286,18.573,7.694c6.102-1.592,12.205-6.633,15.123-8.49
				c2.919-1.857,8.756-3.184,10.878-9.286c2.123-6.102,7.96-39.533,9.021-44.309c1.061-4.776,1.857-13.266-0.796-19.634
				c-2.653-6.368-12.205-15.919-31.308-16.981c-19.103-1.061-31.839,6.368-33.961,12.47S187.337,125.642,187.337,125.642z"/>
			<path style="fill:none;stroke:#263238;stroke-miterlimit:10;" d="M209.094,165.175c0,0,2.653,4.51,5.837,5.572
				c3.184,1.061,8.225-0.796,9.817-2.123"/>
			<path style="fill:none;stroke:#263238;stroke-miterlimit:10;" d="M204.053,175.523c0,0,6.368,5.837,11.939,5.837
				c5.572,0,11.409-2.653,11.409-2.653"/>
			<path d="M219.707,198.075c4.785-1.248,9.563-4.612,12.813-6.904c1.639-5.575,4.287-15.569,2.576-16.71
				c-2.388-1.592-11.409-0.265-13.531-0.265c-2.123,0-3.715,1.857-2.123,2.653c1.592,0.796,11.674-0.796,12.736-0.265
				c1.061,0.531,1.883,5.471,0.531,9.021c-2.123,5.572-7.694,8.225-10.082,9.286c-2.388,1.061-11.144,1.061-14.858-1.327
				c-3.715-2.388-8.49-6.633-8.49-9.817s-2.653-12.735,1.327-12.205c3.98,0.531,9.817,5.041,11.674,4.776
				c1.857-0.265-0.531-3.184-0.531-3.184s-10.082-5.041-12.736-3.449c-2.358,1.415-1.991,11.21-1.135,16.352
				c1.334,1.566,2.497,3.028,3.258,4.343C204.053,195.422,213.604,199.667,219.707,198.075z"/>
			<path d="M214.926,142.312c0,0-6.398-2.384-12.182-2.607c-2.329-0.09-4.076,0.495-5.332,1.226
				c-1.011,0.588-0.545,2.135,0.625,2.131c1.022-0.004,2.291,0.066,3.816,0.276C206.677,144.003,215.901,147.306,214.926,142.312z"
				/>
			<path d="M225.316,143.874c0,0,6.819,0.342,12.219,2.426c2.174,0.839,3.547,2.067,4.412,3.235c0.696,0.94-0.345,2.177-1.417,1.71
				c-0.937-0.408-2.13-0.846-3.613-1.257C232.223,148.691,222.445,148.075,225.316,143.874z"/>
			<path style="fill:#263238;" d="M207.767,152.042c0,2.125-0.95,3.847-2.123,3.847s-2.123-1.722-2.123-3.847
				c0-2.125,0.95-3.847,2.123-3.847S207.767,149.917,207.767,152.042z"/>
			<path style="fill:#263238;" d="M233.402,157.2c-0.649,2.023-2.08,3.373-3.196,3.015c-1.116-0.358-1.495-2.288-0.846-4.312
				c0.649-2.023,2.08-3.373,3.196-3.015C233.672,153.247,234.051,155.177,233.402,157.2z"/>
			<path d="M187.337,125.642c0,0-2.388,5.307-2.388,10.348c0,5.041,1.592,10.348,1.592,10.348s1.857-0.265,1.857-3.715
				s0.265-7.429,3.449-10.348c3.184-2.919,7.694-8.756,8.49-11.939C201.134,117.152,190.787,122.193,187.337,125.642z"/>
			<path d="M244.117,127.499c0,0-1.061,9.286,1.857,14.062c2.919,4.776,3.98,7.429,3.98,9.552c0,2.123,0,5.572,1.327,3.98
				c1.327-1.592,2.919-10.878,3.449-14.062c0.531-3.184,0.167-5.843,0.167-5.843S249.158,128.826,244.117,127.499z"/>
			<path style="fill:#FFFFFF;stroke:#263238;stroke-miterlimit:10;" d="M222.625,99.375c-19.103-1.061-31.839,6.368-33.961,12.47
				c-2.123,6.102-1.327,13.797-1.327,13.797s-0.012,0.224-0.032,0.603c3.325-2.693,13.718-8.35,38.504-2.726
				c16.807,3.813,25.052,8.332,29.087,11.669c0.969-4.881,1.549-12.805-0.963-18.832C251.28,109.988,241.729,100.436,222.625,99.375
				z"/>
			<path style="fill:#D9D9D9;stroke:#263238;stroke-miterlimit:10;" d="M251.28,155.093c0,0,7.429-4.51,7.164,3.184
				c-0.265,7.694-10.348,13.001-10.348,13.001L251.28,155.093z"/>
			<path style="fill:#D9D9D9;stroke:#263238;stroke-miterlimit:10;" d="M186.541,146.337c0,0-3.184-7.164-6.898-2.123
				c-3.715,5.041,6.368,19.103,6.368,19.103L186.541,146.337z"/>
		</g>
		<path style="fill:#92E3A9;stroke:#263238;stroke-miterlimit:10;" d="M190.787,192.238c0,0-10.877,52.641-16.066,77.286
			c-5.188,24.645-31.563,77.394-34.157,82.582l-2.162,3.891c0,0-6.485-18.159-15.565-24.645
			c-9.08-6.486-19.024-10.809-26.374-14.701c-7.35-3.891-12.106-0.865-12.539-6.486c-0.432-5.621,4.324-13.403,8.215-15.565
			c3.891-2.162,28.969-71.341,32.86-76.962s48.857-16.43,51.884-19.456C179.909,195.157,191.287,176.348,190.787,192.238z"/>
		<path style="opacity:0.21;" d="M183.097,190.365h5.463v6.067h-6.619v-4.661c-2.114,2.645-4.05,5.404-5.059,6.412
			c-0.946,0.946-5.987,2.652-12.591,4.722v5.109h-6.619v-3.059c-1.805,0.556-3.656,1.127-5.516,1.706v1.354h-4.305
			c-8.109,2.581-15.818,5.239-19.964,7.479v4.104h-3.948c-0.648,1.343-1.476,3.223-2.443,5.516h6.392v6.067h-6.619v-5.528
			c-1.556,3.708-3.448,8.408-5.516,13.609v3.502h-1.39c-0.714,1.802-1.442,3.646-2.181,5.516h3.571v6.067h-5.969
			c-2.306,5.828-4.64,11.702-6.834,17.098h0.669v6.067h-3.163c-0.815,1.958-1.598,3.807-2.337,5.516h5.5v6.067h-6.619v-3.514
			c-2.292,5.153-4.045,8.567-4.862,9.021c-0.215,0.12-0.434,0.263-0.654,0.415v5.66h-4.834c-1.751,3.012-2.954,6.545-2.728,9.49
			c0.432,5.621,5.188,2.594,12.539,6.486c0.698,0.369,1.425,0.745,2.167,1.123h4.99v2.51c1.782,0.893,3.629,1.825,5.516,2.815
			v-5.325h6.619v6.067h-5.22c3.545,1.898,7.189,4.005,10.735,6.42v-0.904h6.619v6.067h-0.756c2.411,2.837,4.536,6.263,6.271,9.503
			v-3.988h6.619v6.067h-5.542c1.04,2.078,1.896,3.99,2.541,5.516h3.001v0.557l0.541-0.974c0.593-1.186,2.432-4.865,4.974-10.12
			v-1.046h0.505c0.82-1.701,1.704-3.546,2.638-5.516h-3.143v-6.067h5.995c2.457-5.279,5.108-11.106,7.722-17.098h-1.582v-6.067h4.19
			c0.778-1.84,1.546-3.681,2.296-5.516h-6.486v-6.067h6.619v5.744c2.006-4.913,3.886-9.763,5.516-14.341v-2.986h1.04
			c0.647-1.903,1.243-3.746,1.778-5.516h-2.818v-6.067h4.479c0.157-0.655,0.305-1.299,0.435-1.92
			c0.24-1.141,0.493-2.343,0.756-3.596h-5.67v-6.067h6.619v1.538c1.879-8.979,4.134-19.814,6.294-30.219h-0.779v-6.067h2.038
			c0.389-1.874,0.771-3.716,1.144-5.516h-3.182v-6.067h4.439c0.399-1.927,0.781-3.773,1.142-5.516h-5.581v-6.067h6.619v1.057
			c1.36-6.572,2.227-10.766,2.227-10.766C191.09,182.596,187.021,185.733,183.097,190.365z M91.485,312.26h-6.619v-6.067h6.619
			V312.26z M103.619,312.26h-6.619v-6.067h6.619V312.26z M103.619,300.677h-6.619v-6.067h6.619V300.677z M115.754,312.26h-6.619
			v-6.067h6.619V312.26z M115.754,300.677h-6.619v-6.067h6.619V300.677z M115.754,289.094h-6.619v-6.067h6.619V289.094z
			 M115.754,277.511h-6.619v-6.067h6.619V277.511z M115.754,265.928h-6.619v-6.067h6.619V265.928z M127.888,323.842h-6.619v-6.067
			h6.619V323.842z M127.888,312.26h-6.619v-6.067h6.619V312.26z M127.888,300.677h-6.619v-6.067h6.619V300.677z M127.888,289.094
			h-6.619v-6.067h6.619V289.094z M127.888,277.511h-6.619v-6.067h6.619V277.511z M127.888,265.928h-6.619v-6.067h6.619V265.928z
			 M127.888,254.346h-6.619v-6.067h6.619V254.346z M127.888,242.763h-6.619v-6.067h6.619V242.763z M140.022,335.425h-6.619v-6.067
			h6.619V335.425z M140.022,323.842h-6.619v-6.067h6.619V323.842z M140.022,312.26h-6.619v-6.067h6.619V312.26z M140.022,300.677
			h-6.619v-6.067h6.619V300.677z M140.022,289.094h-6.619v-6.067h6.619V289.094z M140.022,277.511h-6.619v-6.067h6.619V277.511z
			 M140.022,265.928h-6.619v-6.067h6.619V265.928z M140.022,254.346h-6.619v-6.067h6.619V254.346z M140.022,242.763h-6.619v-6.067
			h6.619V242.763z M140.022,231.18h-6.619v-6.067h6.619V231.18z M140.022,219.597h-6.619v-6.067h6.619V219.597z M152.157,323.842
			h-6.619v-6.067h6.619V323.842z M152.157,312.26h-6.619v-6.067h6.619V312.26z M152.157,300.677h-6.619v-6.067h6.619V300.677z
			 M152.157,289.094h-6.619v-6.067h6.619V289.094z M152.157,277.511h-6.619v-6.067h6.619V277.511z M152.157,265.928h-6.619v-6.067
			h6.619V265.928z M152.157,254.346h-6.619v-6.067h6.619V254.346z M152.157,242.763h-6.619v-6.067h6.619V242.763z M152.157,231.18
			h-6.619v-6.067h6.619V231.18z M152.157,219.597h-6.619v-6.067h6.619V219.597z M164.291,289.094h-6.619v-6.067h6.619V289.094z
			 M164.291,277.511h-6.619v-6.067h6.619V277.511z M164.291,265.928h-6.619v-6.067h6.619V265.928z M164.291,254.346h-6.619v-6.067
			h6.619V254.346z M164.291,242.763h-6.619v-6.067h6.619V242.763z M164.291,231.18h-6.619v-6.067h6.619V231.18z M164.291,219.597
			h-6.619v-6.067h6.619V219.597z M176.426,254.346h-6.619v-6.067h6.619V254.346z M176.426,242.763h-6.619v-6.067h6.619V242.763z
			 M176.426,231.18h-6.619v-6.067h6.619V231.18z M176.426,219.597h-6.619v-6.067h6.619V219.597z M176.426,208.014h-6.619v-6.067
			h6.619V208.014z"/>
		<path style="fill:none;stroke:#263238;stroke-miterlimit:10;" d="M190.787,192.238c0,0-10.877,52.641-16.066,77.286
			c-5.188,24.645-31.563,77.394-34.157,82.582l-2.162,3.891c0,0-6.485-18.159-15.565-24.645
			c-9.08-6.486-19.024-10.809-26.374-14.701c-7.35-3.891-12.106-0.865-12.539-6.486c-0.432-5.621,4.324-13.403,8.215-15.565
			c3.891-2.162,28.969-71.341,32.86-76.962s48.857-16.43,51.884-19.456C179.909,195.157,191.287,176.348,190.787,192.238z"/>
		<path style="fill:none;stroke:#263238;stroke-miterlimit:10;" d="M166.908,280.636c-0.999,3.407-2.141,6.863-3.449,10.348"/>
		<path style="fill:none;stroke:#263238;stroke-miterlimit:10;" d="M176.684,201.317c0,0-2.91,10.845-2.91,25.657
			c0,11.579-0.485,28.652-5.245,47.683"/>
		<path style="fill:none;stroke:#263238;stroke-miterlimit:10;" d="M129.083,252.604c0.147-3.959,0.398-7.538,0.784-10.553"/>
		<path style="fill:none;stroke:#263238;stroke-miterlimit:10;" d="M130.66,339.653c0,0,0.265-1.852,0.265-15.87
			c0-10.686-2.152-40.583-2.003-63.332"/>
		<path style="fill:none;stroke:#263238;stroke-miterlimit:10;" d="M110.029,305.003c0,0,15.341,10.845,19.838,28.831"/>
		<path style="fill:#92E3A9;stroke:#263238;stroke-miterlimit:10;" d="M238.359,195.702c0,0,1.144,27.83,4.193,52.61
			c3.05,24.78,7.243,46.892,7.625,57.947c0.381,11.056,1.525,51.467,1.525,51.467s35.073-87.302,37.742-99.502
			c2.669-12.199,1.906-18.68-2.669-23.636c-4.575-4.956-24.399-17.537-33.167-26.686
			C244.84,198.752,237.978,182.359,238.359,195.702z"/>
		<path style="opacity:0.21;" d="M279.766,283.027v2.996c2.968-7.875,5.545-14.907,7.315-20.095h-1.8v-6.067h3.74
			c0.18-0.636,0.325-1.192,0.422-1.637c0.299-1.366,0.548-2.65,0.76-3.879h-4.923v-6.067h5.649c0.107-2.052,0.023-3.87-0.242-5.516
			h-5.407v-6.067h3.135c-0.48-0.736-1.023-1.437-1.641-2.107c-1.302-1.411-3.842-3.441-7.009-5.832v2.424h-6.619v-6.067h1.723
			c-2.382-1.759-4.907-3.621-7.411-5.516h-6.446v-5.039c-2.783-2.268-5.312-4.49-7.294-6.544h-4.84v-5.825
			c-2.076-2.791-3.945-5.594-5.516-7.739v1.981h-4.972c0.044,0.972,0.134,2.891,0.275,5.516h4.698v6.067h-4.35
			c0.104,1.711,0.222,3.558,0.354,5.516h3.996v6.067h-3.566c0.133,1.788,0.276,3.628,0.43,5.516h3.136v6.067h-2.614
			c0.164,1.821,0.337,3.663,0.521,5.516h2.093v6.067h-1.456c0.204,1.847,0.417,3.689,0.642,5.516h0.814v6.067h-0.04
			c2.048,15.522,4.396,29.673,5.752,40.264h6.422v6.067h-5.723c0.203,2.053,0.342,3.903,0.4,5.516h5.323v6.067h-5.126
			c0.053,1.681,0.109,3.539,0.169,5.516h4.957v6.067h-4.775c0.054,1.808,0.108,3.657,0.163,5.516h4.613v6.067h-4.436
			c0.055,1.884,0.108,3.734,0.16,5.516h4.276v6.067h-4.101c0.06,2.074,0.113,3.941,0.158,5.516h2.231
			c1.672-4.184,4.229-10.602,7.228-18.184v-4.982h1.968c0.708-1.795,1.434-3.639,2.171-5.516h-4.139v-6.067h6.519
			c2.198-5.617,4.453-11.413,6.644-17.098h-1.028v-6.067h3.358c0.714-1.867,1.416-3.709,2.1-5.516h-5.458v-6.067H279.766z
			 M273.148,236.696h6.619v6.067h-6.619V236.696z M273.148,248.279h6.619v6.067h-6.619V248.279z M273.148,259.861h6.619v6.067
			h-6.619V259.861z M273.148,271.444h6.619v6.067h-6.619V271.444z M255.498,289.094h-6.619v-6.067h6.619V289.094z M255.498,277.511
			h-6.619v-6.067h6.619V277.511z M255.498,265.928h-6.619v-6.067h6.619V265.928z M255.498,254.346h-6.619v-6.067h6.619V254.346z
			 M255.498,242.763h-6.619v-6.067h6.619V242.763z M255.498,231.18h-6.619v-6.067h6.619V231.18z M255.498,219.597h-6.619v-6.067
			h6.619V219.597z M267.632,312.26h-6.619v-6.067h6.619V312.26z M267.632,300.677h-6.619v-6.067h6.619V300.677z M267.632,289.094
			h-6.619v-6.067h6.619V289.094z M267.632,277.511h-6.619v-6.067h6.619V277.511z M267.632,265.928h-6.619v-6.067h6.619V265.928z
			 M267.632,254.346h-6.619v-6.067h6.619V254.346z M267.632,242.763h-6.619v-6.067h6.619V242.763z M267.632,231.18h-6.619v-6.067
			h6.619V231.18z"/>
		<path style="fill:none;stroke:#263238;stroke-miterlimit:10;" d="M238.359,195.702c0,0,1.144,27.83,4.193,52.61
			c3.05,24.78,7.243,46.892,7.625,57.947c0.381,11.056,1.525,51.467,1.525,51.467s35.073-87.302,37.742-99.502
			c2.669-12.199,1.906-18.68-2.669-23.636c-4.575-4.956-24.399-17.537-33.167-26.686
			C244.84,198.752,237.978,182.359,238.359,195.702z"/>
		<g>
			<path style="fill:#FFFFFF;stroke:#263238;stroke-miterlimit:10;" d="M249.222,342.721l-2.1,35.694l28.004,6.39
				c0,0,6.641-24.237,7.165-36.835c0.525-12.598-6.299-56.691-6.299-56.691S256.046,322.25,249.222,342.721z"/>
			<polygon style="fill:#FFFFFF;stroke:#263238;stroke-miterlimit:10;" points="267.818,333.133 268.198,371.833 248.061,367.274 
				246.397,346.466 			"/>
			<path style="fill:#FFFFFF;stroke:#263238;stroke-miterlimit:10;" d="M391.511,462.366c0.028-5.388-0.226-13.342-1.276-24.239
				c-2.251-23.357-14.07-66.13-15.196-73.728c-1.126-7.598,4.784-72.602,4.784-72.602l-95.677,0.563
				c0,0-11.256,25.889-12.382,29.266c-1.126,3.377,0,7.598,0,7.598s4.221,18.01,4.503,22.231c0.281,4.221-5.347,27.015-7.879,53.467
				c-1.8,18.8-2.036,44.276-2.022,57.445H391.511z"/>
			<path d="M261.666,346.238l6.93-8.753l-0.365-9.483l2.553-2.918l1.824,8.753l6.93-6.93c0,0,19.695,29.907,32.825,30.637
				c13.13,0.729,50.331-17.507,50.331-17.507l6.565,1.459l-0.729-18.965l-99.933-10.942L261.666,346.238z"/>
			<path style="fill:#D9D9D9;stroke:#263238;stroke-miterlimit:10;" d="M397.244,462.366c-0.599-9.803-2.789-23.113-2.789-23.113
				l-17.166-0.844c0,0-2.814,9.286-4.784,16.603c-0.697,2.589-1.073,5.135-1.273,7.355H397.244z"/>
			<g>
				<path style="fill:#FFFFFF;stroke:#263238;stroke-miterlimit:10;" d="M362.657,329.505c0,0,9.005,35.457,10.412,49.246
					c1.407,13.789,1.407,62.753,1.407,62.753s1.97,1.126,9.005,2.251c7.035,1.126,12.945-0.563,12.945-0.563
					s7.035-56.562,7.035-77.386c0-20.824,1.97-59.376-6.472-79.074s-8.442-19.698-8.442-19.698L362.657,329.505z"/>
				<path style="fill:#92E3A9;stroke:#263238;stroke-miterlimit:10;" d="M396.425,443.192c0,0,0.476-3.824,1.179-9.843
					c-9.008,1.058-18.147-0.838-23.163-2.194c0.035,6.207,0.035,10.349,0.035,10.349s1.97,1.126,9.005,2.251
					C390.516,444.881,396.425,443.192,396.425,443.192z"/>
			</g>
			<g>
				<path style="fill:#92E3A9;stroke:#263238;stroke-miterlimit:10;" d="M283.449,253.531c0,0-8.466-0.249-14.692,7.221
					c-6.225,7.47-14.749,32.747-18.58,45.508c-3.831,12.76-16.622,33.803-15.128,38.036c1.494,4.233,17.185,21.892,17.185,21.892
					c1.35-3.829,23.661-46.356,26.483-52.148c5.328-10.934,14.941-16.186,14.941-16.186L283.449,253.531z"/>
				<path style="fill:#92E3A9;stroke:#263238;stroke-miterlimit:10;" d="M278.851,254.647c0,0-2.872,24.781-5.611,44.453
					c-2.739,19.672,18.178,50.549,24.901,53.786c6.723,3.237,10.458,6.474,26.395,0.996c15.937-5.478,44.822-18.427,50.798-33.616
					c5.976-15.189,10.209-35.608,12.699-40.837c2.49-5.229,4.482-7.719,2.241-13.695c-2.241-5.976-16.684-13.944-17.929-14.443
					c-1.245-0.498-1.245-0.498-1.245-0.498s1.743-4.233-3.237-11.952s-10.209-16.684-13.447-25.399
					c-3.237-8.715-3.237-8.715-3.237-8.715s1.992,37.102-14.194,53.537c-16.186,16.435-32.869,14.691-41.086,7.221
					c-8.217-7.47-12.948-17.929-12.948-17.929S280.478,249.786,278.851,254.647z"/>
				<path d="M322.939,282.412c0,0-2.553,1.824-7.659,4.012c-5.106,2.188-19.33,2.188-21.154-2.188
					c-1.824-4.377-3.283-8.389-1.459-8.753C294.491,275.118,322.939,282.412,322.939,282.412z"/>
				<path style="fill:#92E3A9;stroke:#263238;stroke-miterlimit:10;" d="M281.172,166.438c0,0-5.803,7.196-4.178,11.606
					c1.625,4.41,5.107,6.964,6.267,10.446c1.161,3.482,3.714,18.803,4.41,22.052c0.696,3.25,5.571,10.678,1.161,17.642
					c-4.41,6.964-11.142,16.713-9.982,26.463c1.161,9.75,3.714,19.499,14.392,25.302c10.678,5.803,26.927,9.75,43.64,1.161
					c16.713-8.589,19.731-23.445,19.499-48.283c-0.232-24.838-5.339-46.89-7.892-60.586c-2.553-13.696-18.57-23.213-33.891-22.981
					C299.278,149.492,285.815,159.938,281.172,166.438z"/>
				<path style="fill:none;stroke:#263238;stroke-miterlimit:10;" d="M338.508,193.365c0,0,3.25-17.642-0.464-30.177"/>
				<path style="fill:none;stroke:#263238;stroke-miterlimit:10;" d="M283.493,180.598c0,0,12.303-8.124,25.534-5.107"/>
				<path style="fill:#D9D9D9;stroke:#263238;stroke-miterlimit:10;" d="M307.425,237.833c0,0,3.183,12.733,2.785,17.706
					c-0.398,4.974-0.597,6.764-0.597,6.764s7.361-3.183,13.329-8.555c5.968-5.372,6.764-10.146,8.555-13.926
					c1.79-3.78,3.761-16.049,3.761-16.049L307.425,237.833z"/>
				<path d="M319.074,237.808l13.355-0.598c1.48-5.04,2.829-13.436,2.829-13.436l-4.358,2.201
					C325.912,231.027,320.347,236.663,319.074,237.808z"/>
				<ellipse style="fill:#FFFFFF;stroke:#263238;stroke-miterlimit:10;" cx="294.394" cy="229.079" rx="7.659" ry="10.146"/>
				<g>
					<path style="fill:#D9D9D9;stroke:#263238;stroke-miterlimit:10;" d="M284.422,184.776c0,0,1.161,25.302,2.785,30.873
						c1.625,5.571,10.446,16.249,13.464,19.731c3.018,3.482,6.035,6.268,12.071,5.803c6.035-0.464,21.124-11.839,22.517-17.41
						c1.393-5.571,4.643-27.159,3.25-30.409c-1.393-3.25-13.928-13.928-28.784-15.32
						C294.868,176.651,286.975,181.526,284.422,184.776z"/>
					<path style="fill:#263238;" d="M320.935,203.937c0,1.794-0.904,3.248-2.019,3.248c-1.115,0-2.019-1.454-2.019-3.248
						c0-1.794,0.904-3.248,2.019-3.248C320.031,200.689,320.935,202.143,320.935,203.937z"/>
					<path style="fill:#263238;" d="M301.095,203.586c0,1.794-0.904,3.248-2.019,3.248c-1.115,0-2.019-1.454-2.019-3.248
						c0-1.794,0.904-3.248,2.019-3.248C300.191,200.338,301.095,201.792,301.095,203.586z"/>
					<path style="fill:none;stroke:#263238;stroke-miterlimit:10;" d="M304.08,206.658c0,0,0.702,5.969-0.176,9.13
						c-0.878,3.16-1.229,4.389,1.053,5.091c2.282,0.702,6.672-2.458,7.198-3.16"/>
					<path style="fill:none;stroke:#263238;stroke-miterlimit:10;" d="M304.607,226.147c0,0,7.549,2.107,12.29-2.458"/>
					<path style="fill:none;stroke:#263238;stroke-miterlimit:10;" d="M312.156,193.842c0,0,7.901-2.634,12.465,3.16"/>
					<path style="fill:none;stroke:#263238;stroke-miterlimit:10;" d="M300.92,194.544c0,0-7.198-4.916-11.412,1.58"/>
				</g>
				<path style="fill:none;stroke:#263238;stroke-miterlimit:10;" d="M311.435,277.585c-3.077,2.211-6.645,3.922-10.775,4.812"/>
				<path style="fill:none;stroke:#263238;stroke-miterlimit:10;" d="M329.309,246.785c0,0-2.875,15.814-13.052,26.563"/>
				<path style="fill:none;stroke:#263238;stroke-miterlimit:10;" d="M293.315,241.413c0,0,1.775,17.31,13.712,20.692
					c11.937,3.382,15.916-0.796,15.916-0.796"/>
				<path style="fill:none;stroke:#263238;stroke-miterlimit:10;" d="M365.169,307.027c3.774-5.719,6.07-9.838,6.18-10.168"/>
				<path style="fill:none;stroke:#263238;stroke-miterlimit:10;" d="M293.243,279.949c0,0,7.388,42.558,16.601,57.001
					c9.213,14.443,20.917,9.213,35.359-4.98c6.42-6.309,12.25-13.8,16.767-20.24"/>
				<path style="fill:none;stroke:#263238;stroke-miterlimit:10;" d="M371.1,250.792c0,0-6.723,15.19-24.154,43.328
					c-17.431,28.138-27.889,33.865-42.083,31.126"/>
				<path style="fill:none;stroke:#263238;stroke-miterlimit:10;" d="M320.077,312.429c3.225-0.709,6.62-2.049,9.937-4.365
					c13.198-9.213,22.909-24.901,22.909-24.901"/>
				<path style="fill:none;stroke:#263238;stroke-miterlimit:10;" d="M302.374,311.052c0,0,4.554,1.963,10.884,2.053"/>
				<path style="fill:none;stroke:#263238;stroke-miterlimit:10;" d="M292.853,335.778c2.269,3.744,4.999,7.18,8.276,10.135"/>
				<path style="fill:none;stroke:#263238;stroke-miterlimit:10;" d="M283.2,271.211c0,0-4.873,33.783,6.632,58.849"/>
			</g>
			<path style="fill:none;stroke:#263238;stroke-miterlimit:10;" d="M366.597,353.987c0,0-5.909,8.723-12.663,16.04"/>
			<path style="fill:none;stroke:#263238;stroke-miterlimit:10;" d="M363.22,362.429c0,0-4.502,8.442-8.442,13.789"/>
			<path style="fill:none;stroke:#263238;stroke-miterlimit:10;" d="M336.486,423.775c-3.741,10.073-7.325,20.216-10.581,30.456"/>
			<path style="fill:none;stroke:#263238;stroke-miterlimit:10;" d="M331.984,422.368c0,0-5.628,13.226-6.754,20.824"/>
			<g>
				<path style="fill:#D9D9D9;stroke:#263238;stroke-miterlimit:10;" d="M395.123,266.097c0,0-10.505,8.171-12.986,11.381
					s-3.356,5.982-1.167,7.587c2.189,1.605,14.007-3.94,15.612-5.107c1.605-1.167,4.815-4.669,3.939-8.462
					C399.646,267.702,397.603,265.367,395.123,266.097z"/>
				<path style="fill:#D9D9D9;stroke:#263238;stroke-miterlimit:10;" d="M399.354,276.748c0,0,2.626-0.438,4.377,4.377
					c1.751,4.815-0.292,7.004-4.523,8.9c-4.231,1.897-11.527,1.751-14.445,1.167c-2.918-0.584-3.793-2.626-2.043-3.939
					c1.751-1.313,5.69-2.335,9.192-4.669C395.414,280.25,399.354,276.748,399.354,276.748z"/>
				<path style="fill:#D9D9D9;stroke:#263238;stroke-miterlimit:10;" d="M403.147,287.691c0,0,1.897,2.189,1.751,5.836
					c-0.146,3.648-3.939,5.544-9.776,6.712c-5.836,1.167-11.381-1.167-10.505-3.356c0.875-2.189,4.085-2.48,6.858-3.794
					C394.247,291.776,401.834,288.712,403.147,287.691z"/>
				<path style="fill:#D9D9D9;stroke:#263238;stroke-miterlimit:10;" d="M403.293,297.175c0,0,1.605,1.897,0,4.961
					c-1.605,3.064-7.879,4.669-11.235,4.085c-3.356-0.584-4.085-3.648-2.772-4.377c1.313-0.729,5.836-1.605,5.836-1.605
					S401.834,298.05,403.293,297.175z"/>
			</g>
		</g>
		<path style="fill:none;stroke:#263238;stroke-miterlimit:10;" d="M243.696,197.609c0,0,7.243,8.768,8.006,40.411"/>
		<path style="fill:none;stroke:#263238;stroke-miterlimit:10;" d="M188.791,209.888c0,0,6.931,6.26,14.31,8.496"/>
		<path style="fill:none;stroke:#263238;stroke-miterlimit:10;" d="M237.757,213.912c0,0-6.037,2.907-11.179,4.248
			s-6.26,1.342-6.26,1.342s-5.142,23.7-7.378,31.973"/>
		<path style="fill:none;stroke:#263238;stroke-miterlimit:10;" d="M205.95,247.241c-0.46,3.049-0.845,5.755-1.06,7.588"/>
		<path style="fill:none;stroke:#263238;stroke-miterlimit:10;" d="M209.585,224.644c0,0-1.408,8.367-2.712,16.629"/>
		<polygon style="fill:#D9D9D9;stroke:#263238;stroke-miterlimit:10;" points="201.372,335.982 200.333,358.317 217.733,380.131 
			233.575,358.576 233.834,339.099 		"/>
		<g>
			<path style="fill:#D9D9D9;stroke:#263238;stroke-miterlimit:10;" d="M251.028,310.869c0,0,3.89-4.299,5.937-2.047
				c2.047,2.252,1.638,8.803-0.819,13.717c-2.457,4.914-8.394,5.732-8.394,5.732L251.028,310.869z"/>
			<path style="fill:#D9D9D9;stroke:#263238;stroke-miterlimit:10;" d="M189.609,307.798c0,0-1.843-6.347-5.323-2.866
				c-3.48,3.48-1.638,11.055,0.614,14.331c2.252,3.276,6.756,4.095,6.756,4.095L189.609,307.798z"/>
			<path style="fill:#D9D9D9;stroke:#263238;stroke-miterlimit:10;" d="M189.609,307.798c0,0,0,11.26,4.299,19.654
				c4.299,8.394,13.922,19.654,18.63,22.111c4.709,2.457,8.599,1.842,12.693,0.614c4.095-1.228,19.04-14.536,21.701-19.245
				c2.661-4.709,4.094-20.063,4.094-20.063s3.071-13.922,2.457-18.016s-5.118-8.394-25.796-8.803
				c-20.678-0.409-33.371,3.276-34.804,4.914C191.452,290.601,188.79,299.813,189.609,307.798z"/>
			<path d="M190.428,292.853c0,0-3.48,4.095-2.661,8.189c0.819,4.095,1.433,10.441,2.457,8.599c1.024-1.843,0.41-5.528,1.638-6.756
				c1.228-1.228,3.276-2.866,5.528-6.551c2.252-3.685,2.866-7.78,2.866-7.78S194.113,288.963,190.428,292.853z"/>
			<path d="M212.539,286.301c0,0-6.551,4.095-3.276,5.937c3.276,1.843,16.992-2.457,16.992-2.457
				c4.504,0.205-3.48,4.095,1.228,4.095c4.709,0,9.827-3.685,10.646-4.709C238.949,288.144,221.342,283.435,212.539,286.301z"/>
			<path d="M243.248,290.601c0,0-2.252,7.166,0.205,10.646c2.457,3.48,4.504,6.961,4.709,8.394c0.205,1.433,0.41,7.165,1.228,6.756
				c0.819-0.409,1.024-4.504,1.638-5.528c0.614-1.024,3.48-3.071,3.48-3.071s2.252-9.213,0-12.284
				C252.257,292.443,244.886,288.963,243.248,290.601z"/>
			<path style="fill:#FFFFFF;stroke:#263238;stroke-miterlimit:10;" d="M190.428,292.853c0,0-2.047-14.126,1.842-19.654
				c3.89-5.528,9.827-10.237,23.544-10.851s26.82,4.709,32.347,8.394c5.528,3.685,6.916,7.803,7.575,13.512
				c0.614,5.323-0.409,13.307-0.409,13.307S226.256,277.907,190.428,292.853z"/>
			<path style="fill:#263238;" d="M211.515,310.152c0,1.753-0.825,3.173-1.843,3.173c-1.018,0-1.842-1.421-1.842-3.173
				s0.825-3.173,1.842-3.173C210.69,306.979,211.515,308.4,211.515,310.152z"/>
			<path style="fill:#263238;" d="M231.125,312.808c-0.384,1.71-1.5,2.916-2.493,2.693c-0.993-0.223-1.487-1.79-1.103-3.5
				c0.384-1.71,1.5-2.915,2.493-2.693C231.015,309.531,231.509,311.098,231.125,312.808z"/>
			<path style="fill:none;stroke:#263238;stroke-miterlimit:10;" d="M213.358,320.696c0,0,4.709,4.709,11.465,0.614"/>
			<path style="fill:none;stroke:#263238;stroke-miterlimit:10;" d="M207.625,327.657c0,0,4.299,4.914,10.851,5.732
				c6.551,0.819,11.874-4.709,11.874-4.709"/>
			<path style="fill:none;stroke:#263238;stroke-miterlimit:10;" d="M202.303,301.861c0,0,3.48-3.276,10.646-0.614"/>
			<path style="fill:none;stroke:#263238;stroke-miterlimit:10;" d="M227.075,302.68c0,0,7.984-3.071,12.284,4.709"/>
		</g>
		<path style="fill:#92E3A9;stroke:#263238;stroke-miterlimit:10;" d="M292.49,462.366c-4.098-20.143-14.854-72.333-17.363-77.56
			c-3.116-6.492-37.916-19.997-37.916-19.997l-3.895-11.946c-4.415,4.155-16.101,5.194-16.101,5.194s-5.454-1.558-10.388-5.194
			c-4.934-3.636-6.493-4.934-6.493-4.934l-2.857,15.582c0,0-27.788,7.012-33.761,10.907c-4.784,3.12-19.398,63.884-25.025,87.948
			H292.49z"/>
		<line style="fill:none;stroke:#263238;stroke-miterlimit:10;" x1="257.525" y1="419.255" x2="257.207" y2="409.997"/>
		<path style="fill:none;stroke:#263238;stroke-miterlimit:10;" d="M258.73,461.97c-0.323-9.407-0.646-26.437-0.969-35.844"/>
		<path style="fill:none;stroke:#263238;stroke-miterlimit:10;" d="M165.944,461.97c0.697-14.844,0.697-36.32,1.667-51.194"/>
		<line style="fill:none;stroke:#263238;stroke-miterlimit:10;" x1="216.694" y1="360.654" x2="215.915" y2="372.081"/>
		<g>
			<path style="fill:#D9D9D9;stroke:#263238;stroke-miterlimit:10;" d="M146.176,370.516l3.09,2.428c0,0,10.152-2.648,12.139-2.648
				c1.986,0,5.959,3.752,8.387,3.973s5.959,0.662,6.842,2.428c0.883,1.766-0.883,3.752-4.193,4.855
				c-3.311,1.103-10.594-1.986-11.918-1.545c-1.324,0.441-2.428,1.986-2.428,1.986s5.076,9.711,7.283,11.918
				s14.566,6.842,15.228,7.945c0.662,1.103,1.104,1.324-0.662,2.869c-1.766,1.545-3.752,1.545-6.842,1.545
				c0,0,3.531,1.324,6.621,1.766s2.207,2.869,0,4.635c-2.207,1.766-6.18,1.766-6.18,1.766s-0.441,2.207-3.752,3.31
				c-3.311,1.104-11.476-1.103-11.476-1.103s2.648,3.09,1.766,3.752c-0.883,0.662-4.635,1.103-10.814-4.414
				c-6.179-5.517-9.269-15.67-11.256-20.304c-1.986-4.635-4.414-11.256-5.076-12.58c-0.662-1.324-2.648-4.193-2.648-4.193
				l12.359-11.256L146.176,370.516z"/>
			<path style="fill:none;stroke:#263238;stroke-miterlimit:10;" d="M156.548,396.117c0,0,5.076,6.4,6.842,7.724
				c1.766,1.324,9.711,2.428,9.711,2.428"/>
			<path style="fill:none;stroke:#263238;stroke-miterlimit:10;" d="M154.121,402.737c0,0,3.973,4.855,7.062,7.062
				c3.09,2.207,12.359,4.635,12.359,4.635"/>
			<path style="fill:none;stroke:#263238;stroke-miterlimit:10;" d="M148.382,407.372c0,0,6.18,8.607,9.932,9.269"/>
		</g>
		<path style="fill:#FFFFFF;stroke:#263238;stroke-miterlimit:10;" d="M88.794,314.237c0,0-1.986,9.269,3.752,22.953
			c5.738,13.683,28.47,55.837,28.47,55.837l25.16-22.511l-7.774-14.518c0,0-7.234-18.808-14.296-26.532
			C117.043,321.741,93.87,311.148,88.794,314.237z"/>
		<g>
			<path style="fill:#D9D9D9;stroke:#263238;stroke-miterlimit:10;" d="M247.794,359.405c0,0-4.081-2.411-5.936-0.185
				c-1.855,2.226-1.669,10.387-1.113,12.057c0.557,1.669,2.411,2.597,3.895,1.484c1.484-1.113,2.411-8.162,2.968-10.017
				C248.165,360.889,247.794,359.405,247.794,359.405z"/>
			<path style="fill:#D9D9D9;stroke:#263238;stroke-miterlimit:10;" d="M248.165,361.075c0,0,1.484-3.153,4.081-2.226
				c2.597,0.927,2.782,4.452,1.669,8.162c-1.113,3.71-2.782,7.605-5.565,7.049c-2.782-0.557-1.855-4.081-1.855-5.194
				C246.496,367.753,248.165,361.075,248.165,361.075z"/>
			<path style="fill:#D9D9D9;stroke:#263238;stroke-miterlimit:10;" d="M255.029,362.744c0,0,2.782-2.226,4.637-0.185
				c1.855,2.04,1.669,3.895,0,7.605c-1.669,3.71-3.71,6.307-5.75,5.75c-2.04-0.556-1.484-3.524-0.927-5.194
				C253.545,369.051,255.029,362.744,255.029,362.744z"/>
			<path style="fill:#D9D9D9;stroke:#263238;stroke-miterlimit:10;" d="M261.335,365.898c0,0,4.452-2.226,5.565,1.113
				c1.113,3.339-2.782,9.275-4.823,10.573c-2.04,1.298-4.637-0.185-4.637-1.484S261.335,365.898,261.335,365.898z"/>
			<path style="fill:#D9D9D9;stroke:#263238;stroke-miterlimit:10;" d="M271.908,375.172c0,0-0.927-3.895-3.71-3.339
				c-2.782,0.556-6.678,5.75-6.121,7.049c0.557,1.298,1.484,2.411,3.524,2.226c2.04-0.185,5.379-2.04,6.121-3.524
				C272.465,376.1,271.908,375.172,271.908,375.172z"/>
		</g>
	</g>
</g>
<g id="Line">
	<line style="fill:none;stroke:#263238;stroke-miterlimit:10;" x1="40.998" y1="462.411" x2="465.343" y2="462.411"/>
</g>
</svg>
