<?xml version="1.0" encoding="utf-8"?>
<!-- Generator: Adobe Illustrator 27.5.0, SVG Export Plug-In . SVG Version: 6.00 Build 0)  -->
<svg version="1.1" xmlns="http://www.w3.org/2000/svg" xmlns:xlink="http://www.w3.org/1999/xlink" x="0px" y="0px"
	 viewBox="0 0 750 500" style="enable-background:new 0 0 750 500;" xml:space="preserve">
<g id="Background_Simple">
	<g>
		<path style="fill:#92E3A9;" d="M460.491,127.499C364.114,78.478,264.986,14.376,153.023,40.608
			c-34.715,8.133-66.308,28.467-87.663,58.028C8.257,177.68,12.9,298.752,43.925,387.73c4.049,11.612,9.105,22.872,15.61,33.244
			c31.489,50.207,84.551,52.573,135.732,38.057c43.312-12.284,81.685-24.921,126.426-12.431
			c24.781,6.918,48.795,16.426,73.484,23.663c33.615,9.852,68.269,16.546,103.277,17.224
			c92.614,1.794,198.407-47.013,206.613-153.857c0.532-6.924,0.626-13.883,0.325-20.822c-1.85-42.654-15.496-85.369-53.318-107.514
			c-38.027-22.264-83.143-31.068-123.819-46.859C505.123,149.456,482.68,138.786,460.491,127.499z"/>
		<path style="opacity:0.7;fill:#FFFFFF;" d="M460.491,127.499C364.114,78.478,264.986,14.376,153.023,40.608
			c-34.715,8.133-66.308,28.467-87.663,58.028C8.257,177.68,12.9,298.752,43.925,387.73c4.049,11.612,9.105,22.872,15.61,33.244
			c31.489,50.207,84.551,52.573,135.732,38.057c43.312-12.284,81.685-24.921,126.426-12.431
			c24.781,6.918,48.795,16.426,73.484,23.663c33.615,9.852,68.269,16.546,103.277,17.224
			c92.614,1.794,198.407-47.013,206.613-153.857c0.532-6.924,0.626-13.883,0.325-20.822c-1.85-42.654-15.496-85.369-53.318-107.514
			c-38.027-22.264-83.143-31.068-123.819-46.859C505.123,149.456,482.68,138.786,460.491,127.499z"/>
	</g>
</g>
<g id="Floor">
	
		<line style="fill:none;stroke:#263238;stroke-linecap:round;stroke-linejoin:round;stroke-miterlimit:10;" x1="5.023" y1="467.48" x2="736.903" y2="467.48"/>
</g>
<g id="Windows">
	<g>
		<path style="fill:none;stroke:#263238;stroke-linecap:round;stroke-linejoin:round;stroke-miterlimit:10;" d="M586.845,20.574
			C568.674,27.78,425.287,122.503,453.393,254.49c0.463,2.176,3.454,10.714,3.454,10.714v53.443h129.998h129.998v-53.443
			c0,0,2.991-8.539,3.454-10.714C748.403,122.503,605.016,27.78,586.845,20.574z"/>
		<path style="fill:none;stroke:#263238;stroke-linecap:round;stroke-linejoin:round;stroke-miterlimit:10;" d="M495.935,264.755
			h181.82c0.002-0.013,0.006-0.029,0.008-0.041c19.148-110.953-78.538-190.581-90.918-196.638
			c-12.379,6.057-110.065,85.685-90.918,196.638C495.93,264.727,495.933,264.743,495.935,264.755z"/>
		
			<rect x="456.847" y="265.205" style="fill:none;stroke:#263238;stroke-linecap:round;stroke-linejoin:round;stroke-miterlimit:10;" width="259.762" height="33.255"/>
		
			<ellipse transform="matrix(0.7071 -0.7071 0.7071 0.7071 87.0559 450.2808)" style="fill:none;stroke:#263238;stroke-linecap:round;stroke-linejoin:round;stroke-miterlimit:10;" cx="587.065" cy="120.055" rx="39.411" ry="39.411"/>
		<path style="fill:none;stroke:#263238;stroke-linecap:round;stroke-linejoin:round;stroke-miterlimit:10;" d="M496.366,100.385
			c52.247,20.246,89.613,74.17,89.613,137.51c0,9.208-0.79,18.218-2.3,26.954"/>
		<path style="fill:none;stroke:#263238;stroke-linecap:round;stroke-linejoin:round;stroke-miterlimit:10;" d="M588.33,265.14
			c-1.543-8.827-2.351-17.934-2.351-27.245c0-63.944,38.082-118.291,91.111-138.08"/>
		
			<line style="fill:none;stroke:#263238;stroke-linecap:round;stroke-linejoin:round;stroke-miterlimit:10;" x1="586.845" y1="68.076" x2="586.845" y2="20.574"/>
		
			<line style="fill:none;stroke:#263238;stroke-linecap:round;stroke-linejoin:round;stroke-miterlimit:10;" x1="557.27" y1="93.996" x2="527.875" y2="64.601"/>
		
			<line style="fill:none;stroke:#263238;stroke-linecap:round;stroke-linejoin:round;stroke-miterlimit:10;" x1="616.061" y1="93.18" x2="644.232" y2="63.784"/>
		
			<line style="fill:none;stroke:#263238;stroke-linecap:round;stroke-linejoin:round;stroke-miterlimit:10;" x1="458.881" y1="167.626" x2="507.618" y2="167.626"/>
		
			<line style="fill:none;stroke:#263238;stroke-linecap:round;stroke-linejoin:round;stroke-miterlimit:10;" x1="666.761" y1="167.626" x2="714.752" y2="167.626"/>
		
			<line style="fill:none;stroke:#263238;stroke-linecap:round;stroke-linejoin:round;stroke-miterlimit:10;" x1="451.814" y1="243.439" x2="492.729" y2="243.439"/>
		
			<line style="fill:none;stroke:#263238;stroke-linecap:round;stroke-linejoin:round;stroke-miterlimit:10;" x1="681.626" y1="243.439" x2="721.714" y2="243.439"/>
	</g>
	<g>
		<path style="fill:none;stroke:#263238;stroke-linecap:round;stroke-linejoin:round;stroke-miterlimit:10;" d="M149.009,20.574
			C130.839,27.78-12.549,122.503,15.557,254.49c0.463,2.176,3.454,10.714,3.454,10.714v53.443h129.998h129.998v-53.443
			c0,0,2.991-8.539,3.454-10.714C310.567,122.503,167.18,27.78,149.009,20.574z"/>
		<path style="fill:none;stroke:#263238;stroke-linecap:round;stroke-linejoin:round;stroke-miterlimit:10;" d="M58.099,264.755
			h181.82c0.002-0.013,0.006-0.029,0.008-0.041c19.148-110.953-78.538-190.581-90.918-196.638
			c-12.379,6.057-110.065,85.685-90.918,196.638C58.094,264.727,58.097,264.743,58.099,264.755z"/>
		
			<rect x="19.011" y="265.205" style="fill:none;stroke:#263238;stroke-linecap:round;stroke-linejoin:round;stroke-miterlimit:10;" width="259.762" height="33.255"/>
		
			<ellipse transform="matrix(0.5606 -0.8281 0.8281 0.5606 -33.8464 176.3203)" style="fill:none;stroke:#263238;stroke-linecap:round;stroke-linejoin:round;stroke-miterlimit:10;" cx="149.229" cy="120.055" rx="39.411" ry="39.411"/>
		<path style="fill:none;stroke:#263238;stroke-linecap:round;stroke-linejoin:round;stroke-miterlimit:10;" d="M58.53,100.385
			c52.247,20.246,89.613,74.17,89.613,137.51c0,9.208-0.79,18.218-2.3,26.954"/>
		<path style="fill:none;stroke:#263238;stroke-linecap:round;stroke-linejoin:round;stroke-miterlimit:10;" d="M150.494,265.14
			c-1.543-8.827-2.351-17.934-2.351-27.245c0-63.944,38.082-118.291,91.111-138.08"/>
		
			<line style="fill:none;stroke:#263238;stroke-linecap:round;stroke-linejoin:round;stroke-miterlimit:10;" x1="149.009" y1="68.076" x2="149.009" y2="20.574"/>
		
			<line style="fill:none;stroke:#263238;stroke-linecap:round;stroke-linejoin:round;stroke-miterlimit:10;" x1="119.434" y1="93.996" x2="90.039" y2="64.601"/>
		
			<line style="fill:none;stroke:#263238;stroke-linecap:round;stroke-linejoin:round;stroke-miterlimit:10;" x1="178.225" y1="93.18" x2="206.396" y2="63.784"/>
		
			<line style="fill:none;stroke:#263238;stroke-linecap:round;stroke-linejoin:round;stroke-miterlimit:10;" x1="21.045" y1="167.626" x2="69.783" y2="167.626"/>
		
			<line style="fill:none;stroke:#263238;stroke-linecap:round;stroke-linejoin:round;stroke-miterlimit:10;" x1="228.925" y1="167.626" x2="276.916" y2="167.626"/>
		
			<line style="fill:none;stroke:#263238;stroke-linecap:round;stroke-linejoin:round;stroke-miterlimit:10;" x1="13.978" y1="243.439" x2="54.893" y2="243.439"/>
		
			<line style="fill:none;stroke:#263238;stroke-linecap:round;stroke-linejoin:round;stroke-miterlimit:10;" x1="243.79" y1="243.439" x2="283.878" y2="243.439"/>
	</g>
</g>
<g id="Plants">
	<g>
		<path style="fill:#263238;" d="M21.259,402.652c2.154,0.941,7.422,0.822,7.426,0.822c0.054-0.001-1.132-3.448-1.232-3.657
			c-1.156-2.418-4.811-6.411-7.785-6.009c-2.142,0.29-3.334,2.434-2.851,4.451C17.311,400.32,19.425,401.85,21.259,402.652z"/>
		<path style="fill:#263238;" d="M23.077,417.911c2.234,0.326,6.935-1.038,7.309-1.148c0.742,2.632,1.717,5.272,2.852,7.89
			c0.646,1.497,1.344,2.985,2.063,4.468c-0.429-0.628-0.817-1.187-0.879-1.259c-1.754-2.027-6.334-4.912-9.095-3.739
			c-1.991,0.845-2.573,3.227-1.574,5.046c1.02,1.857,3.464,2.775,5.444,3.063c2.01,0.293,6.041-0.789,7.105-1.089
			c0.282,0.566,0.556,1.134,0.84,1.699c1.361,2.711,2.731,5.41,3.995,8.099c0.445,0.947,0.849,1.896,1.257,2.845
			c-0.381-0.558-0.707-1.024-0.765-1.09c-1.753-2.026-6.333-4.912-9.095-3.739c-1.99,0.845-2.573,3.228-1.574,5.046
			c1.021,1.857,3.464,2.775,5.445,3.063c1.918,0.28,5.648-0.685,6.913-1.036c0.388,0.984,0.779,1.968,1.11,2.939
			c0.212,0.668,0.462,1.296,0.637,1.979c0.188,0.672,0.373,1.338,0.557,1.997c0.308,1.282,0.633,2.603,0.902,3.862
			c0.194,0.874,0.362,1.71,0.534,2.552c-0.433-0.948-1.318-2.786-1.41-2.932c-1.426-2.269-5.515-5.814-8.424-5.073
			c-2.095,0.534-3.032,2.801-2.32,4.749c0.727,1.99,3.003,3.268,4.917,3.853c2.108,0.644,6.774,0.056,7.357-0.022
			c0.28,1.394,0.538,2.753,0.762,4.039c0.168,0.952,0.321,1.867,0.461,2.745h1.869c-0.176-0.978-0.369-2.001-0.582-3.072
			c-0.278-1.417-0.604-2.925-0.953-4.471c0.351-0.139,2.341-0.944,4.104-1.93c1.536,1.663,5.472,3.61,5.982,3.858
			c-0.535,1.317-1.069,2.593-1.592,3.789c-0.276,0.634-0.543,1.232-0.81,1.826h1.976c0.157-0.376,0.312-0.743,0.472-1.134
			c0.55-1.335,1.111-2.773,1.672-4.255c0.565,0.118,5.184,1.056,7.337,0.57c1.952-0.441,4.317-1.546,5.191-3.476
			c0.856-1.889,0.09-4.22-1.96-4.908c-2.845-0.956-7.187,2.275-8.778,4.432c-0.094,0.127-0.958,1.621-1.488,2.573
			c0.226-0.606,0.452-1.193,0.678-1.821c0.454-1.237,0.871-2.486,1.324-3.827c0.196-0.656,0.394-1.318,0.595-1.986
			c0.212-0.659,0.353-1.382,0.534-2.079c0.387-1.625,0.7-3.29,0.978-4.974c1.084,0.395,4.957,1.742,6.963,1.6
			c1.997-0.14,4.501-0.874,5.657-2.649c1.132-1.738,0.728-4.158-1.193-5.149c-2.667-1.375-7.449,1.161-9.349,3.051
			c-0.119,0.117-1.329,1.627-1.978,2.469c0.159-1.014,0.323-2.025,0.451-3.055c0.369-2.976,0.65-5.999,0.945-9.014
			c0.089-0.924,0.19-1.843,0.287-2.764c0.385,0.145,4.952,1.845,7.199,1.687c1.996-0.14,4.501-0.874,5.657-2.649
			c1.132-1.738,0.728-4.158-1.194-5.149c-2.667-1.376-7.449,1.16-9.348,3.051c-0.143,0.142-1.882,2.317-2.297,2.892
			c0.214-2.028,0.447-4.046,0.756-6.026c0.423-2.733,0.99-5.391,1.73-7.926c0.179,0.068,4.938,1.864,7.239,1.703
			c1.997-0.14,4.502-0.874,5.658-2.65c1.132-1.738,0.728-4.158-1.194-5.149c-2.668-1.376-7.449,1.161-9.349,3.051
			c-0.149,0.148-2.018,2.489-2.327,2.938c0.045-0.151,0.074-0.312,0.12-0.461c0.824-2.696,1.96-5.204,3.14-7.5
			c0.683-1.336,1.41-2.574,2.144-3.763c0.852,0.426,4.768,2.327,6.855,2.41c2,0.08,4.571-0.374,5.914-2.012
			c1.316-1.604,1.181-4.053-0.62-5.249c-2.501-1.66-7.532,0.335-9.628,2.006c-0.114,0.091-1.17,1.143-1.928,1.919
			c0.339-0.532,0.68-1.087,1.016-1.589c1.256-1.891,2.522-3.545,3.655-5.001c0.651-0.822,1.256-1.554,1.829-2.231
			c1.053-0.018,5.3-0.147,7.157-1.019c1.811-0.851,3.884-2.438,4.322-4.511c0.429-2.03-0.82-4.141-2.97-4.372
			c-2.984-0.322-6.53,3.768-7.62,6.216c-0.094,0.212-1.187,3.69-1.132,3.69c0,0,0.051-0.001,0.064-0.001
			c-0.565,0.641-1.163,1.335-1.801,2.107c-1.168,1.434-2.473,3.065-3.774,4.935c-1.305,1.866-2.671,3.931-3.914,6.235
			c-1.248,2.308-2.443,4.8-3.343,7.526c-0.01,0.031-0.017,0.064-0.027,0.095c0.016-0.879-0.023-3.339-0.048-3.527
			c-0.345-2.658-2.572-7.591-5.524-8.137c-2.126-0.392-3.927,1.273-4.096,3.341c-0.172,2.112,1.358,4.225,2.851,5.559
			c1.684,1.504,6.357,2.96,6.729,3.075c-0.833,2.604-1.476,5.344-1.975,8.153c-0.286,1.606-0.525,3.232-0.744,4.865
			c-0.011-0.761-0.026-1.441-0.039-1.535c-0.345-2.658-2.572-7.59-5.524-8.136c-2.126-0.393-3.927,1.273-4.096,3.34
			c-0.173,2.112,1.358,4.225,2.851,5.559c1.515,1.353,5.474,2.675,6.526,3.011c-0.077,0.628-0.161,1.253-0.236,1.881
			c-0.36,3.012-0.706,6.019-1.136,8.958c-0.151,1.036-0.338,2.05-0.521,3.066c-0.011-0.675-0.025-1.244-0.036-1.33
			c-0.345-2.658-2.572-7.591-5.523-8.137c-2.127-0.393-3.928,1.273-4.097,3.341c-0.173,2.111,1.359,4.225,2.852,5.558
			c1.445,1.291,5.089,2.544,6.338,2.949c-0.219,1.035-0.437,2.071-0.695,3.064c-0.192,0.674-0.33,1.336-0.561,2.002
			c-0.214,0.664-0.427,1.322-0.637,1.973c-0.451,1.239-0.908,2.521-1.379,3.718c-0.321,0.836-0.642,1.626-0.963,2.423
			c0.162-1.029,0.438-3.051,0.442-3.223c0.041-1.78-0.591-4.674-1.85-6.709c0.008-0.263-0.007-0.525-0.049-0.785
			c-0.329-2.048-2.254-3.57-4.343-3.013c-2.9,0.772-4.739,5.863-4.877,8.539c-0.008,0.158,0.095,1.881,0.178,2.967
			c-0.147-0.631-0.28-1.245-0.439-1.892c-0.304-1.283-0.646-2.554-1.007-3.923c-0.198-0.655-0.398-1.316-0.601-1.985
			c-0.186-0.666-0.468-1.347-0.701-2.028c-0.573-1.568-1.231-3.13-1.928-4.688c1.123-0.269,5.095-1.282,6.69-2.506
			c1.588-1.218,3.272-3.212,3.258-5.33c-0.015-2.075-1.686-3.87-3.836-3.637c-2.984,0.324-5.573,5.077-6.115,7.702
			c-0.034,0.164-0.21,2.091-0.287,3.151c-0.426-0.933-0.847-1.867-1.31-2.798c-1.333-2.686-2.766-5.363-4.185-8.04
			c-0.435-0.82-0.858-1.641-1.285-2.463c0.401-0.092,5.149-1.194,6.935-2.564c1.588-1.218,3.273-3.212,3.257-5.331
			c-0.015-2.074-1.686-3.87-3.836-3.636c-2.984,0.324-5.573,5.077-6.115,7.702c-0.04,0.198-0.291,2.971-0.32,3.679
			c-0.94-1.809-1.859-3.62-2.694-5.443c-1.154-2.513-2.148-5.043-2.929-7.565c0.187-0.042,5.147-1.17,6.977-2.574
			c1.588-1.218,3.272-3.212,3.257-5.331c-0.014-2.074-1.686-3.87-3.836-3.636c-2.984,0.324-5.573,5.077-6.114,7.702
			c-0.042,0.206-0.31,3.19-0.32,3.734c-0.046-0.15-0.111-0.3-0.155-0.45c-0.8-2.704-1.235-5.423-1.518-7.988
			c-0.167-1.49-0.244-2.924-0.287-4.321c0.945-0.116,5.26-0.69,7.047-1.772c1.713-1.037,3.606-2.833,3.823-4.941
			c0.213-2.064-1.251-4.032-3.413-4.036c-3.001-0.006-6.097,4.435-6.924,6.984c-0.045,0.139-0.346,1.599-0.55,2.665
			c-0.01-0.631-0.032-1.282-0.029-1.886c0.004-2.269,0.148-4.348,0.29-6.187c0.089-1.046,0.191-1.989,0.295-2.87
			c0.868-0.598,4.339-3.048,5.407-4.799c1.042-1.709,1.894-4.176,1.116-6.146c-0.762-1.93-2.969-3.001-4.889-2.009
			c-2.667,1.378-3.368,6.745-2.927,9.389c0.039,0.228,1.046,3.732,1.091,3.702c0,0,0.042-0.029,0.052-0.036
			c-0.118,0.846-0.233,1.755-0.34,2.751c-0.183,1.84-0.372,3.92-0.425,6.199c-0.059,2.277-0.06,4.752,0.175,7.359
			c0.232,2.613,0.609,5.351,1.363,8.121c0.009,0.031,0.022,0.063,0.03,0.094c-0.472-0.742-1.862-2.772-1.986-2.915
			c-1.753-2.027-6.333-4.912-9.095-3.739c-1.99,0.845-2.573,3.228-1.574,5.046C18.654,416.704,21.097,417.622,23.077,417.911z"/>
		<path style="fill:#263238;" d="M74.543,403.811c0.047,0.029,0.958-3.501,0.99-3.73c0.369-2.654-0.477-8.001-3.179-9.306
			c-1.947-0.94-4.123,0.191-4.832,2.141c-0.725,1.99,0.194,4.433,1.282,6.114C70.081,401.002,74.54,403.808,74.543,403.811z"/>
	</g>
	<g>
		<path style="fill:#263238;" d="M667.916,410.472c1.891,0.826,6.516,0.722,6.52,0.722c0.048-0.001-0.994-3.028-1.082-3.211
			c-1.014-2.123-4.224-5.628-6.835-5.275c-1.881,0.254-2.927,2.137-2.503,3.908C664.45,408.424,666.306,409.768,667.916,410.472z"/>
		<path style="fill:#263238;" d="M669.513,423.868c1.961,0.286,6.089-0.911,6.417-1.008c0.652,2.311,1.508,4.629,2.504,6.927
			c0.567,1.315,1.18,2.621,1.811,3.923c-0.376-0.551-0.717-1.042-0.772-1.105c-1.54-1.78-5.561-4.313-7.985-3.282
			c-1.748,0.742-2.259,2.834-1.382,4.43c0.895,1.63,3.041,2.436,4.78,2.689c1.765,0.258,5.304-0.693,6.238-0.956
			c0.247,0.497,0.488,0.996,0.738,1.492c1.195,2.38,2.398,4.75,3.507,7.11c0.391,0.832,0.745,1.665,1.104,2.498
			c-0.335-0.49-0.621-0.899-0.671-0.957c-1.539-1.779-5.56-4.313-7.985-3.282c-1.747,0.742-2.259,2.834-1.382,4.43
			c0.896,1.63,3.041,2.436,4.78,2.69c1.684,0.246,4.959-0.602,6.069-0.91c0.341,0.864,0.684,1.728,0.975,2.58
			c0.186,0.587,0.406,1.138,0.559,1.738c0.165,0.59,0.328,1.175,0.489,1.753c0.27,1.125,0.556,2.286,0.792,3.39
			c0.17,0.767,0.318,1.502,0.469,2.241c-0.38-0.832-1.157-2.446-1.238-2.574c-1.252-1.992-4.842-5.105-7.396-4.454
			c-1.839,0.469-2.662,2.459-2.036,4.169c0.639,1.747,2.636,2.869,4.317,3.383c1.851,0.565,5.947,0.049,6.459-0.019
			c0.245,1.224,0.473,2.417,0.669,3.546c0.147,0.836,0.281,1.639,0.405,2.41h1.641c-0.155-0.859-0.324-1.757-0.511-2.697
			c-0.244-1.244-0.53-2.568-0.836-3.925c0.308-0.122,2.055-0.829,3.603-1.694c1.349,1.46,4.804,3.17,5.252,3.387
			c-0.47,1.157-0.939,2.277-1.398,3.327c-0.242,0.556-0.477,1.081-0.711,1.603h1.735c0.138-0.33,0.274-0.653,0.414-0.996
			c0.482-1.172,0.975-2.435,1.468-3.736c0.496,0.104,4.551,0.927,6.441,0.501c1.714-0.388,3.79-1.357,4.558-3.052
			c0.751-1.659,0.079-3.705-1.721-4.309c-2.497-0.839-6.31,1.997-7.707,3.891c-0.083,0.112-0.841,1.423-1.306,2.259
			c0.198-0.532,0.397-1.048,0.595-1.598c0.399-1.086,0.765-2.182,1.162-3.36c0.172-0.576,0.346-1.157,0.522-1.744
			c0.186-0.579,0.31-1.214,0.469-1.825c0.34-1.426,0.615-2.888,0.859-4.367c0.952,0.346,4.352,1.529,6.113,1.405
			c1.753-0.123,3.952-0.767,4.967-2.326c0.994-1.526,0.639-3.651-1.048-4.521c-2.342-1.208-6.54,1.019-8.208,2.679
			c-0.104,0.103-1.167,1.429-1.736,2.168c0.14-0.89,0.284-1.778,0.396-2.683c0.324-2.613,0.571-5.267,0.829-7.914
			c0.078-0.811,0.167-1.618,0.252-2.426c0.338,0.127,4.348,1.62,6.32,1.481c1.753-0.123,3.952-0.767,4.967-2.326
			c0.994-1.526,0.639-3.65-1.048-4.52c-2.342-1.208-6.54,1.018-8.207,2.678c-0.125,0.125-1.652,2.035-2.017,2.539
			c0.188-1.78,0.392-3.552,0.664-5.291c0.372-2.399,0.87-4.733,1.519-6.958c0.157,0.06,4.336,1.636,6.356,1.495
			c1.753-0.123,3.953-0.767,4.967-2.326c0.994-1.526,0.639-3.65-1.048-4.521c-2.342-1.208-6.54,1.019-8.208,2.678
			c-0.131,0.13-1.772,2.185-2.043,2.579c0.039-0.132,0.065-0.273,0.105-0.405c0.723-2.367,1.721-4.569,2.757-6.585
			c0.599-1.173,1.238-2.26,1.883-3.304c0.748,0.374,4.186,2.043,6.018,2.116c1.756,0.07,4.013-0.329,5.192-1.766
			c1.156-1.408,1.037-3.558-0.545-4.608c-2.195-1.458-6.612,0.294-8.453,1.761c-0.1,0.08-1.027,1.003-1.693,1.685
			c0.298-0.467,0.597-0.954,0.892-1.395c1.102-1.66,2.214-3.112,3.209-4.39c0.571-0.722,1.103-1.364,1.606-1.959
			c0.925-0.016,4.654-0.129,6.284-0.895c1.59-0.747,3.41-2.141,3.794-3.96c0.376-1.782-0.72-3.636-2.607-3.839
			c-2.62-0.283-5.733,3.308-6.69,5.457c-0.083,0.186-1.043,3.24-0.994,3.239c0,0,0.045,0,0.056-0.001
			c-0.496,0.563-1.021,1.172-1.581,1.85c-1.025,1.259-2.171,2.69-3.313,4.333c-1.146,1.639-2.345,3.451-3.436,5.474
			c-1.096,2.026-2.145,4.214-2.935,6.607c-0.009,0.027-0.015,0.056-0.024,0.083c0.014-0.772-0.02-2.932-0.042-3.097
			c-0.303-2.333-2.258-6.665-4.85-7.144c-1.867-0.344-3.447,1.118-3.596,2.933c-0.151,1.854,1.192,3.709,2.503,4.88
			c1.478,1.32,5.581,2.599,5.908,2.7c-0.731,2.286-1.296,4.692-1.733,7.158c-0.251,1.41-0.461,2.837-0.653,4.272
			c-0.01-0.668-0.023-1.265-0.035-1.348c-0.303-2.334-2.258-6.664-4.849-7.143c-1.867-0.345-3.448,1.118-3.596,2.933
			c-0.152,1.854,1.192,3.709,2.503,4.88c1.33,1.188,4.806,2.349,5.73,2.643c-0.068,0.551-0.142,1.101-0.207,1.652
			c-0.316,2.644-0.62,5.284-0.997,7.865c-0.132,0.909-0.296,1.8-0.457,2.691c-0.009-0.593-0.022-1.092-0.032-1.168
			c-0.303-2.334-2.258-6.664-4.849-7.143c-1.867-0.345-3.448,1.117-3.597,2.933c-0.152,1.853,1.193,3.709,2.503,4.88
			c1.269,1.134,4.468,2.234,5.564,2.589c-0.192,0.909-0.383,1.818-0.61,2.69c-0.169,0.592-0.29,1.173-0.492,1.758
			c-0.188,0.583-0.374,1.16-0.559,1.732c-0.396,1.088-0.798,2.213-1.21,3.265c-0.282,0.734-0.564,1.428-0.845,2.127
			c0.142-0.904,0.384-2.679,0.388-2.829c0.036-1.563-0.519-4.104-1.624-5.89c0.007-0.231-0.006-0.461-0.043-0.69
			c-0.289-1.798-1.978-3.134-3.813-2.645c-2.546,0.678-4.161,5.147-4.281,7.497c-0.007,0.139,0.083,1.651,0.156,2.605
			c-0.129-0.554-0.246-1.093-0.385-1.661c-0.267-1.126-0.567-2.242-0.884-3.444c-0.174-0.575-0.35-1.155-0.527-1.742
			c-0.164-0.585-0.411-1.183-0.615-1.781c-0.503-1.377-1.081-2.748-1.693-4.116c0.986-0.236,4.474-1.125,5.874-2.2
			c1.395-1.07,2.873-2.82,2.86-4.68c-0.013-1.822-1.48-3.398-3.368-3.193c-2.62,0.284-4.893,4.458-5.369,6.762
			c-0.03,0.144-0.185,1.835-0.252,2.767c-0.374-0.819-0.744-1.639-1.15-2.456c-1.17-2.358-2.429-4.708-3.674-7.059
			c-0.382-0.72-0.753-1.441-1.128-2.162c0.352-0.081,4.52-1.048,6.089-2.251c1.394-1.07,2.873-2.82,2.86-4.68
			c-0.013-1.821-1.481-3.398-3.368-3.192c-2.62,0.284-4.893,4.457-5.369,6.762c-0.036,0.174-0.255,2.608-0.281,3.23
			c-0.825-1.588-1.633-3.178-2.365-4.779c-1.013-2.206-1.886-4.427-2.572-6.641c0.164-0.037,4.519-1.027,6.126-2.26
			c1.394-1.07,2.873-2.82,2.86-4.68c-0.013-1.821-1.48-3.397-3.368-3.192c-2.62,0.284-4.893,4.458-5.368,6.762
			c-0.037,0.181-0.272,2.801-0.281,3.278c-0.041-0.132-0.097-0.263-0.136-0.395c-0.702-2.374-1.085-4.761-1.333-7.013
			c-0.147-1.308-0.214-2.567-0.252-3.793c0.83-0.102,4.618-0.606,6.187-1.555c1.504-0.91,3.166-2.488,3.357-4.338
			c0.187-1.812-1.098-3.54-2.996-3.543c-2.635-0.005-5.353,3.893-6.079,6.131c-0.039,0.122-0.304,1.404-0.483,2.34
			c-0.009-0.554-0.028-1.125-0.026-1.656c0.004-1.992,0.13-3.817,0.254-5.432c0.078-0.918,0.168-1.746,0.259-2.52
			c0.762-0.525,3.81-2.676,4.747-4.213c0.915-1.501,1.663-3.666,0.98-5.396c-0.669-1.694-2.606-2.635-4.292-1.764
			c-2.341,1.21-2.957,5.922-2.57,8.243c0.034,0.2,0.918,3.277,0.958,3.25c0,0,0.037-0.026,0.046-0.032
			c-0.103,0.743-0.205,1.541-0.298,2.415c-0.161,1.615-0.327,3.442-0.373,5.442c-0.052,1.999-0.052,4.172,0.154,6.461
			c0.204,2.294,0.535,4.698,1.197,7.13c0.007,0.027,0.019,0.055,0.027,0.083c-0.415-0.651-1.635-2.433-1.744-2.56
			c-1.539-1.78-5.56-4.313-7.985-3.283c-1.747,0.742-2.259,2.834-1.382,4.43C665.629,422.809,667.774,423.615,669.513,423.868z"/>
		<path style="fill:#263238;" d="M714.697,411.489c0.041,0.026,0.841-3.074,0.869-3.275c0.324-2.33-0.419-7.024-2.791-8.17
			c-1.709-0.826-3.62,0.167-4.242,1.879c-0.636,1.747,0.17,3.892,1.125,5.367C710.779,409.022,714.694,411.487,714.697,411.489z"/>
	</g>
</g>
<g id="Device">
	<g>
		<g>
			<g>
				<polygon style="fill:#7A7A7A;stroke:#263238;stroke-miterlimit:10;" points="354.807,461.488 247.812,461.488 263.862,402.427 
					338.758,402.427 				"/>
				<polygon style="fill:#263238;stroke:#263238;stroke-linecap:round;stroke-linejoin:round;stroke-miterlimit:10;" points="
					347.537,434.733 338.758,402.427 263.862,402.427 255.083,434.733 				"/>
				<rect x="219.994" y="461.488" style="fill:#7A7A7A;stroke:#263238;stroke-miterlimit:10;" width="162.632" height="5.992"/>
			</g>
			<rect x="70.02" y="114.983" style="fill:#263238;stroke:#263238;stroke-miterlimit:10;" width="462.58" height="293.644"/>
			<rect x="84.845" y="126.177" style="fill:#FFFFFF;stroke:#263238;stroke-miterlimit:10;" width="432.93" height="271.256"/>
		</g>
		<g>
			<path style="opacity:0.13;" d="M222.887,397.206H93.912V246.331c0-42.968,64.487-108.005,64.487-108.005h0
				c0,0,64.487,65.037,64.487,108.005V397.206z"/>
			<path style="opacity:0.13;" d="M365.578,397.206H236.603V246.331c0-42.968,64.487-108.005,64.487-108.005h0
				c0,0,64.487,65.037,64.487,108.005V397.206z"/>
			<path style="opacity:0.13;" d="M508.27,397.206H379.295V246.331c0-42.968,64.487-108.005,64.487-108.005h0
				c0,0,64.487,65.037,64.487,108.005V397.206z"/>
		</g>
	</g>
</g>
<g id="Speech_Bubble">
	<g>
		<path style="fill:#263238;stroke:#263238;stroke-linecap:round;stroke-linejoin:round;stroke-miterlimit:10;" d="M365.867,114.25
			v23.231c0,7.014,5.686,12.699,12.699,12.699h6.46l-13.398,28.806l36.931-28.806H465.1c7.014,0,12.699-5.686,12.699-12.699V114.25
			H365.867z"/>
		<path style="fill:#FFFFFF;stroke:#263238;stroke-linecap:round;stroke-linejoin:round;stroke-miterlimit:10;" d="M460.084,76.227
			h-86.533c-7.014,0-12.699,5.686-12.699,12.699v44.559c0,7.014,5.686,12.699,12.699,12.699h6.46l-13.398,28.806l36.931-28.806
			h56.541c7.014,0,12.699-5.686,12.699-12.699V88.926C472.784,81.912,467.098,76.227,460.084,76.227z"/>
		<path style="fill:#263238;" d="M399.534,112.44c0-2.273-1.842-4.115-4.115-4.115c-2.273,0-4.115,1.842-4.115,4.115
			c0,2.273,1.842,4.115,4.115,4.115C397.692,116.555,399.534,114.713,399.534,112.44z"/>
		<path style="fill:#263238;" d="M421.756,112.44c0-2.273-1.842-4.115-4.115-4.115c-2.273,0-4.115,1.842-4.115,4.115
			c0,2.273,1.842,4.115,4.115,4.115C419.913,116.555,421.756,114.713,421.756,112.44z"/>
		<path style="fill:#263238;" d="M443.978,112.44c0-2.273-1.842-4.115-4.115-4.115c-2.273,0-4.115,1.842-4.115,4.115
			c0,2.273,1.842,4.115,4.115,4.115C442.135,116.555,443.978,114.713,443.978,112.44z"/>
	</g>
</g>
<g id="Character_3">
	<g>
		<path style="fill:#92E3A9;stroke:#263238;stroke-linecap:round;stroke-linejoin:round;stroke-miterlimit:10;" d="M591.477,424.187
			c0,0-28.446,10.679-34.015,15.254c-5.57,4.575-11.338,11.935-9.945,21.681c1.392,9.747,12.133,11.139,20.09,11.139
			c7.956,0,140.629,0,140.629,0s1.989-3.182-0.199-3.779c-2.188-0.597-6.166,0.199-8.553-0.398c-2.387-0.597-1.79-1.989-6.564-3.182
			c-4.774-1.194-8.752-1.79-8.752-1.79s-0.597-5.172-3.182-6.564s-10.94-5.569-12.929-6.365
			C666.066,449.386,591.477,424.187,591.477,424.187z"/>
		<path style="fill:none;stroke:#263238;stroke-linecap:round;stroke-linejoin:round;stroke-miterlimit:10;" d="M625.688,454.558
			c0,0-13.327,1.591-29.24,5.967c-15.913,4.376-20.09,5.172-24.267,5.569c-4.177,0.398-10.542-1.591-8.155-2.387
			c2.387-0.796,5.768,0.199,5.768,0.199"/>
		<path style="fill:none;stroke:#263238;stroke-linecap:round;stroke-linejoin:round;stroke-miterlimit:10;" d="M699.085,469.874
			c0,0-16.31,0.995-27.25,0.995s10.94-3.978,10.94-3.978"/>
		<path style="fill:none;stroke:#263238;stroke-linecap:round;stroke-linejoin:round;stroke-miterlimit:10;" d="M637.622,472.46
			c0,0-11.139-7.161-14.719-7.757c-3.58-0.597,1.591,2.984,2.785,3.182"/>
		<g>
			<path style="fill:#FFFFFF;stroke:#263238;stroke-linecap:round;stroke-linejoin:round;stroke-miterlimit:10;" d="M605.15,327.05
				c0,0-3.388-6.396-3.302-7.202c0.087-0.806,1.372-6.7,1.511-7.989c0.139-1.289-0.678-4.312-1.189-7.138
				c-0.511-2.826-0.746-8.232-0.446-9.504c0.3-1.272-2.192-2.355-3.241-0.185c-1.048,2.17-1.303,6.055-1.303,6.055
				s-1.908-8.031-2.915-9.28c-1.007-1.25-2.654-1.941-2.654-1.941c0.153-0.237-1.955-2.459-3.302-1.797
				c-0.439,0.216-2.145,0.237-2.618,2.12c-0.397,1.58-0.28,3.6-0.165,5.569s0.302,9.325,1.072,14.299
				c0.77,4.974,7.226,13.167,7.226,13.167l2.479,7.277L605.15,327.05z"/>
			<path style="fill:none;stroke:#263238;stroke-linecap:round;stroke-linejoin:round;stroke-miterlimit:10;" d="M597.18,301.087
				l-0.093,3.903c0,0-2.161,6.452-1.563,8.473c0.598,2.021,1.386,2.268,1.386,2.268"/>
			<path style="fill:none;stroke:#263238;stroke-linecap:round;stroke-linejoin:round;stroke-miterlimit:10;" d="M587.526,304.451
				c0.053-0.449,6.047-3.025,8.103-2.575"/>
			
				<line style="fill:none;stroke:#263238;stroke-linecap:round;stroke-linejoin:round;stroke-miterlimit:10;" x1="591.61" y1="289.866" x2="594.701" y2="301.585"/>
			
				<line style="fill:none;stroke:#263238;stroke-linecap:round;stroke-linejoin:round;stroke-miterlimit:10;" x1="588.308" y1="288.069" x2="592.006" y2="302.255"/>
			
				<line style="fill:none;stroke:#263238;stroke-linecap:round;stroke-linejoin:round;stroke-miterlimit:10;" x1="585.595" y1="291.075" x2="589.124" y2="303.48"/>
		</g>
		<g>
			<path style="fill:#FFFFFF;stroke:#263238;stroke-linecap:round;stroke-linejoin:round;stroke-miterlimit:10;" d="M583.31,332.707
				c0,0-0.009-3.784-1.52-8.62c-1.511-4.836-5.21-9.945-6.186-11.748c-0.976-1.803-1.67-7.606-3.547-11.719
				c-1.877-4.113-4.487-6.781-6.234-5.485c-1.747,1.296-3.325,3.549-3.625,5.577c-0.301,2.028,0.307,12.949,1.537,16.189
				c1.23,3.24,7.144,11.579,7.547,12.002c0.404,0.423,4.553,8.086,4.553,8.086S579.028,333.626,583.31,332.707z"/>
			<path style="fill:none;stroke:#263238;stroke-linecap:round;stroke-linejoin:round;stroke-miterlimit:10;" d="M564.654,318.384
				c0,0-1.389-6.01-3.473-9.428c-2.084-3.418-3.323-4.846-1.408-5.184s5.005,2.245,5.445,3.813c0.441,1.568,2.187,5.869,2.187,5.869
				s5.436,2.827,6.704,4.415c1.267,1.587,3.351,5.005,3.436,5.484"/>
			
				<line style="fill:none;stroke:#263238;stroke-linecap:round;stroke-linejoin:round;stroke-miterlimit:10;" x1="567.2" y1="311.351" x2="574.299" y2="312.404"/>
			<path style="fill:none;stroke:#263238;stroke-linecap:round;stroke-linejoin:round;stroke-miterlimit:10;" d="M563.475,297.688
				c0,0,0.638-0.113,1.549,3.184c0.91,3.296,1.98,9.362,1.98,9.362"/>
			<path style="fill:none;stroke:#263238;stroke-linecap:round;stroke-linejoin:round;stroke-miterlimit:10;" d="M565.823,295.134
				c0,0,1.972-0.018,2,2.94c0.028,2.958,1.876,12.508,1.876,12.508"/>
			
				<line style="fill:none;stroke:#263238;stroke-linecap:round;stroke-linejoin:round;stroke-miterlimit:10;" x1="571.193" y1="299.454" x2="572.412" y2="310.103"/>
		</g>
		<g>
			<path style="fill:#FFFFFF;stroke:#263238;stroke-linecap:round;stroke-linejoin:round;stroke-miterlimit:10;" d="
				M599.358,356.429l-12.877-26.097c0,0-1.717-0.343-5.151,1.717c-3.434,2.06-7.039,6.181-7.039,6.181s5.322,19.401,8.241,28.157
				c2.919,8.756,8.928,18.199,8.928,18.199l16.311-23.178l-6.524-2.919L599.358,356.429z"/>
			<path style="fill:none;stroke:#263238;stroke-linecap:round;stroke-linejoin:round;stroke-miterlimit:10;" d="M577.038,345.956
				c0,0,3.262-6.868,10.988-8.756"/>
		</g>
		<g>
			<path style="fill:#FFFFFF;stroke:#263238;stroke-linecap:round;stroke-linejoin:round;stroke-miterlimit:10;" d="
				M606.569,324.323c0,0-5.666,1.545-8.07,2.919c-2.404,1.374-4.807,2.747-4.807,2.747s6.009,22.148,7.211,24.38
				c1.202,2.232,2.232,4.121,2.232,4.121l13.049-10.817L606.569,324.323z"/>
			<path style="fill:none;stroke:#263238;stroke-linecap:round;stroke-linejoin:round;stroke-miterlimit:10;" d="M600.913,335.566
				c-0.858,0.634-1.638,1.302-2.242,1.977"/>
			<path style="fill:none;stroke:#263238;stroke-linecap:round;stroke-linejoin:round;stroke-miterlimit:10;" d="M608.63,331.191
				c0,0-2.491,1.093-5.123,2.666"/>
		</g>
		<g>
			<path style="fill:none;stroke:#263238;stroke-linecap:round;stroke-linejoin:round;stroke-miterlimit:10;" d="M613.78,282.602
				c0,0-1.374,4.464-4.807,7.383c-3.434,2.919,0.858,4.807,1.373,4.979c0.515,0.172,0.859,2.919,0.859,2.919
				s3.777-3.434,3.949-5.494C615.326,290.328,615.497,281.228,613.78,282.602z"/>
			<path style="fill:#92E3A9;stroke:#263238;stroke-linecap:round;stroke-linejoin:round;stroke-miterlimit:10;" d="M631.464,259.08
				c0,0-17.684,4.464-17.341,6.868c0.343,2.404-0.343,12.362-0.343,17.341s-5.666,13.907-1.03,23.865
				c4.636,9.958,12.018,14.25,12.018,14.25s14.422-2.06,17.341-1.717c2.919,0.343,10.13,1.889,10.13,1.889
				s7.555-6.868,10.988-14.937c3.434-8.07,8.241-20.088,5.837-24.38c-2.404-4.292-9.1-6.181-10.473-6.352
				c-1.373-0.172-4.464-8.756-11.503-12.534C640.049,259.595,634.727,257.02,631.464,259.08z"/>
			<path style="fill:none;stroke:#263238;stroke-linecap:round;stroke-linejoin:round;stroke-miterlimit:10;" d="M647.151,310.06
				c-0.607,1.955-1.262,3.647-1.951,4.82"/>
			<path style="fill:none;stroke:#263238;stroke-linecap:round;stroke-linejoin:round;stroke-miterlimit:10;" d="M651.209,290.328
				c0,0-1.303,9.471-3.292,17.039"/>
			<path style="fill:none;stroke:#263238;stroke-linecap:round;stroke-linejoin:round;stroke-miterlimit:10;" d="M659.794,298.741
				c0,0-4.292,8.241-10.988,14.594"/>
		</g>
		<g>
			<path style="fill:#FFFFFF;stroke:#263238;stroke-linecap:round;stroke-linejoin:round;stroke-miterlimit:10;" d="
				M597.888,390.049l2.683,26.088c0,0-3.28,1.342-3.429,1.938c-0.149,0.596-0.149,1.789-0.149,1.789s-2.087,1.193-2.683,1.938
				c-0.596,0.745-2.385,1.938-2.832,2.385c-0.447,0.447,5.516,4.621,7.454,7.454c1.938,2.832,14.311,19.231,28.622,23.405
				c14.311,4.174,36.076,0.447,37.865-0.894c1.789-1.342,5.814-2.236,7.156-7.454c1.342-5.218-0.745-11.181-1.044-11.628
				c-0.298-0.447-0.447-25.044-0.447-34.436c0-9.392-1.491-26.386-1.491-26.386l-2.982-7.454c0,0-8.05,10.882-21.318,15.355
				c-13.268,4.472-47.853,5.218-47.853,5.218L597.888,390.049z"/>
			<path style="fill:none;stroke:#263238;stroke-linecap:round;stroke-linejoin:round;stroke-miterlimit:10;" d="M604.3,425.217
				c5.564,4.069,13.893,9.887,17.141,10.747c5.068,1.342,7.603-0.596-3.13-6.559c-10.733-5.963-14.758-7.603-14.758-7.603"/>
			<path style="fill:none;stroke:#263238;stroke-linecap:round;stroke-linejoin:round;stroke-miterlimit:10;" d="M598.931,421.205
				c0,0,1.011,0.778,2.617,1.977"/>
			<path style="fill:none;stroke:#263238;stroke-linecap:round;stroke-linejoin:round;stroke-miterlimit:10;" d="M623.266,444.919
				c1.935,1.066,3.927,1.944,5.927,2.523"/>
			<path style="fill:none;stroke:#263238;stroke-linecap:round;stroke-linejoin:round;stroke-miterlimit:10;" d="M604.745,428.808
				c0,0,6.2,7.73,14.266,13.429"/>
			<path style="fill:none;stroke:#263238;stroke-linecap:round;stroke-linejoin:round;stroke-miterlimit:10;" d="M670.934,437.156
				c0,0,1.342,4.621-4.174,10.137"/>
		</g>
		<g>
			<g>
				
					<rect x="591.614" y="392.692" transform="matrix(0.9996 -0.0278 0.0278 0.9996 -11.0219 16.6318)" style="fill:#92E3A9;stroke:#263238;stroke-width:0.5;stroke-linecap:round;stroke-linejoin:round;stroke-miterlimit:10;" width="1" height="23.339"/>
			</g>
			<g>
				
					<rect x="595.083" y="392.048" transform="matrix(0.9997 -0.024 0.024 0.9997 -9.5199 14.4174)" style="fill:#92E3A9;stroke:#263238;stroke-width:0.5;stroke-linecap:round;stroke-linejoin:round;stroke-miterlimit:10;" width="1" height="23.139"/>
			</g>
			<g>
				
					<rect x="598.642" y="391.27" transform="matrix(0.9997 -0.0241 0.0241 0.9997 -9.5169 14.529)" style="fill:#92E3A9;stroke:#263238;stroke-width:0.5;stroke-linecap:round;stroke-linejoin:round;stroke-miterlimit:10;" width="1" height="23.139"/>
			</g>
			<g>
				
					<rect x="601.978" y="391.158" transform="matrix(0.9997 -0.0241 0.0241 0.9997 -9.5133 14.6092)" style="fill:#92E3A9;stroke:#263238;stroke-width:0.5;stroke-linecap:round;stroke-linejoin:round;stroke-miterlimit:10;" width="1" height="23.139"/>
			</g>
			<g>
				
					<rect x="606.204" y="390.38" transform="matrix(0.9997 -0.024 0.024 0.9997 -9.4768 14.6843)" style="fill:#92E3A9;stroke:#263238;stroke-width:0.5;stroke-linecap:round;stroke-linejoin:round;stroke-miterlimit:10;" width="1" height="23.139"/>
			</g>
			<g>
				
					<rect x="609.652" y="389.713" transform="matrix(0.9997 -0.024 0.024 0.9997 -9.4617 14.77)" style="fill:#92E3A9;stroke:#263238;stroke-width:0.5;stroke-linecap:round;stroke-linejoin:round;stroke-miterlimit:10;" width="1" height="23.138"/>
			</g>
			<g>
				
					<rect x="614.545" y="389.379" transform="matrix(0.9997 -0.024 0.024 0.9997 -9.4519 14.8867)" style="fill:#92E3A9;stroke:#263238;stroke-width:0.5;stroke-linecap:round;stroke-linejoin:round;stroke-miterlimit:10;" width="1" height="23.138"/>
			</g>
			<g>
				
					<rect x="619.438" y="388.156" transform="matrix(0.9997 -0.0241 0.0241 0.9997 -9.4364 15.029)" style="fill:#92E3A9;stroke:#263238;stroke-width:0.5;stroke-linecap:round;stroke-linejoin:round;stroke-miterlimit:10;" width="1" height="23.138"/>
			</g>
			<g>
				
					<rect x="625.444" y="388.045" transform="matrix(0.9997 -0.024 0.024 0.9997 -9.4171 15.1487)" style="fill:#92E3A9;stroke:#263238;stroke-width:0.5;stroke-linecap:round;stroke-linejoin:round;stroke-miterlimit:10;" width="1" height="23.138"/>
			</g>
			<g>
				
					<rect x="630.337" y="387.377" transform="matrix(0.9997 -0.0241 0.0241 0.9997 -9.4141 15.2903)" style="fill:#92E3A9;stroke:#263238;stroke-width:0.5;stroke-linecap:round;stroke-linejoin:round;stroke-miterlimit:10;" width="1" height="23.139"/>
			</g>
			<g>
				
					<rect x="636.676" y="388.267" transform="matrix(0.9997 -0.0241 0.0241 0.9997 -9.4337 15.4431)" style="fill:#92E3A9;stroke:#263238;stroke-width:0.5;stroke-linecap:round;stroke-linejoin:round;stroke-miterlimit:10;" width="1" height="23.139"/>
			</g>
			<g>
				
					<rect x="643.793" y="387.488" transform="matrix(0.9997 -0.0241 0.0241 0.9997 -9.413 15.614)" style="fill:#92E3A9;stroke:#263238;stroke-width:0.5;stroke-linecap:round;stroke-linejoin:round;stroke-miterlimit:10;" width="1" height="23.139"/>
			</g>
			<g>
				
					<rect x="650.354" y="385.821" transform="matrix(0.9997 -0.0241 0.0241 0.9997 -9.3709 15.7714)" style="fill:#92E3A9;stroke:#263238;stroke-width:0.5;stroke-linecap:round;stroke-linejoin:round;stroke-miterlimit:10;" width="1" height="23.138"/>
			</g>
			<g>
				
					<rect x="656.026" y="383.597" transform="matrix(0.9997 -0.024 0.024 0.9997 -9.2998 15.8791)" style="fill:#92E3A9;stroke:#263238;stroke-width:0.5;stroke-linecap:round;stroke-linejoin:round;stroke-miterlimit:10;" width="1" height="23.138"/>
			</g>
			<g>
				
					<rect x="660.808" y="379.704" transform="matrix(0.9997 -0.024 0.024 0.9997 -9.2049 15.9928)" style="fill:#92E3A9;stroke:#263238;stroke-width:0.5;stroke-linecap:round;stroke-linejoin:round;stroke-miterlimit:10;" width="1" height="23.138"/>
			</g>
		</g>
		<g>
			<path style="fill:#92E3A9;stroke:#263238;stroke-linecap:round;stroke-linejoin:round;stroke-miterlimit:10;" d="
				M623.567,331.019c0,0-0.172,1.202-4.979,8.07c-4.807,6.868-17.341,19.401-17.341,19.401l-1.889-2.06l-2.06,1.03
				c0,0-8.413,13.907-9.1,18.714c-0.687,4.807,2.575,17.513,3.09,17.513c0.515,0,23.865-4.121,31.076-4.979
				c7.211-0.858,15.109,1.202,24.724-0.687c9.615-1.889,16.654-10.13,16.654-10.13s0.687-16.826-2.232-30.046
				c-2.919-13.22-10.473-20.431-10.473-20.431s-18.543-2.404-21.633-0.858C626.314,328.1,623.567,331.019,623.567,331.019z"/>
			<path style="fill:none;stroke:#263238;stroke-linecap:round;stroke-linejoin:round;stroke-miterlimit:10;" d="M639.18,365.159
				c-0.77,1.796-1.472,3.397-2.049,4.663"/>
			<path style="fill:none;stroke:#263238;stroke-linecap:round;stroke-linejoin:round;stroke-miterlimit:10;" d="M649.149,340.977
				c0,0-4.802,11.957-8.705,21.209"/>
			<path style="fill:none;stroke:#263238;stroke-linecap:round;stroke-linejoin:round;stroke-miterlimit:10;" d="M642.995,372.938
				c-0.982,2.817-2.087,5.467-3.289,7.528"/>
			<path style="fill:none;stroke:#263238;stroke-linecap:round;stroke-linejoin:round;stroke-miterlimit:10;" d="M647.775,354.541
				c0,0-1.53,8.296-4.039,16.171"/>
			<path style="fill:none;stroke:#263238;stroke-linecap:round;stroke-linejoin:round;stroke-miterlimit:10;" d="M600.56,360.035
				c0,0-4.464,4.636-4.807,10.473"/>
			<path style="fill:none;stroke:#263238;stroke-linecap:round;stroke-linejoin:round;stroke-miterlimit:10;" d="M597.126,362.267
				c0,0-5.666,9.958-4.979,15.109"/>
		</g>
		<g>
			<path style="fill:#92E3A9;stroke:#263238;stroke-linecap:round;stroke-linejoin:round;stroke-miterlimit:10;" d="
				M620.133,322.606c0,0,1.373,4.464,1.889,6.181c0.515,1.717,0.687,2.404,1.545,2.232c0.859-0.172,8.928-2.232,13.22-1.545
				c4.292,0.687,14.937,4.464,20.603,6.524c5.666,2.06,9.615,10.473,9.786,7.383c0.172-3.091-4.807-13.907-8.585-17.684
				c-3.777-3.777-6.181-6.696-12.877-7.554C639.019,317.284,621.335,320.546,620.133,322.606z"/>
			<path style="fill:none;stroke:#263238;stroke-linecap:round;stroke-linejoin:round;stroke-miterlimit:10;" d="M657.487,331.142
				c1.808,0.499,3.404,1.132,4.538,1.938"/>
			<path style="fill:none;stroke:#263238;stroke-linecap:round;stroke-linejoin:round;stroke-miterlimit:10;" d="M641.251,329.302
				c0,0,6.918,0,13.09,1.132"/>
			<path style="fill:#92E3A9;stroke:#263238;stroke-linecap:round;stroke-linejoin:round;stroke-miterlimit:10;" d="
				M653.784,334.624c0,0,5.322,17.856,7.039,29.016c1.717,11.16,1.545,33.652,1.545,33.652s6.181-7.726,7.383-10.645
				c1.202-2.919,2.06-7.211,0-19.229s-2.575-24.037-2.575-24.037S660.48,334.281,653.784,334.624z"/>
		</g>
	</g>
</g>
<g id="Character_2">
	<g>
		<g>
			<path style="fill:#FFFFFF;stroke:#263238;stroke-linecap:round;stroke-linejoin:round;stroke-miterlimit:10;" d="
				M464.485,322.119c0,0-4.052-5.998-4.052-6.808c0-0.81,0.648-6.808,0.648-8.105c0-1.297-1.135-4.215-1.945-6.97
				c-0.811-2.756-1.621-8.105-1.459-9.402c0.162-1.297-2.431-2.107-3.242,0.162c-0.811,2.269-0.648,6.16-0.648,6.16
				s-2.756-7.781-3.89-8.915c-1.135-1.135-2.846-1.646-2.846-1.646c0.127-0.252-2.207-2.236-3.475-1.434
				c-0.413,0.262-2.107,0.465-2.376,2.388c-0.226,1.613,0.107,3.61,0.431,5.555c0.324,1.945,1.297,9.24,2.594,14.103
				c1.297,4.863,8.591,12.319,8.591,12.319l3.242,6.97L464.485,322.119z"/>
			<path style="fill:none;stroke:#263238;stroke-linecap:round;stroke-linejoin:round;stroke-miterlimit:10;" d="M453.786,297.156
				l0.324,3.89c0,0-1.459,6.646-0.648,8.591c0.811,1.945,1.621,2.107,1.621,2.107"/>
			<path style="fill:none;stroke:#263238;stroke-linecap:round;stroke-linejoin:round;stroke-miterlimit:10;" d="M444.547,301.532
				c0.005-0.452,5.689-3.654,7.782-3.426"/>
			
				<line style="fill:none;stroke:#263238;stroke-linecap:round;stroke-linejoin:round;stroke-miterlimit:10;" x1="447.05" y1="286.594" x2="451.375" y2="297.916"/>
			
				<line style="fill:none;stroke:#263238;stroke-linecap:round;stroke-linejoin:round;stroke-miterlimit:10;" x1="443.574" y1="285.16" x2="448.767" y2="298.87"/>
			
				<line style="fill:none;stroke:#263238;stroke-linecap:round;stroke-linejoin:round;stroke-miterlimit:10;" x1="441.198" y1="288.439" x2="446.032" y2="300.396"/>
		</g>
		<path style="fill:#FFFFFF;stroke:#263238;stroke-linecap:round;stroke-linejoin:round;stroke-miterlimit:10;" d="M456.866,333.466
			l-2.431-7.781c0,0,2.431-3.08,4.863-3.404c2.431-0.324,5.187-0.162,5.187-0.162l3.08,5.511L456.866,333.466z"/>
		<path style="fill:#FFFFFF;stroke:#263238;stroke-linecap:round;stroke-linejoin:round;stroke-miterlimit:10;" d="M481.343,269.113
			c0,0-3.728,7.619-3.728,10.374c0,2.756,0,5.998-0.324,7.132c-0.324,1.135-3.08,3.89-2.269,7.781
			c0.81,3.89,3.728,14.103,5.998,15.886c2.269,1.783,5.349,1.459,5.349,1.459l1.297,3.89l23.99-2.107l0.162-5.187
			c0,0,4.377-3.404,6.322-8.915c1.945-5.511,3.404-9.888,3.404-10.861s4.539-16.21,3.242-20.587
			c-1.297-4.377-13.13-12.157-20.424-14.427c-7.295-2.269-13.778,1.783-13.778,1.783L481.343,269.113z"/>
		<path style="fill:#263238;stroke:#263238;stroke-linecap:round;stroke-linejoin:round;stroke-miterlimit:10;" d="M518.139,299.425
			c1.945-5.511,3.404-9.888,3.404-10.861s4.539-16.21,3.242-20.587c-1.297-4.377-13.13-12.157-20.424-14.427
			c-7.294-2.269-13.778,1.783-13.778,1.783l-8.833,13.172l0.728-0.042c0,0-1.032,0.712-1.794,2.051
			c-0.142,0.31-0.299,0.655-0.467,1.035c-0.2,0.573-0.332,1.218-0.332,1.94c0,3.242,3.404,7.132,3.242,8.105
			c-0.162,0.973-1.783,5.025-1.459,5.836c0.324,0.81,1.297,2.107,2.269,1.297c0.973-0.811,3.728-5.511,5.673-5.511
			c1.945,0,5.025,1.459,4.863,6.484c-0.162,5.025-4.052,7.943-4.052,7.943s-2.107,5.511,5.836,9.888
			c3.515,1.937,8.915,1.945,10.05,1.783c1.135-0.162,5.511-0.973,5.511-0.973S516.194,304.936,518.139,299.425z"/>
		<g>
			<path style="fill:#FFFFFF;stroke:#263238;stroke-linecap:round;stroke-linejoin:round;stroke-miterlimit:10;" d="
				M505.172,252.741c-9.043-2.713-13.292,0.324-13.292,0.324l-10.536,16.048c0,0,8.915,18.155,23.018,21.073
				c7.993,1.654,13.585,0.756,16.935-0.332c0.159-0.609,0.247-1.051,0.247-1.288c0-0.973,4.539-16.21,3.242-20.587
				C523.489,263.601,514.898,255.659,505.172,252.741z"/>
			
				<ellipse transform="matrix(0.4582 -0.8888 0.8888 0.4582 42.3453 593.8082)" style="fill:#FFFFFF;stroke:#263238;stroke-linecap:round;stroke-linejoin:round;stroke-miterlimit:10;" cx="508.27" cy="262.168" rx="5.998" ry="17.517"/>
		</g>
		<path style="fill:#FFFFFF;stroke:#263238;stroke-linecap:round;stroke-linejoin:round;stroke-miterlimit:10;" d="M518.626,317.094
			c0,0-3.404-5.836-12.157-6.322c-8.753-0.486-11.509-0.486-16.21,1.621c-4.701,2.107-7.457,6.97-7.781,7.781
			c-0.324,0.81,15.075-3.08,21.559-3.08c6.484,0,16.372,3.242,16.372,3.242L518.626,317.094z"/>
		<g>
			<path style="fill:#FFFFFF;stroke:#263238;stroke-linecap:round;stroke-linejoin:round;stroke-miterlimit:10;" d="M430.12,327.954
				c0,0,0.648-3.728,0-8.753c-0.648-5.025-3.404-10.699-4.052-12.644c-0.648-1.945-0.324-7.781-1.459-12.157
				c-1.135-4.377-3.242-7.456-5.187-6.484c-1.945,0.973-3.89,2.918-4.539,4.863c-0.648,1.945-1.945,12.806-1.297,16.21
				c0.648,3.404,5.025,12.644,5.349,13.13s3.08,8.753,3.08,8.753S425.744,328.116,430.12,327.954z"/>
			<path style="fill:none;stroke:#263238;stroke-linecap:round;stroke-linejoin:round;stroke-miterlimit:10;" d="M414.235,310.61
				c0,0-0.324-6.16-1.783-9.888c-1.459-3.728-2.432-5.349-0.486-5.349c1.945,0,4.539,3.08,4.701,4.701
				c0.162,1.621,1.135,6.16,1.135,6.16s4.863,3.728,5.836,5.511s2.431,5.511,2.431,5.998"/>
			
				<line style="fill:none;stroke:#263238;stroke-linecap:round;stroke-linejoin:round;stroke-miterlimit:10;" x1="417.963" y1="304.126" x2="424.771" y2="306.395"/>
			<path style="fill:none;stroke:#263238;stroke-linecap:round;stroke-linejoin:round;stroke-miterlimit:10;" d="M416.666,290.023
				c0,0,0.648,0,0.972,3.404c0.324,3.404,0.324,9.564,0.324,9.564"/>
			<path style="fill:none;stroke:#263238;stroke-linecap:round;stroke-linejoin:round;stroke-miterlimit:10;" d="M419.422,287.916
				c0,0,1.945,0.324,1.459,3.242c-0.486,2.918-0.324,12.644-0.324,12.644"/>
			
				<line style="fill:none;stroke:#263238;stroke-linecap:round;stroke-linejoin:round;stroke-miterlimit:10;" x1="423.96" y1="293.103" x2="423.312" y2="303.802"/>
		</g>
		<path style="fill:#FFFFFF;stroke:#263238;stroke-linecap:round;stroke-linejoin:round;stroke-miterlimit:10;" d="M532.101,472.022
			c0,0-22.401-5.36-22.951-5.36c-0.55,0-5.909-1.237-4.123-3.436c1.786-2.199,15.392-4.673,16.492-4.81
			C522.618,458.279,532.101,472.022,532.101,472.022z"/>
		<path style="fill:#FFFFFF;stroke:#263238;stroke-linecap:round;stroke-linejoin:round;stroke-miterlimit:10;" d="M522.206,461.578
			c0,0,3.848,5.497,5.635,7.559c1.787,2.061,10.307,5.497,14.018,4.947c3.711-0.55,6.459-0.412,4.398-4.398
			c-2.062-3.985-8.933-6.734-9.758-7.971s-2.474-4.26-3.436-5.085C532.101,455.805,522.206,461.578,522.206,461.578z"/>
		<path style="fill:#FFFFFF;stroke:#263238;stroke-linecap:round;stroke-linejoin:round;stroke-miterlimit:10;" d="M482.478,320.174
			c0,0-17.507,4.701-24.477,10.698c-6.97,5.998-17.182,16.858-17.182,16.858s-9.564-18.155-9.726-19.29
			c-0.162-1.135-4.053-2.269-7.132,0c-3.08,2.269-3.08,2.269-3.08,2.269l0.973,13.292c0,0,2.918,12.644,5.836,22.856
			c2.918,10.212,2.269,12.157,4.539,12.968c2.269,0.81,14.913-5.349,14.913-5.349l13.94-6.808c0,0,0.486,51.709,0.162,53.979
			c-0.324,2.269-3.404,0.648-4.053,1.621c-0.648,0.973-2.107,2.269-2.107,2.269s-5.025,0.81-6.322,1.783
			c-1.297,0.973-11.509,6.322-11.509,6.322s20.1-4.215,22.37-3.728c2.269,0.486,2.269,0.486,2.269,0.486s-3.08,26.746-2.594,29.178
			c0.486,2.432,8.429,4.863,8.429,4.863s32.095,1.621,38.741,1.621c6.646,0,20.749-6.16,23.666-8.105
			c2.918-1.945,7.132-5.998,7.294-21.559s-2.918-30.312-2.918-30.312s-0.648-25.936,0.162-33.554
			c0.811-7.619,4.377-12.319,2.756-25.612c-1.621-13.292-6.322-19.938-6.322-19.938l-10.699-6.646
			C520.409,320.336,511.331,311.582,482.478,320.174z"/>
		<g>
			
				<line style="fill:none;stroke:#263238;stroke-linecap:round;stroke-linejoin:round;stroke-miterlimit:10;" x1="461.081" y1="367.668" x2="482.964" y2="355.835"/>
			
				<line style="fill:none;stroke:#263238;stroke-linecap:round;stroke-linejoin:round;stroke-miterlimit:10;" x1="462.168" y1="367.352" x2="477.453" y2="362.481"/>
			<path style="fill:none;stroke:#263238;stroke-linecap:round;stroke-linejoin:round;stroke-miterlimit:10;" d="M439.198,348.703
				c0,0-4.863,2.107-6.484,7.781"/>
			<path style="fill:none;stroke:#263238;stroke-linecap:round;stroke-linejoin:round;stroke-miterlimit:10;" d="M429.634,351.621
				c0,0,4.377-4.539,9.402-4.215"/>
			<path style="fill:none;stroke:#263238;stroke-linecap:round;stroke-linejoin:round;stroke-miterlimit:10;" d="M421.853,337.842
				c0,0,4.215-5.673,10.212-4.215"/>
		</g>
		<path style="fill:none;stroke:#263238;stroke-linecap:round;stroke-linejoin:round;stroke-miterlimit:10;" d="M475.146,377.403
			c1.352,0.661,2.814,1.336,4.388,2.014"/>
		<path style="fill:none;stroke:#263238;stroke-linecap:round;stroke-linejoin:round;stroke-miterlimit:10;" d="M462.168,369.363
			c0,0,3.376,3.038,10.569,6.819"/>
		<g>
			<path style="fill:none;stroke:#263238;stroke-linecap:round;stroke-linejoin:round;stroke-miterlimit:10;" d="M484.006,446.647
				c2.075,1.457,4.092,2.572,5.948,3.15"/>
			<path style="fill:none;stroke:#263238;stroke-linecap:round;stroke-linejoin:round;stroke-miterlimit:10;" d="M461.802,423.472
				c0,0,9.771,13.134,19.357,21"/>
			<path style="fill:none;stroke:#263238;stroke-linecap:round;stroke-linejoin:round;stroke-miterlimit:10;" d="M463.813,430.602
				c0,0,4.753,13.162,7.861,16.635"/>
			<path style="fill:none;stroke:#263238;stroke-linecap:round;stroke-linejoin:round;stroke-miterlimit:10;" d="M464.179,421.096
				c0,0,10.785,1.828,15.538,1.28s-1.28-3.473-5.85-3.839s-8.043,0.731-8.043,0.731"/>
			<path style="fill:none;stroke:#263238;stroke-linecap:round;stroke-linejoin:round;stroke-miterlimit:10;" d="M475.74,396.754
				c2.709,3.078,5.951,6.312,8.913,8.073c6.764,4.022,16.452,6.398,16.452,6.398"/>
			<path style="fill:none;stroke:#263238;stroke-linecap:round;stroke-linejoin:round;stroke-miterlimit:10;" d="M469.663,389.105
				c0,0,1.531,2.177,3.815,4.977"/>
			<path style="fill:none;stroke:#263238;stroke-linecap:round;stroke-linejoin:round;stroke-miterlimit:10;" d="M494.136,414.172
				c-4.182-0.48-9.94-1.942-16.247-5.873"/>
			<path style="fill:none;stroke:#263238;stroke-linecap:round;stroke-linejoin:round;stroke-miterlimit:10;" d="M500.922,414.149
				c0,0-1.465,0.283-3.962,0.222"/>
		</g>
		<path style="fill:#92E3A9;stroke:#263238;stroke-linecap:round;stroke-linejoin:round;stroke-miterlimit:10;" d="M437.253,433.642
			c0,0-32.785,14.353-33.972,20.289c-1.187,5.935,0.475,12.108,2.612,14.483c2.137,2.374,69.736,3.087,69.736,3.087
			s-0.712-0.712-0.712-3.799c0-3.086,0.712-5.461,0.712-5.461l-16.33-2.663l2.594-29.178
			C461.891,430.4,449.685,429.261,437.253,433.642z"/>
		<g>
			<path style="fill:none;stroke:#263238;stroke-linecap:round;stroke-linejoin:round;stroke-miterlimit:10;" d="M415.864,456.305
				c0,0,8.481-2.137,14.417-2.374c5.936-0.237,27.303,4.748,27.303,4.748"/>
			<path style="fill:#FFFFFF;stroke:#263238;stroke-linecap:round;stroke-linejoin:round;stroke-miterlimit:10;" d="M475.628,471.5
				c0,0,27.751,2.446,28.85,2.446c1.1,0,10.032,1.512,11.544,1.649c1.512,0.137,4.535-1.1,1.374-5.222
				c-3.161-4.123-13.605-8.246-15.255-8.383c-1.649-0.138-4.81-7.696-9.208-6.322c-4.398,1.374-7.009,4.948-8.246,5.497
				c-1.237,0.55-9.06,1.076-9.06,1.076S472.889,468.505,475.628,471.5z"/>
			<path style="fill:none;stroke:#263238;stroke-linecap:round;stroke-linejoin:round;stroke-miterlimit:10;" d="M492.934,457.592
				c0,0-1.649-0.137,0.275,2.336c1.924,2.474,7.284,5.772,10.994,9.895c3.711,4.123,9.07,4.81,9.07,4.81"/>
		</g>
	</g>
</g>
<g id="Character_1">
	<g>
		<path style="fill:#92E3A9;stroke:#263238;stroke-linecap:round;stroke-linejoin:round;stroke-miterlimit:10;" d="M220.549,373.196
			c7.427,1.651,8.803,1.375,8.803,1.375v22.741h147.445v-20.265c0,0-3.576-145.519-5.227-148.82
			c-1.65-3.301-47.288-22.196-47.288-22.196l-54.308,1.727c0,0-49.699,22.395-51.9,25.696c-2.201,3.301-17.605,69.596-19.531,92.978
			C196.616,349.814,213.121,371.545,220.549,373.196z"/>
		<g>
			<path style="fill:#92E3A9;stroke:#263238;stroke-linecap:round;stroke-linejoin:round;stroke-miterlimit:10;" d="
				M362.357,239.351c0,0-5.664,19.115-5.428,32.095c0.236,12.98,0.944,15.811,0.944,15.811s-3.068,8.968-4.484,16.283
				c-1.416,7.316-2.124,11.8-2.596,12.98c-0.472,1.18-11.092,29.735-12.036,31.387c-0.944,1.652-5.428,10.856-5.428,10.856
				s3.068,34.927,4.248,35.399c1.18,0.472,10.62,1.18,27.611-11.564c16.992-12.743,25.251-37.051,25.487-51.918
				s-7.788-76.461-7.788-76.461s-5.664-20.531-8.024-24.307c-2.36-3.776-8.26-4.72-9.676-4.72"/>
			<path style="fill:none;stroke:#263238;stroke-linecap:round;stroke-linejoin:round;stroke-miterlimit:10;" d="M359.761,285.37
				c0,0,6.844-14.868,11.8-19.115"/>
			<path style="fill:none;stroke:#263238;stroke-linecap:round;stroke-linejoin:round;stroke-miterlimit:10;" d="M350.557,330.208
				c0,0,8.732-4.012,20.059,1.416"/>
			<path style="fill:#263238;stroke:#263238;stroke-linecap:round;stroke-linejoin:round;stroke-miterlimit:10;" d="
				M337.577,394.162c0,0,1.888-29.735,1.888-36.579c0-6.844-6.372-0.472-6.372-0.472S336.633,389.678,337.577,394.162z"/>
		</g>
		<g>
			<polygon style="fill:#FFFFFF;stroke:#263238;stroke-linecap:round;stroke-linejoin:round;stroke-miterlimit:10;" points="
				272.822,397.312 329.03,397.312 324.281,206.031 318.716,203.536 316.221,184.538 275.73,187.224 275.922,203.344 
				269.973,207.758 			"/>
			<path style="fill:#BFBFBF;stroke:#263238;stroke-linecap:round;stroke-linejoin:round;stroke-miterlimit:10;" d="
				M275.882,199.978c2.566,1.46,7.69,4.333,9.251,4.901c2.111,0.768,10.171,2.303,10.171,2.303l2.495,8.06l4.03-9.403
				c0,0,5.373-1.151,10.938-3.071c2.4-0.828,4.12-2.512,5.302-4.161l-1.848-14.07l-40.491,2.687L275.882,199.978z"/>
		</g>
		<g>
			<path style="fill:#BFBFBF;stroke:#263238;stroke-linecap:round;stroke-linejoin:round;stroke-miterlimit:10;" d="
				M269.436,150.411c0,0,0.876,28.636,2.669,34.606c1.793,5.97,12.462,13.354,18.935,15.517c6.473,2.163,12.282,0.286,18.373-4.278
				c6.092-4.565,9.29-11.649,10.235-16.446c0.945-4.796-0.016-30.743-0.016-30.743s0.191-37.274-0.33-39.584
				c-0.521-2.31-14.511-11.256-25.981-12.112c-11.47-0.857-27.789,13.621-27.88,16.502
				C265.35,116.755,269.436,150.411,269.436,150.411z"/>
			<path style="fill:#FFFFFF;stroke:#263238;stroke-linecap:round;stroke-linejoin:round;stroke-miterlimit:10;" d="
				M295.582,144.848c11.176,0.538,20.539,3.536,24.072,4.808c-0.013-0.375-0.021-0.588-0.021-0.588s0.191-37.274-0.33-39.584
				c-0.521-2.31-14.511-11.256-25.981-12.113c-11.47-0.857-27.789,13.621-27.88,16.502c-0.091,2.881,3.995,36.538,3.995,36.538
				S281.331,144.162,295.582,144.848z"/>
			<path style="fill:#BFBFBF;stroke:#263238;stroke-linecap:round;stroke-linejoin:round;stroke-miterlimit:10;" d="
				M269.775,158.484c0,0-1.872-3.473-4.497-1.956c-2.625,1.517-2.964,5.934-1.116,10.175c1.848,4.241,6.165,5.619,6.165,5.619
				L269.775,158.484z"/>
			<path style="fill:#BFBFBF;stroke:#263238;stroke-linecap:round;stroke-linejoin:round;stroke-miterlimit:10;" d="
				M319.761,157.523c0,0,4.308-4.578,6.415-2.256c2.107,2.322,1.384,6.351,0.079,9.992c-1.305,3.641-5.936,5.911-5.936,5.911
				L319.761,157.523z"/>
			<path style="fill:none;stroke:#263238;stroke-linecap:round;stroke-linejoin:round;stroke-miterlimit:10;" d="M291.141,171.357
				c0,0-2.451,2.287-1.887,3.252c0.564,0.965,10.071,1.23,11.687,0.282c1.616-0.948-0.467-4.038-1.241-4.621"/>
			<path style="fill:#A3A3A3;stroke:#263238;stroke-linecap:round;stroke-linejoin:round;stroke-miterlimit:10;" d="
				M285.524,180.701c0,0,2.988,8.827,9.022,9.292c8.306,0.64,12.172-8.745,12.172-8.745L285.524,180.701z"/>
			<path style="fill:#A3A3A3;stroke:#263238;stroke-linecap:round;stroke-linejoin:round;stroke-miterlimit:10;" d="
				M306.718,181.248c0,0-6.223,2.45-10.986,2.606c-4.763,0.156-10.208-3.153-10.208-3.153S302.022,179.291,306.718,181.248z"/>
			<path style="fill:#263238;" d="M285.506,161.514c-0.04,1.273-0.827,2.299-1.758,2.292c-0.93-0.007-1.652-1.045-1.612-2.318
				c0.04-1.273,0.827-2.299,1.758-2.292C284.825,159.203,285.547,160.241,285.506,161.514z"/>
			<path style="fill:#263238;" d="M309.016,160.926c-0.04,1.273-0.827,2.299-1.758,2.292c-0.93-0.007-1.652-1.045-1.612-2.318
				s0.827-2.299,1.758-2.292C308.335,158.616,309.056,159.653,309.016,160.926z"/>
			<path style="fill:none;stroke:#263238;stroke-linecap:round;stroke-linejoin:round;stroke-miterlimit:10;" d="M276.585,155.297
				c0,0,5.473-3.801,13.291-0.282"/>
			<path style="fill:none;stroke:#263238;stroke-linecap:round;stroke-linejoin:round;stroke-miterlimit:10;" d="M300.392,154.712
				c0,0,6.885-4.559,14.864,0.114"/>
			<path style="fill:none;stroke:#263238;stroke-linecap:round;stroke-linejoin:round;stroke-miterlimit:10;" d="M290.936,159.058
				c0,0-4.702-1.765-9.861-1.613c-5.159,0.152-7.958,0.9-8.409,2.625c-0.451,1.726-0.802,6.527,1.732,7.891
				c2.534,1.364,14.815,1.651,16.245,0.317c1.43-1.334,1.393-5.769,1.601-6.713C292.708,159.456,290.936,159.058,290.936,159.058z"
				/>
			<path style="fill:none;stroke:#263238;stroke-linecap:round;stroke-linejoin:round;stroke-miterlimit:10;" d="M299.651,159.125
				c0,0,4.811-1.692,9.958-1.461c5.147,0.232,7.897,1.021,8.239,2.753c0.341,1.732,0.387,6.536-2.232,7.861
				c-2.619,1.325-14.913,1.423-16.258,0.067c-1.345-1.355-1.027-5.788-1.174-6.734C297.855,159.496,299.651,159.125,299.651,159.125
				z"/>
			<path style="fill:none;stroke:#263238;stroke-linecap:round;stroke-linejoin:round;stroke-miterlimit:10;" d="M292.488,159.737
				c0,0,3.162-1.87,5.63,0.043"/>
			
				<line style="fill:none;stroke:#263238;stroke-linecap:round;stroke-linejoin:round;stroke-miterlimit:10;" x1="292.245" y1="161.566" x2="298.185" y2="161.612"/>
			
				<line style="fill:none;stroke:#263238;stroke-linecap:round;stroke-linejoin:round;stroke-miterlimit:10;" x1="317.662" y1="159.596" x2="319.704" y2="156.827"/>
			
				<line style="fill:none;stroke:#263238;stroke-linecap:round;stroke-linejoin:round;stroke-miterlimit:10;" x1="272.667" y1="160.071" x2="269.488" y2="156.552"/>
		</g>
		<path style="fill:#92E3A9;stroke:#263238;stroke-linecap:round;stroke-linejoin:round;stroke-miterlimit:10;" d="M201.419,316.834
			c0,0,0.187-3.358,2.239-5.597s15.298-14.366,15.298-14.366s17.164-8.955,18.47-5.037s8.022,49.44,8.769,64.179
			c0.746,14.739-16.844,18.558-16.844,18.558"/>
		<path style="fill:none;stroke:#263238;stroke-linecap:round;stroke-linejoin:round;stroke-miterlimit:10;" d="M204.591,304.894
			c0,0,5.41-4.104,9.888-3.918"/>
		<g>
			<g>
				<path style="fill:#FFFFFF;stroke:#263238;stroke-linecap:round;stroke-linejoin:round;stroke-miterlimit:10;" d="
					M224.74,281.386c0,0-5.41,12.687-5.784,15.485c-0.373,2.799,3.358,27.425,5.037,34.515c1.679,7.09,2.799,8.209,2.799,8.209
					s9.142-41.978,9.888-45.896c0.746-3.918,0.746-3.918,0.746-3.918L224.74,281.386z"/>
				<path style="fill:none;stroke:#263238;stroke-linecap:round;stroke-linejoin:round;stroke-miterlimit:10;" d="M218.583,299.297
					c0,0,3.731,12.873,12.313,11.008"/>
			</g>
			<g>
				<path style="fill:#BFBFBF;stroke:#263238;stroke-linecap:round;stroke-linejoin:round;stroke-miterlimit:10;" d="
					M245.076,258.252c0,0,0.746-0.933,2.239-3.358c1.492-2.425,3.918-3.731,4.291-0.186c0.373,3.545-1.119,8.022-1.866,8.955
					c-0.746,0.933-2.985,3.731-2.985,3.731l-2.239-6.343L245.076,258.252z"/>
				<path style="fill:#BFBFBF;stroke:#263238;stroke-linecap:round;stroke-linejoin:round;stroke-miterlimit:10;" d="
					M230.151,255.827c0,0-5.411,9.515-5.597,12.127c-0.187,2.612-0.56,15.672-0.187,18.097c0.373,2.425,1.119,5.597,4.104,6.53
					c2.985,0.933,7.836,0,8.955-2.799c1.119-2.798,1.866-8.955,1.866-8.955s1.306-3.358,1.679-4.104
					c0.373-0.746,4.664,2.612,5.224,2.052c0.56-0.56,2.425-4.104,2.239-5.597c-0.187-1.492-1.493-7.09-1.493-10.634
					s-5.97-5.97-7.836-7.09c-1.866-1.119-1.866-1.119-1.866-1.119s3.358-8.769,3.731-13.619c0.373-4.851-2.798-5.97-3.731-4.664
					c-0.933,1.306-2.798,7.836-3.731,10.634C232.576,249.483,230.151,255.827,230.151,255.827z"/>
				<polyline style="fill:none;stroke:#263238;stroke-linecap:round;stroke-linejoin:round;stroke-miterlimit:10;" points="
					231.83,272.245 237.427,273.177 240.971,276.722 				"/>
				<path style="fill:none;stroke:#263238;stroke-linecap:round;stroke-linejoin:round;stroke-miterlimit:10;" d="M235.934,272.991
					c0,0,1.306,3.918,0.933,7.836"/>
				<path style="fill:none;stroke:#263238;stroke-linecap:round;stroke-linejoin:round;stroke-miterlimit:10;" d="M230.151,264.036
					c0,0,9.888,2.239,11.007,3.545s6.343,8.209,6.343,8.209"/>
				<path style="fill:none;stroke:#263238;stroke-linecap:round;stroke-linejoin:round;stroke-miterlimit:10;" d="M232.203,257.879
					c0,0,10.634,4.478,11.567,5.784s4.291,8.022,4.291,8.022"/>
			</g>
		</g>
		<path style="fill:none;stroke:#263238;stroke-linecap:round;stroke-linejoin:round;stroke-miterlimit:10;" d="M219.516,235.491
			c0,0,6.716,17.537,8.209,23.881"/>
		<path style="fill:none;stroke:#263238;stroke-linecap:round;stroke-linejoin:round;stroke-miterlimit:10;" d="M216.718,255.267
			c0,0,7.276,8.396,8.209,9.515"/>
		<g>
			<path style="fill:#FFFFFF;stroke:#263238;stroke-linecap:round;stroke-linejoin:round;stroke-miterlimit:10;" d="
				M302.651,308.025c0,0-2.832-4.484-12.272-5.192c-9.44-0.708-17.935,3.304-23.835,4.484c-5.9,1.18-14.16,2.124-14.16,2.124v6.372
				h50.502C302.887,315.813,301.471,308.025,302.651,308.025z"/>
			<path style="fill:#FFFFFF;stroke:#263238;stroke-linecap:round;stroke-linejoin:round;stroke-miterlimit:10;" d="
				M303.123,308.025c0,0,2.832-4.484,12.272-5.192c9.44-0.708,17.935,3.304,23.835,4.484c5.9,1.18,14.16,2.124,14.16,2.124v6.372
				h-50.502C302.887,315.813,304.303,308.025,303.123,308.025z"/>
		</g>
		<polygon style="fill:#263238;stroke:#263238;stroke-linecap:round;stroke-linejoin:round;stroke-miterlimit:10;" points="
			340.981,358.439 263.537,358.439 246.942,314.782 357.576,314.782 		"/>
		
			<rect x="295.335" y="339.648" style="fill:#A3A3A3;stroke:#263238;stroke-linecap:round;stroke-linejoin:round;stroke-miterlimit:10;" width="13.688" height="57.664"/>
	</g>
</g>
</svg>
