<?xml version="1.0" encoding="utf-8"?>
<!-- Generator: Adobe Illustrator 27.5.0, SVG Export Plug-In . SVG Version: 6.00 Build 0)  -->
<svg version="1.1" id="Layer_1" xmlns="http://www.w3.org/2000/svg" xmlns:xlink="http://www.w3.org/1999/xlink" x="0px" y="0px"
	 viewBox="-1625.775 -174.915 779.106 720.002" style="enable-background:new -1625.775 -174.915 779.106 720.002;"
	 xml:space="preserve">
<rect x="-1625.775" y="-174.915" style="fill:#FFFFFF;" width="779.107" height="720.002"/>
<g>
	<g>
		<path d="M-1282.796,115.684c-0.287,0-0.577-0.104-0.8-0.318c-0.43-0.411-10.504-10.164-9.217-23.71
			c0.971-10.165,8.067-19.561,21.101-27.926c22.887-14.465,27.073-20.901,27.407-29.085c0.023-0.64,0.596-1.142,1.204-1.108
			c0.64,0.024,1.137,0.565,1.108,1.204c-0.365,9.002-4.723,15.933-28.475,30.941c-12.389,7.956-19.128,16.759-20.034,26.17
			c-1.193,12.417,8.409,21.743,8.503,21.836c0.463,0.44,0.481,1.176,0.041,1.637
			C-1282.184,115.563-1282.49,115.684-1282.796,115.684z"/>
	</g>
	<g>
		<path d="M-1203.496,115.684c-0.306,0-0.612-0.121-0.839-0.359c-0.441-0.461-0.421-1.196,0.04-1.637
			c0.096-0.093,9.682-9.403,8.48-21.802c-0.914-9.422-7.689-18.24-20.134-26.209c-23.654-15.017-27.991-21.942-28.356-30.937
			c-0.028-0.64,0.469-1.181,1.108-1.204c0.6-0.033,1.178,0.469,1.204,1.108c0.334,8.176,4.505,14.612,27.288,29.08
			c13.093,8.378,20.222,17.784,21.196,27.964c1.3,13.53-8.76,23.266-9.188,23.677
			C-1202.919,115.581-1203.209,115.684-1203.496,115.684z"/>
	</g>
	<g>
		<path d="M-1281.289,386.923c-0.64,0-1.157-0.518-1.157-1.157V304.43c0-0.642,0.517-1.157,1.157-1.157s1.157,0.516,1.157,1.157
			v81.335C-1280.132,386.405-1280.649,386.923-1281.289,386.923z M-1281.289,294.693c-0.64,0-1.157-0.518-1.157-1.157v-81.917
			c0-0.64,0.517-1.157,1.157-1.157s1.157,0.518,1.157,1.157v81.917C-1280.132,294.176-1280.649,294.693-1281.289,294.693z
			 M-1203.615,294.346c-0.64,0-1.156-0.518-1.156-1.157v-81.57c0-0.64,0.517-1.157,1.156-1.157c0.641,0,1.157,0.518,1.157,1.157
			v81.57C-1202.458,293.829-1202.975,294.346-1203.615,294.346z M-1203.615,201.54c-0.64,0-1.156-0.518-1.156-1.157v-71.145h-75.36
			v70.681c0,0.64-0.518,1.155-1.157,1.155s-1.157-0.516-1.157-1.155v-71.838c0-0.64,0.517-1.157,1.157-1.157h77.673
			c0.641,0,1.157,0.518,1.157,1.157v72.302C-1202.458,201.022-1202.975,201.54-1203.615,201.54z"/>
	</g>
	<g>
		<path d="M-1202.919,129.238h-78.95c-4.411,0-7.997-3.531-7.997-7.878c0-4.345,3.586-7.876,7.997-7.876h78.95
			c4.35,0,7.884,3.531,7.884,7.876C-1195.035,125.707-1198.57,129.238-1202.919,129.238z M-1281.869,115.799
			c-3.078,0-5.683,2.548-5.683,5.561c0,3.016,2.605,5.563,5.683,5.563h78.95c3.069,0,5.57-2.498,5.57-5.563
			c0-3.065-2.501-5.561-5.57-5.561H-1281.869z"/>
	</g>
	<g>
		<path d="M-1243.263,26.122c-1.32,0-2.434-0.955-2.434-2.089c0-1.129,1.113-2.082,2.434-2.082c1.32,0,2.434,0.953,2.434,2.082
			C-1240.83,25.167-1241.943,26.122-1243.263,26.122z"/>
	</g>
	<g>
		<path d="M-1243.033,30.518c-1.745,0-3.009-0.974-3.009-2.314c0-1.362,1.318-2.432,3.009-2.432c1.455,0,3.014,0.977,3.014,2.432
			C-1240.019,29.524-1241.314,30.518-1243.033,30.518z"/>
	</g>
	<g>
		<path d="M-1242.914,35.505c-1.885,0-3.358-1.17-3.358-2.664c0-1.494,1.474-2.664,3.358-2.664c1.885,0,3.36,1.17,3.36,2.664
			C-1239.553,34.335-1241.029,35.505-1242.914,35.505z M-1242.914,32.491c-0.686,0-1.018,0.293-1.046,0.373
			c0.028,0.031,0.359,0.326,1.046,0.326c0.689,0,1.015-0.295,1.051-0.378C-1241.899,32.784-1242.225,32.491-1242.914,32.491z"/>
	</g>
	<g>
		<path d="M-1243.147,23.8c-0.642,0-1.157-0.517-1.157-1.157v-4.401c0-0.64,0.516-1.157,1.157-1.157c0.64,0,1.155,0.518,1.155,1.157
			v4.401C-1241.992,23.282-1242.508,23.8-1243.147,23.8z"/>
	</g>
	<g>
		<path d="M-1230.162,2.249c-0.238,0-0.474-0.07-0.676-0.215l-3.023-2.17l-2.914,2.159c-0.409,0.303-0.958,0.303-1.367,0.011
			c-0.409-0.293-0.58-0.818-0.425-1.3l1.132-3.495l-2.926-2.165c-0.406-0.303-0.567-0.831-0.406-1.31
			c0.163-0.469,0.605-0.779,1.098-0.779c0.008,0,0.021,0,0.033,0l3.537,0.093l1.126-3.469c0.31-0.953,1.892-0.953,2.203,0
			l1.125,3.469l3.658-0.093c0.509-0.003,0.962,0.303,1.125,0.779c0.163,0.479,0,1.007-0.405,1.31l-2.927,2.165l1.133,3.495
			c0.155,0.479-0.012,0.999-0.417,1.292C-1229.682,2.178-1229.924,2.249-1230.162,2.249z M-1233.872-2.728
			c0.238,0,0.474,0.07,0.676,0.215l0.843,0.604l-0.302-0.927c-0.155-0.472,0.012-0.994,0.409-1.287l0.652-0.482l-0.858,0.021
			c-0.442-0.033-0.971-0.315-1.13-0.8l-0.29-0.895l-0.291,0.895c-0.158,0.489-0.541,0.782-1.131,0.8l-0.737-0.021l0.649,0.482
			c0.396,0.293,0.564,0.815,0.409,1.287l-0.269,0.839l0.679-0.505C-1234.357-2.653-1234.115-2.728-1233.872-2.728z"/>
	</g>
	<g>
		<path d="M-1239.67,18.932c-1.388,0-2.854-0.207-4.357-0.616c-7.881-2.385-13.147-9.16-13.147-16.873
			c0-9.436,7.363-17.121,16.762-17.499c0.497-0.011,1.007,0.318,1.157,0.828c0.151,0.505-0.06,1.049-0.513,1.323
			c-3.857,2.31-6.162,6.4-6.162,10.941c0,6.967,5.67,12.632,12.639,12.632c2.934,0,5.721-0.938,7.852-2.644
			c0.414-0.331,1.003-0.339,1.424-0.016c0.422,0.316,0.572,0.883,0.369,1.37C-1226.342,14.79-1232.631,18.932-1239.67,18.932z
			 M-1244.472-12.993c-6.066,1.999-10.39,7.705-10.39,14.437c0,6.683,4.613,12.567,11.472,14.646
			c1.276,0.347,2.54,0.528,3.721,0.528c4.676,0,8.97-2.107,11.774-5.59c-1.691,0.629-3.52,0.955-5.396,0.955
			c-8.246,0-14.954-6.703-14.954-14.946C-1248.245-6.756-1246.885-10.282-1244.472-12.993z"/>
	</g>
	<g>
		<path d="M-1271.207,115.684c-0.352,0-0.704-0.16-0.93-0.466c-0.194-0.264-19.084-26.393,8.5-51.374
			c16.155-14.46,19.104-20.933,19.332-29.184c0.016-0.64,0.596-1.132,1.188-1.124c0.64,0.016,1.145,0.549,1.124,1.188
			c-0.241,8.927-3.312,15.819-20.094,30.841c-25.994,23.542-8.93,47.271-8.189,48.268c0.381,0.518,0.274,1.242-0.24,1.623
			C-1270.725,115.612-1270.969,115.684-1271.207,115.684z"/>
	</g>
	<g>
		<path d="M-1257.175,115.684c-0.469,0-0.915-0.287-1.087-0.753c-0.094-0.259-9.419-26.046,4.243-50.789
			c8.114-14.527,9.598-21.075,9.714-29.466c0.008-0.64,0.596-1.251,1.173-1.14c0.64,0.008,1.152,0.533,1.14,1.173
			c-0.119,8.787-1.645,15.602-10.002,30.559c-13.129,23.783-4.186,48.606-4.096,48.857c0.223,0.596-0.083,1.264-0.684,1.486
			C-1256.905,115.664-1257.04,115.684-1257.175,115.684z"/>
	</g>
	<g>
		<path d="M-1215.09,115.684c-0.238,0-0.48-0.072-0.691-0.228c-0.513-0.381-0.62-1.105-0.238-1.623
			c0.739-0.997,17.804-24.726-8.199-48.271c-16.771-15.018-19.839-21.911-20.085-30.838c-0.021-0.64,0.484-1.173,1.124-1.188
			c0.743-0.008,1.173,0.484,1.188,1.124c0.232,8.251,3.182,14.724,19.324,29.181c27.594,24.984,8.703,51.113,8.509,51.377
			C-1214.386,115.524-1214.736,115.684-1215.09,115.684z"/>
	</g>
	<g>
		<path d="M-1229.121,115.684c-0.135,0-0.27-0.021-0.401-0.072c-0.6-0.223-0.906-0.891-0.684-1.486
			c0.092-0.251,9.033-25.074-4.1-48.862c-8.354-14.952-9.879-21.767-9.998-30.554c-0.013-0.64,0.5-1.165,1.14-1.173
			c0.728-0.111,1.165,0.5,1.173,1.14c0.116,8.391,1.6,14.938,9.71,29.463c13.665,24.746,4.342,50.533,4.246,50.792
			C-1228.206,115.397-1228.652,115.684-1229.121,115.684z"/>
	</g>
	<g>
		<path d="M-1183.557,353.783c-0.02,0-0.043,0-0.063,0c-0.64-0.036-1.129-0.58-1.093-1.22l7.304-131.391
			c0.035-0.635,0.557-1.132,1.22-1.093c0.641,0.036,1.13,0.58,1.094,1.22l-7.304,131.391
			C-1182.436,353.306-1182.945,353.783-1183.557,353.783z M-1128.025,303.729c-0.616,0-1.129-0.484-1.157-1.108l-3.479-81.451
			c-0.027-0.637,0.469-1.178,1.109-1.206c0.568-0.016,1.177,0.471,1.205,1.11l3.479,81.451c0.027,0.637-0.469,1.178-1.109,1.204
			C-1127.992,303.729-1128.008,303.729-1128.025,303.729z M-1175.906,215.44c-0.021,0-0.044,0-0.068,0
			c-0.64-0.036-1.125-0.585-1.089-1.225l2.321-40.086c0.036-0.637,0.525-1.085,1.225-1.09c0.641,0.036,1.126,0.585,1.09,1.225
			l-2.322,40.086C-1174.785,214.967-1175.299,215.44-1175.906,215.44z M-1131.85,215.324c-0.615,0-1.129-0.484-1.156-1.105
			l-1.738-39.858c-0.027-0.64,0.47-1.181,1.105-1.209c0.76-0.063,1.182,0.471,1.209,1.105l1.737,39.858
			c0.028,0.642-0.469,1.183-1.105,1.209C-1131.818,215.324-1131.833,215.324-1131.85,215.324z M-1173.238,169.096
			c-0.021,0-0.044,0-0.065,0c-0.64-0.036-1.129-0.58-1.093-1.222l2.783-50.052c0.035-0.616,0.541-1.095,1.156-1.095h34.433
			c0.619,0,1.129,0.486,1.156,1.105l2.203,50.054c0.027,0.64-0.465,1.181-1.105,1.209c-0.02,0-0.036,0-0.052,0
			c-0.616,0-1.129-0.484-1.157-1.105l-2.154-48.948h-32.225l-2.724,48.961C-1172.117,168.62-1172.627,169.096-1173.238,169.096z"/>
	</g>
	<g>
		<path d="M-1146.227,169.327h-16.81c-0.64,0-1.156-0.518-1.156-1.157v-37.886c0-5.24,4.314-9.504,9.622-9.504
			c5.24,0,9.502,4.264,9.502,9.504v37.886C-1145.07,168.809-1145.586,169.327-1146.227,169.327z M-1161.879,167.012h14.496v-36.729
			c0-3.966-3.225-7.189-7.188-7.189c-4.028,0-7.308,3.224-7.308,7.189V167.012z"/>
	</g>
	<g>
		<path d="M-1135.674,119.043h-35.132c-2.262,0-4.171-1.908-4.171-4.171c0-2.258,1.909-4.166,4.171-4.166h35.132
			c2.263,0,4.171,1.908,4.171,4.166C-1131.503,117.135-1133.411,119.043-1135.674,119.043z M-1170.806,113.02
			c-0.989,0-1.856,0.865-1.856,1.852c0,0.991,0.867,1.856,1.856,1.856h35.132c0.99,0,1.857-0.865,1.857-1.856
			c0-0.986-0.866-1.852-1.857-1.852H-1170.806z"/>
	</g>
	<g>
		<path d="M-1129.762,175.354h-46.722c-2.262,0-4.171-1.908-4.171-4.171s1.909-4.171,4.171-4.171h46.722
			c2.262,0,4.171,1.908,4.171,4.171S-1127.5,175.354-1129.762,175.354z M-1176.484,169.327c-0.989,0-1.857,0.867-1.857,1.856
			c0,0.991,0.867,1.856,1.857,1.856h46.722c0.99,0,1.856-0.865,1.856-1.856c0-0.989-0.866-1.856-1.856-1.856H-1176.484z"/>
	</g>
	<g>
		<path d="M-1135.444,112.901c-0.075,0-0.155-0.01-0.234-0.025c-0.628-0.127-1.03-0.738-0.898-1.367
			c0.767-3.713,1.403-12.958-9.26-18.551c-0.569-0.3-0.788-0.999-0.489-1.563c0.298-0.572,0.997-0.792,1.561-0.489
			c12.064,6.325,11.332,16.847,10.453,21.072C-1134.422,112.526-1134.903,112.901-1135.444,112.901z"/>
	</g>
	<g>
		<path d="M-1145.066,93.088c-0.123,0-0.25-0.018-0.374-0.059c-0.179-0.063-4.393-1.535-7.916-5.546
			c-0.421-0.481-0.373-1.212,0.107-1.634c0.478-0.427,1.209-0.378,1.635,0.106c3.097,3.526,6.886,4.867,6.926,4.878
			c0.604,0.212,0.926,0.872,0.716,1.476C-1144.135,92.787-1144.584,93.088-1145.066,93.088z"/>
	</g>
	<g>
		<path d="M-1160.604,93.204c-0.43,0-0.847-0.243-1.045-0.657c-0.275-0.575-0.032-1.268,0.544-1.546
			c0.056-0.023,5.396-2.6,7.646-5.064c0.429-0.463,1.169-0.502,1.638-0.072c0.469,0.43,0.505,1.165,0.071,1.639
			c-2.557,2.794-8.118,5.479-8.354,5.59C-1160.265,93.168-1160.437,93.204-1160.604,93.204z"/>
	</g>
	<g>
		<path d="M-1145.066,93.323c-0.175,0-0.35-0.036-0.517-0.119c-0.075-0.044-7.65-3.723-13.395-0.386
			c-0.549,0.321-1.265,0.135-1.583-0.422c-0.322-0.552-0.135-1.261,0.422-1.582c6.83-3.964,15.235,0.135,15.589,0.313
			c0.573,0.287,0.804,0.981,0.521,1.556C-1144.231,93.088-1144.64,93.323-1145.066,93.323z"/>
	</g>
	<g>
		<path d="M-1170.34,112.785c-0.541,0-1.026-0.378-1.138-0.927c-2.812-13.919,10.918-20.896,11.058-20.964
			c0.561-0.287,1.264-0.052,1.551,0.521c0.282,0.572,0.051,1.269-0.521,1.554c-0.505,0.251-12.27,6.271-9.813,18.429
			c0.127,0.629-0.282,1.24-0.906,1.367C-1170.19,112.78-1170.265,112.785-1170.34,112.785z"/>
	</g>
	<g>
		<path d="M-1152.485,83.47c-0.958,0-1.737-0.723-1.737-1.618c0-0.728,0.541-1.507,1.737-1.507c1.193,0,1.734,0.779,1.734,1.507
			C-1150.751,82.747-1151.527,83.47-1152.485,83.47z M-1152.485,81.157c-0.282,0-0.58,0.277-0.58,0.694
			c0,0.489,0.394,0.792,0.596,0.813c0.167-0.021,0.562-0.326,0.562-0.813C-1151.907,81.442-1152.21,81.157-1152.485,81.157z"/>
	</g>
	<g>
		<path d="M-1152.604,85.442c-1.121,0-1.968-0.748-1.968-1.737c0-0.989,0.847-1.737,1.968-1.737c1.125,0,1.972,0.748,1.972,1.737
			C-1150.632,84.694-1151.479,85.442-1152.604,85.442z"/>
	</g>
	<g>
		<path d="M-1152.604,87.645c-1.213,0-2.198-0.831-2.198-1.856c0-1.022,0.985-1.849,2.198-1.849c1.113,0,2.088,0.862,2.088,1.849
			C-1150.516,86.778-1151.49,87.645-1152.604,87.645z"/>
	</g>
	<g>
		<path d="M-1152.485,82.428c-0.608,0-1.121-0.474-1.157-1.085l-0.119-1.973c-0.04-0.64,0.449-1.188,1.085-1.228
			c0.617-0.013,1.189,0.448,1.229,1.085l0.119,1.973c0.04,0.64-0.449,1.188-1.086,1.228
			C-1152.437,82.428-1152.461,82.428-1152.485,82.428z"/>
	</g>
	<g>
		<path d="M-1147.383,72.927c-0.267,0-0.533-0.093-0.748-0.271l-0.787-0.668l-0.883,0.696c-0.398,0.311-0.943,0.334-1.367,0.044
			c-0.418-0.282-0.601-0.803-0.461-1.284l0.35-1.178l-0.951-0.679c-0.409-0.29-0.584-0.816-0.432-1.297
			c0.155-0.481,0.601-0.803,1.105-0.803h1.169l0.413-1.101c0.175-0.466,0.764-0.745,1.117-0.753
			c0.497,0.013,0.927,0.342,1.073,0.813l0.326,1.041h1.117c0.506,0,0.951,0.321,1.105,0.803c0.151,0.481-0.023,1.007-0.434,1.297
			l-0.95,0.679l0.351,1.178c0.143,0.489-0.053,1.018-0.481,1.297C-1146.942,72.867-1147.164,72.927-1147.383,72.927z"/>
	</g>
	<g>
		<path d="M-1151.558,80.225c-0.648,0-1.384,0-2.171-0.309c-0.1-0.041-0.191-0.093-0.271-0.155c-0.167,0.019-0.35-0.005-0.517-0.067
			c-3.225-1.209-5.388-4.347-5.388-7.806c0-4.552,3.459-8.187,8.047-8.456c0.533,0.016,1.026,0.309,1.182,0.831
			c0.15,0.516-0.076,1.072-0.545,1.334c-1.518,0.856-2.43,2.467-2.43,4.318c0,2.7,2.286,4.981,4.99,4.981
			c1.141,0,2.274-0.376,3.113-1.028c0.425-0.331,1.014-0.326,1.431,0.003c0.418,0.331,0.557,0.906,0.334,1.393
			C-1145.177,78.325-1148.154,80.225-1151.558,80.225z M-1153.299,77.68c0.143,0,0.286,0.025,0.429,0.08
			c1.15,0.461,2.935,0.124,4.223-0.549c-0.004,0-0.008,0-0.012,0c-4.028,0-7.304-3.273-7.304-7.296c0-0.938,0.158-1.833,0.469-2.659
			c-1.296,1.121-2.096,2.771-2.096,4.632c0,2.501,1.563,4.764,3.885,5.634c0.107,0.039,0.207,0.096,0.295,0.163
			C-1153.375,77.68-1153.335,77.68-1153.299,77.68z"/>
	</g>
	<g>
		<path d="M-1127.213,222.278h-51.938c-2.386,0-4.402-2.015-4.402-4.401c0-2.449,2.017-4.516,4.402-4.516h51.938
			c2.492,0,4.521,2.022,4.521,4.516C-1122.693,220.263-1124.76,222.278-1127.213,222.278z M-1179.151,215.674
			c-1.13,0-2.088,1.012-2.088,2.203c0,1.095,0.994,2.087,2.088,2.087h51.938c1.196,0,2.206-0.958,2.206-2.087
			c0-1.212-0.989-2.203-2.206-2.203H-1179.151z"/>
	</g>
	<g>
		<path d="M-1124.08,288.554h-58.085c-2.699,0-4.981-2.227-4.981-4.867c0-2.747,2.234-4.979,4.981-4.979h58.085
			c2.699,0,4.981,2.278,4.981,4.979C-1119.099,286.328-1121.381,288.554-1124.08,288.554z M-1182.165,281.023
			c-1.443,0-2.667,1.22-2.667,2.664c0,1.359,1.248,2.553,2.667,2.553h58.085c1.42,0,2.668-1.193,2.668-2.553
			c0-1.444-1.225-2.664-2.668-2.664H-1182.165z"/>
	</g>
	<g>
		<path d="M-1297.753,362.244c-0.613,0-1.123-0.477-1.157-1.093l-7.304-131.279c-0.036-0.64,0.453-1.184,1.093-1.22
			c0.632-0.013,1.183,0.453,1.22,1.093l7.304,131.279c0.036,0.64-0.453,1.184-1.093,1.22
			C-1297.711,362.244-1297.734,362.244-1297.753,362.244z M-1353.401,312.19c-0.016,0-0.031,0-0.052,0
			c-0.64-0.028-1.134-0.567-1.105-1.209l3.594-81.34c0.028-0.635,0.458-1.157,1.209-1.105c0.642,0.028,1.134,0.569,1.106,1.209
			l-3.594,81.34C-1352.272,311.706-1352.785,312.19-1353.401,312.19z M-1305.519,224.015c-0.611,0-1.121-0.477-1.157-1.093
			l-2.201-40.089c-0.036-0.642,0.453-1.186,1.093-1.222c0.58-0.008,1.186,0.458,1.22,1.095l2.203,40.089
			c0.036,0.64-0.453,1.186-1.093,1.22C-1305.475,224.015-1305.499,224.015-1305.519,224.015z M-1349.461,223.901
			c-0.016,0-0.031,0-0.052,0c-0.637-0.028-1.134-0.569-1.105-1.209l1.742-39.975c0.026-0.637,0.425-1.093,1.207-1.105
			c0.637,0.028,1.134,0.569,1.106,1.209l-1.74,39.975C-1348.332,223.415-1348.844,223.901-1349.461,223.901z M-1308.072,177.669
			c-0.611,0-1.121-0.477-1.155-1.093l-2.724-48.961h-32.337l-2.045,48.943c-0.026,0.642-0.591,1.113-1.204,1.11
			c-0.64-0.028-1.137-0.564-1.108-1.204l2.087-50.054c0.023-0.621,0.536-1.11,1.157-1.11h34.546c0.616,0,1.121,0.478,1.157,1.095
			l2.783,50.052c0.036,0.642-0.453,1.186-1.093,1.222C-1308.028,177.669-1308.052,177.669-1308.072,177.669z"/>
	</g>
	<g>
		<path d="M-1318.389,177.899h-16.81c-0.64,0-1.157-0.518-1.157-1.157v-37.883c0-5.24,4.316-9.502,9.623-9.502
			c5.24,0,9.502,4.262,9.502,9.502v37.883C-1317.232,177.382-1317.748,177.899-1318.389,177.899z M-1334.043,175.585h14.496v-36.726
			c0-3.964-3.224-7.188-7.188-7.188c-4.028,0-7.309,3.224-7.309,7.188V175.585z"/>
	</g>
	<g>
		<path d="M-1310.625,127.615h-35.012c-2.263,0-4.171-1.908-4.171-4.166c0-2.338,1.833-4.171,4.171-4.171h35.012
			c2.379,0,4.171,1.792,4.171,4.171C-1306.454,125.787-1308.287,127.615-1310.625,127.615z M-1345.636,121.593
			c-1.041,0-1.856,0.813-1.856,1.856c0,0.986,0.867,1.852,1.856,1.852h35.012c1.043,0,1.858-0.814,1.858-1.852
			c0-1.11-0.748-1.856-1.858-1.856H-1345.636z"/>
	</g>
	<g>
		<path d="M-1304.828,183.927h-46.717c-2.338,0-4.171-1.833-4.171-4.171c0-2.338,1.833-4.171,4.171-4.171h46.717
			c2.263,0,4.171,1.908,4.171,4.171S-1302.565,183.927-1304.828,183.927z M-1351.545,177.899c-1.041,0-1.856,0.815-1.856,1.856
			s0.815,1.856,1.856,1.856h46.717c0.991,0,1.858-0.867,1.858-1.856s-0.867-1.856-1.858-1.856H-1351.545z"/>
	</g>
	<g>
		<path d="M-1345.867,121.476c-0.528,0-1.002-0.357-1.129-0.896c-0.759-3.26-2.255-14.432,10.437-21.215
			c0.549-0.298,1.261-0.096,1.566,0.477c0.303,0.564,0.088,1.266-0.477,1.566c-11.231,6.009-9.937,15.793-9.268,18.648
			c0.144,0.624-0.241,1.243-0.867,1.391C-1345.691,121.469-1345.779,121.476-1345.867,121.476z"/>
	</g>
	<g>
		<path d="M-1336.244,101.665c-0.466,0-0.903-0.282-1.082-0.74c-0.228-0.596,0.067-1.269,0.663-1.499
			c0.041-0.016,3.759-1.479,6.99-4.927c0.44-0.472,1.178-0.479,1.639-0.055c0.469,0.44,0.492,1.173,0.055,1.639
			c-3.617,3.855-7.682,5.442-7.853,5.507C-1335.966,101.639-1336.106,101.665-1336.244,101.665z"/>
	</g>
	<g>
		<path d="M-1320.707,101.776c-0.176,0-0.35-0.036-0.518-0.119c-0.233-0.119-5.776-2.899-8.321-5.566
			c-0.441-0.461-0.425-1.198,0.041-1.639c0.461-0.445,1.199-0.422,1.637,0.039c2.263,2.374,7.627,5.062,7.679,5.09
			c0.572,0.287,0.806,0.981,0.521,1.554C-1319.873,101.541-1320.282,101.776-1320.707,101.776z"/>
	</g>
	<g>
		<path d="M-1336.36,101.776c-0.43,0-0.844-0.238-1.041-0.652c-0.279-0.577-0.041-1.269,0.536-1.548
			c0.35-0.171,8.728-4.166,15.677-0.316c0.561,0.309,0.764,1.013,0.453,1.574c-0.31,0.56-1.018,0.764-1.574,0.453
			c-5.872-3.249-13.471,0.337-13.546,0.373C-1336.018,101.74-1336.189,101.776-1336.36,101.776z"/>
	</g>
	<g>
		<path d="M-1311.086,121.36c-0.075,0-0.155-0.008-0.238-0.023c-0.624-0.13-1.025-0.743-0.893-1.372
			c2.568-12.296-9.571-18.356-9.691-18.416c-0.575-0.277-0.815-0.974-0.536-1.546c0.277-0.577,0.974-0.82,1.546-0.538
			c0.14,0.069,13.88,6.928,10.946,20.978C-1310.063,120.987-1310.548,121.36-1311.086,121.36z"/>
	</g>
	<g>
		<path d="M-1328.826,91.93c-1.193,0-1.732-0.779-1.732-1.507c0-0.894,0.774-1.618,1.732-1.618c0.818,0,1.737,0.691,1.737,1.618
			C-1327.089,91.366-1327.971,91.93-1328.826,91.93z M-1328.841,89.618c-0.23,0.011-0.562,0.35-0.562,0.806
			c0,0.028,0.005,0.696,0.577,0.696c0.282,0,0.58-0.277,0.58-0.696c0-0.477-0.373-0.774-0.58-0.806l0,0c-0.003,0-0.008,0-0.008,0
			c-0.003,0-0.003,0-0.008-0.005V89.618z"/>
	</g>
	<g>
		<path d="M-1328.826,93.9c-1.106,0-1.968-0.712-1.968-1.623c0-0.989,0.847-1.734,1.968-1.734s1.968,0.745,1.968,1.734
			C-1326.858,93.188-1327.72,93.9-1328.826,93.9z"/>
	</g>
	<g>
		<path d="M-1328.707,96.101c-1.276,0-2.198-0.73-2.198-1.737c0-1.093,0.901-1.852,2.198-1.852s2.198,0.759,2.198,1.852
			C-1326.508,95.371-1327.43,96.101-1328.707,96.101z"/>
	</g>
	<g>
		<path d="M-1328.826,90.889c-0.64,0-1.157-0.518-1.157-1.157V87.76c0-0.64,0.517-1.155,1.157-1.155c0.64,0,1.157,0.516,1.157,1.155
			v1.973C-1327.669,90.372-1328.186,90.889-1328.826,90.889z"/>
	</g>
	<g>
		<path d="M-1323.029,81.387c-0.235,0-0.474-0.072-0.676-0.215l-0.945-0.681l-0.947,0.681c-0.409,0.285-0.953,0.285-1.356-0.005
			c-0.401-0.29-0.575-0.811-0.425-1.284l0.342-1.09l-0.994-0.782c-0.396-0.313-0.549-0.847-0.365-1.32
			c0.179-0.476,0.637-0.764,1.149-0.748l1.101,0.064l0.401-1.145c0.163-0.474,0.577-0.725,1.121-0.776
			c0.505,0.013,0.942,0.347,1.087,0.831l0.316,1.09l1.054-0.064c0.505-0.016,0.971,0.271,1.149,0.748
			c0.184,0.474,0.031,1.007-0.365,1.32l-0.958,0.751l0.396,1.062c0.179,0.477,0.025,1.015-0.381,1.325
			C-1322.532,81.307-1322.778,81.387-1323.029,81.387z"/>
	</g>
	<g>
		<path d="M-1327.314,88.803c-0.72,0-1.416-0.145-1.977-0.259c-0.174-0.036-0.334-0.108-0.464-0.21
			c-0.176,0.023-0.375-0.01-0.557-0.085c-3.301-1.372-5.349-4.401-5.349-7.904c0-4.536,3.547-8.202,8.08-8.342
			c0.588-0.063,1.01,0.334,1.152,0.849c0.143,0.513-0.083,1.057-0.549,1.318c-1.499,0.839-2.429,2.454-2.429,4.207
			c0,2.791,2.19,4.981,4.986,4.981c1.137,0,2.274-0.376,3.117-1.028c0.425-0.331,1.013-0.318,1.43,0.003
			c0.419,0.331,0.557,0.906,0.334,1.393C-1320.942,86.809-1323.995,88.803-1327.314,88.803z M-1329.056,86.253
			c0.075,0,0.155,0.005,0.235,0.025c1.554,0.301,3.211,0.153,4.536-0.605c-0.049,0-0.093,0-0.135,0
			c-4.028,0-7.301-3.273-7.301-7.296c0-0.919,0.171-1.813,0.497-2.641c-1.305,1.105-2.123,2.757-2.123,4.608
			c0,2.589,1.468,4.743,3.925,5.766c0.091,0.039,0.179,0.088,0.254,0.147C-1329.132,86.253-1329.095,86.253-1329.056,86.253z"/>
	</g>
	<g>
		<path d="M-1302.275,230.85h-51.937c-2.493,0-4.521-2.022-4.521-4.516c0-2.387,2.066-4.401,4.521-4.401h51.937
			c2.454,0,4.522,2.015,4.522,4.401C-1297.753,228.828-1299.782,230.85-1302.275,230.85z M-1354.212,224.246
			c-1.196,0-2.208,0.96-2.208,2.089c0,1.212,0.991,2.201,2.208,2.201h51.937c1.217,0,2.208-0.989,2.208-2.201
			c0-1.129-1.01-2.089-2.208-2.089H-1354.212z"/>
	</g>
	<g>
		<path d="M-1299.142,297.011h-58.199c-2.688,0-4.87-2.18-4.87-4.862c0-2.592,2.274-4.867,4.87-4.867h58.199
			c2.684,0,4.864,2.183,4.864,4.867C-1294.278,294.875-1296.414,297.011-1299.142,297.011z M-1357.341,289.595
			c-1.336,0-2.556,1.217-2.556,2.553c0,1.38,1.173,2.548,2.556,2.548h58.199c1.452,0,2.55-1.098,2.55-2.548
			c0-1.385-1.17-2.553-2.55-2.553H-1357.341z"/>
	</g>
	<g>
		<path d="M-1198.164,212.546h-85.213c-3.646,0-6.607-2.962-6.607-6.604c0-3.643,2.962-6.6,6.607-6.6h85.213
			c3.643,0,6.604,2.957,6.604,6.6C-1191.561,209.584-1194.522,212.546-1198.164,212.546z M-1283.378,201.656
			c-2.364,0-4.293,1.924-4.293,4.285c0,2.366,1.929,4.29,4.293,4.29h85.213c2.365,0,4.29-1.924,4.29-4.29
			c0-2.361-1.925-4.285-4.29-4.285H-1283.378z"/>
	</g>
	<g>
		<path d="M-1197.934,305.586h-85.208c-3.646,0-6.608-2.962-6.608-6.603c0-3.643,2.962-6.605,6.608-6.605h85.208
			c3.646,0,6.608,2.962,6.608,6.605C-1191.325,302.624-1194.287,305.586-1197.934,305.586z M-1283.142,294.693
			c-2.366,0-4.293,1.924-4.293,4.29c0,2.364,1.927,4.29,4.293,4.29h85.208c2.366,0,4.294-1.926,4.294-4.29
			c0-2.366-1.928-4.29-4.294-4.29H-1283.142z"/>
	</g>
	<g>
		<path d="M-1217.527,201.421h-47.417c-0.64,0-1.157-0.518-1.157-1.157v-40.436c0-13.673,11.128-24.793,24.811-24.793
			c13.74,0,24.92,11.12,24.92,24.793v40.436C-1216.37,200.903-1216.887,201.421-1217.527,201.421z M-1263.787,199.106h45.103
			v-39.278c0-12.392-10.143-22.48-22.607-22.48c-12.406,0-22.496,10.089-22.496,22.48V199.106z"/>
	</g>
</g>
</svg>
