<svg version="1.2" xmlns="http://www.w3.org/2000/svg" viewBox="0 0 779 720" width="720" height="665">
	<style>
		.s0 { fill: #34d399 }
	</style>
	<g id="Layer 1">
		<g id="&lt;Group&gt;">
			<g id="&lt;Group&gt;">
				<path id="&lt;Path&gt;" class="s0" d="m315.6 237.9c-0.5 0-1-0.2-1.4-0.5-0.7-0.7-18.3-17.8-16.1-41.4 1.7-17.8 14.1-34.1 36.9-48.7 39.9-25.3 47.2-36.5 47.8-50.8 0-1.1 1-2 2.1-1.9 1.1 0 2 0.9 1.9 2.1-0.6 15.7-8.2 27.8-49.7 54-21.6 13.8-33.4 29.2-34.9 45.6-2.1 21.7 14.6 38 14.8 38.1 0.8 0.8 0.8 2.1 0.1 2.9-0.4 0.4-1 0.6-1.5 0.6z"/>
			</g>
			<g id="&lt;Group&gt;">
				<path id="&lt;Path&gt;" class="s0" d="m454 237.9c-0.5 0-1.1-0.2-1.5-0.6-0.7-0.8-0.7-2.1 0.1-2.9 0.2-0.1 16.9-16.4 14.8-38-1.6-16.5-13.4-31.8-35.1-45.7-41.3-26.3-48.9-38.3-49.5-54-0.1-1.2 0.8-2.1 1.9-2.1 1.1-0.1 2.1 0.8 2.1 1.9 0.6 14.3 7.9 25.5 47.6 50.7 22.9 14.7 35.3 31.1 37 48.8 2.3 23.7-15.2 40.7-16 41.4-0.4 0.3-0.9 0.5-1.4 0.5z"/>
			</g>
			<g id="&lt;Group&gt;">
				<path id="&lt;Compound Path&gt;" class="s0" d="m318.2 711.3c-1.1 0-2-0.9-2-2v-142c0-1.1 0.9-2 2-2 1.2 0 2.1 0.9 2.1 2v142c0 1.1-0.9 2-2.1 2zm0-160.9c-1.1 0-2-1-2-2.1v-142.9c0-1.2 0.9-2.1 2-2.1 1.2 0 2.1 0.9 2.1 2.1v142.9c0 1.1-0.9 2.1-2.1 2.1zm135.6-0.7c-1.1 0-2-0.9-2-2v-142.3c0-1.2 0.9-2.1 2-2.1 1.1 0 2 0.9 2 2.1v142.3c0 1.1-0.9 2-2 2zm0-161.9c-1.1 0-2-0.9-2-2v-124.2h-131.5v123.3c0 1.2-0.9 2.1-2.1 2.1-1.1 0-2-0.9-2-2.1v-125.3c0-1.2 0.9-2.1 2-2.1h135.6c1.1 0 2 0.9 2 2.1v126.2c0 1.1-0.9 2-2 2z"/>
			</g>
			<g id="&lt;Group&gt;">
				<path id="&lt;Compound Path&gt;" class="s0" d="m455 261.6h-137.8c-7.7 0-13.9-6.2-13.9-13.8 0-7.5 6.2-13.7 13.9-13.7h137.8c7.6 0 13.8 6.2 13.8 13.7 0 7.6-6.2 13.8-13.8 13.8zm-137.8-23.5c-5.3 0-9.9 4.5-9.9 9.7 0 5.3 4.6 9.7 9.9 9.7h137.8c5.4 0 9.7-4.3 9.7-9.7 0-5.3-4.3-9.7-9.7-9.7z"/>
			</g>
			<g id="&lt;Group&gt;">
				<path id="&lt;Path&gt;" class="s0" d="m384.6 81.6c-2.3 0-4.2-1.6-4.2-3.6 0-2 1.9-3.7 4.2-3.7 2.3 0 4.2 1.7 4.2 3.7 0 2-1.9 3.6-4.2 3.6z"/>
			</g>
			<g id="&lt;Group&gt;">
				<path id="&lt;Path&gt;" class="s0" d="m385 89.3c-2.9 0-5.2-1.9-5.2-4.2 0-2.2 2.3-4.1 5.2-4.1 2.9 0 5.3 1.9 5.3 4.1 0 2.3-2.4 4.2-5.3 4.2z"/>
			</g>
			<g id="&lt;Group&gt;">
				<path id="&lt;Compound Path&gt;" class="s0" d="m385.2 98c-3.2 0-5.9-2.1-5.9-4.7 0-2.5 2.7-4.6 5.9-4.6 3.3 0 5.9 2.1 5.9 4.6 0 2.6-2.6 4.7-5.9 4.7zm0-5.3c-1.2 0-1.8 0.5-1.8 0.7 0 0 0.6 0.5 1.8 0.5 1.2 0 1.8-0.5 1.8-0.6 0-0.1-0.6-0.6-1.8-0.6z"/>
			</g>
			<g id="&lt;Group&gt;">
				<path id="&lt;Path&gt;" class="s0" d="m384.8 77.6c-1.1 0-2-0.9-2-2.1v-7.6c0-1.2 0.9-2.1 2-2.1 1.1 0 2 0.9 2 2.1v7.6c0 1.2-0.9 2.1-2 2.1z"/>
			</g>
			<g id="&lt;Group&gt;">
				<path id="&lt;Compound Path&gt;" class="s0" d="m407.5 39.9q-0.7 0-1.2-0.3l-5.3-3.8-5.1 3.8c-0.7 0.5-1.6 0.5-2.4 0-0.7-0.5-1-1.5-0.7-2.3l2-6.1-5.1-3.8c-0.7-0.5-1-1.4-0.7-2.3 0.2-0.8 1-1.3 1.9-1.3q0 0 0 0l6.2 0.1 2-6c0.5-1.7 3.3-1.7 3.8 0l2 6 6.4-0.1c0.9 0 1.6 0.5 1.9 1.3 0.3 0.9 0 1.8-0.7 2.3l-5.1 3.8 2 6.1c0.3 0.8 0 1.7-0.7 2.3-0.4 0.2-0.8 0.3-1.2 0.3zm-6.5-8.6q0.6 0 1.2 0.3l1.4 1.1-0.5-1.6c-0.3-0.9 0-1.8 0.7-2.3l1.2-0.8h-1.5c-0.8 0-1.7-0.5-2-1.4l-0.5-1.5-0.5 1.5c-0.3 0.9-1 1.4-2 1.4h-1.3l1.2 0.8c0.6 0.5 0.9 1.4 0.7 2.3l-0.5 1.4 1.2-0.8q0.5-0.4 1.2-0.4z"/>
			</g>
			<g id="&lt;Group&gt;">
				<path id="&lt;Compound Path&gt;" class="s0" d="m390.9 69.1c-2.4 0-5-0.4-7.6-1.1-13.8-4.2-23-16-23-29.5 0-16.4 12.9-29.8 29.3-30.5 0.8 0 1.7 0.6 2 1.4 0.3 0.9-0.1 1.9-0.9 2.4-6.7 4-10.8 11.1-10.8 19.1 0 12.1 9.9 22 22.1 22 5.1 0 10-1.6 13.7-4.6 0.7-0.6 1.8-0.6 2.5 0 0.7 0.5 1 1.5 0.6 2.3-4.7 11.2-15.6 18.5-27.9 18.5zm-8.4-55.8c-10.6 3.5-18.1 13.5-18.1 25.2 0 11.7 8 22 20 25.6 2.2 0.6 4.4 0.9 6.5 0.9 8.1 0 15.6-3.7 20.5-9.7-2.9 1.1-6.1 1.6-9.4 1.6-14.4 0-26.1-11.7-26.1-26 0-6.7 2.4-12.8 6.6-17.6z"/>
			</g>
			<g id="&lt;Group&gt;">
				<path id="&lt;Path&gt;" class="s0" d="m335.8 237.9c-0.6 0-1.2-0.3-1.6-0.8-0.3-0.4-33.3-46 14.8-89.6 28.2-25.3 33.4-36.6 33.8-51 0-1.1 1-2 2.1-1.9 1.1 0 2 0.9 1.9 2-0.4 15.6-5.8 27.6-35 53.9-45.4 41-15.6 82.5-14.3 84.2 0.6 0.9 0.4 2.2-0.5 2.8-0.3 0.3-0.8 0.4-1.2 0.4z"/>
			</g>
			<g id="&lt;Group&gt;">
				<path id="&lt;Path&gt;" class="s0" d="m360.3 237.9c-0.8 0-1.6-0.5-1.9-1.3-0.1-0.4-16.4-45.4 7.4-88.6 14.2-25.4 16.8-36.8 17-51.5 0-1.1 1-2.1 2-1.9 1.1 0 2 0.9 2 2-0.2 15.3-2.9 27.2-17.4 53.3-23 41.5-7.3 84.9-7.2 85.3 0.4 1-0.1 2.2-1.2 2.6q-0.3 0.1-0.7 0.1z"/>
			</g>
			<g id="&lt;Group&gt;">
				<path id="&lt;Path&gt;" class="s0" d="m433.8 237.9c-0.4 0-0.9-0.1-1.2-0.4-0.9-0.6-1.1-1.9-0.5-2.8 1.3-1.7 31.1-43.2-14.3-84.2-29.2-26.3-34.6-38.3-35-53.9-0.1-1.1 0.8-2 1.9-2 1.3-0.1 2.1 0.8 2.1 1.9 0.4 14.4 5.6 25.7 33.7 50.9 48.2 43.7 15.2 89.3 14.9 89.7-0.4 0.5-1 0.8-1.6 0.8z"/>
			</g>
			<g id="&lt;Group&gt;">
				<path id="&lt;Path&gt;" class="s0" d="m409.3 237.9q-0.4 0-0.7-0.1c-1.1-0.4-1.6-1.6-1.2-2.6 0.1-0.4 15.8-43.8-7.2-85.3-14.5-26.1-17.2-38-17.4-53.3 0-1.1 0.9-2 2-2 1.2-0.2 2 0.8 2 1.9 0.2 14.7 2.8 26.1 17 51.5 23.8 43.2 7.5 88.2 7.4 88.6-0.3 0.8-1.1 1.3-1.9 1.3z"/>
			</g>
			<g id="&lt;Group&gt;">
				<path id="&lt;Compound Path&gt;" class="s0" d="m488.8 653.5q0 0-0.1 0c-1.1-0.1-2-1-1.9-2.1l12.7-229.4c0.1-1.1 1-1.9 2.2-1.9 1.1 0.1 1.9 1 1.9 2.2l-12.8 229.3c0 1.1-0.9 1.9-2 1.9zm96.9-87.4c-1 0-1.9-0.8-2-1.9l-6.1-142.2c0-1.1 0.9-2 2-2.1 1 0 2 0.8 2.1 2l6 142.1c0.1 1.1-0.8 2.1-1.9 2.1q0 0-0.1 0zm-83.5-154.1q-0.1 0-0.2 0c-1.1 0-1.9-1-1.9-2.1l4.1-70c0.1-1.1 0.9-1.9 2.1-1.9 1.1 0.1 2 1.1 1.9 2.2l-4 69.9c-0.1 1.1-1 1.9-2 1.9zm76.9-0.2c-1.1 0-2-0.8-2.1-1.9l-3-69.6c0-1.1 0.8-2 1.9-2.1 1.4-0.1 2.1 0.8 2.1 2l3.1 69.5c0 1.1-0.8 2.1-2 2.1q0 0 0 0zm-72.3-80.7q0 0-0.1 0c-1.1 0-2-1-1.9-2.1l4.9-87.3c0-1.1 0.9-2 2-2h60.1c1 0 1.9 0.9 2 2l3.8 87.3c0.1 1.2-0.8 2.1-1.9 2.1q0 0-0.1 0c-1.1 0-2-0.8-2-1.9l-3.8-85.4h-56.2l-4.8 85.4c0 1.1-0.9 1.9-2 1.9z"/>
			</g>
			<g id="&lt;Group&gt;">
				<path id="&lt;Compound Path&gt;" class="s0" d="m554 331.5h-29.4c-1.1 0-2-0.9-2-2v-66.1c0-9.1 7.5-16.6 16.8-16.6 9.1 0 16.6 7.5 16.6 16.6v66.1c0 1.1-0.9 2-2 2zm-27.4-4h25.3v-64.1c0-6.9-5.6-12.5-12.5-12.5-7 0-12.8 5.6-12.8 12.5z"/>
			</g>
			<g id="&lt;Group&gt;">
				<path id="&lt;Compound Path&gt;" class="s0" d="m572.4 243.8h-61.3c-4 0-7.3-3.3-7.3-7.3 0-3.9 3.3-7.3 7.3-7.3h61.3c3.9 0 7.3 3.4 7.3 7.3 0 4-3.4 7.3-7.3 7.3zm-61.3-10.5c-1.8 0-3.3 1.5-3.3 3.2 0 1.7 1.5 3.2 3.3 3.2h61.3c1.7 0 3.2-1.5 3.2-3.2 0-1.7-1.5-3.2-3.2-3.2z"/>
			</g>
			<g id="&lt;Group&gt;">
				<path id="&lt;Compound Path&gt;" class="s0" d="m582.7 342.1h-81.5c-4 0-7.3-3.4-7.3-7.3 0-4 3.3-7.3 7.3-7.3h81.5c3.9 0 7.3 3.3 7.3 7.3 0 3.9-3.4 7.3-7.3 7.3zm-81.5-10.6c-1.8 0-3.3 1.6-3.3 3.3 0 1.7 1.5 3.2 3.3 3.2h81.5c1.7 0 3.2-1.5 3.2-3.2 0-1.7-1.5-3.3-3.2-3.3z"/>
			</g>
			<g id="&lt;Group&gt;">
				<path id="&lt;Path&gt;" class="s0" d="m572.8 233.1q-0.2 0-0.4-0.1c-1.1-0.2-1.8-1.3-1.6-2.4 1.3-6.4 2.5-22.6-16.2-32.3-1-0.6-1.3-1.8-0.8-2.8 0.5-1 1.7-1.3 2.7-0.8 21.1 11 19.8 29.4 18.3 36.8-0.2 0.9-1.1 1.6-2 1.6z"/>
			</g>
			<g id="&lt;Group&gt;">
				<path id="&lt;Path&gt;" class="s0" d="m556 198.5q-0.3 0-0.7-0.1c-0.3-0.1-7.6-2.7-13.8-9.7-0.7-0.8-0.6-2.1 0.2-2.8 0.8-0.8 2.1-0.7 2.9 0.1 5.4 6.2 12 8.5 12 8.6 1.1 0.3 1.7 1.5 1.3 2.5-0.3 0.9-1.1 1.4-1.9 1.4z"/>
			</g>
			<g id="&lt;Group&gt;">
				<path id="&lt;Path&gt;" class="s0" d="m528.9 198.7c-0.8 0-1.5-0.4-1.9-1.2-0.4-1 0-2.2 1-2.7 0.1 0 9.4-4.5 13.3-8.8 0.8-0.8 2.1-0.9 2.9-0.1 0.8 0.7 0.9 2 0.1 2.8-4.4 4.9-14.1 9.6-14.6 9.8q-0.4 0.2-0.8 0.2z"/>
			</g>
			<g id="&lt;Group&gt;">
				<path id="&lt;Path&gt;" class="s0" d="m556 198.9q-0.5 0-0.9-0.2c-0.1-0.1-13.4-6.5-23.4-0.7-1 0.6-2.2 0.3-2.8-0.7-0.5-1-0.2-2.2 0.8-2.8 11.9-6.9 26.6 0.3 27.2 0.6 1 0.5 1.4 1.7 0.9 2.7-0.4 0.7-1.1 1.1-1.8 1.1z"/>
			</g>
			<g id="&lt;Group&gt;">
				<path id="&lt;Path&gt;" class="s0" d="m511.9 232.9c-1 0-1.8-0.7-2-1.7-4.9-24.2 19-36.4 19.3-36.5 1-0.5 2.2-0.1 2.7 0.9 0.5 1 0.1 2.2-0.9 2.7-0.9 0.4-21.4 10.9-17.1 32.1 0.2 1.1-0.5 2.2-1.6 2.4q-0.2 0.1-0.4 0.1z"/>
			</g>
			<g id="&lt;Group&gt;">
				<path id="&lt;Compound Path&gt;" class="s0" d="m543 181.7c-1.6 0-3-1.2-3-2.7 0-1.5 1.4-2.8 3-2.8 1.7 0 3.1 1.3 3.1 2.8 0 1.5-1.4 2.7-3.1 2.7zm0-4c-0.5 0-1 0.5-1 1.2 0 0.8 0.7 1.4 1.1 1.4 0.3 0 0.9-0.6 0.9-1.4 0-0.7-0.5-1.2-1-1.2z"/>
			</g>
			<g id="&lt;Group&gt;">
				<path id="&lt;Path&gt;" class="s0" d="m542.8 185.1c-1.9 0-3.4-1.3-3.4-3 0-1.7 1.5-3 3.4-3 1.9 0 3.5 1.3 3.5 3 0 1.7-1.6 3-3.5 3z"/>
			</g>
			<g id="&lt;Group&gt;">
				<path id="&lt;Path&gt;" class="s0" d="m542.7 189c-2 0-3.7-1.5-3.7-3.2 0-1.8 1.7-3.3 3.7-3.3 2.1 0 3.8 1.5 3.8 3.3 0 1.7-1.7 3.2-3.8 3.2z"/>
			</g>
			<g id="&lt;Group&gt;">
				<path id="&lt;Path&gt;" class="s0" d="m543 179.9c-1 0-1.9-0.8-2-1.9l-0.2-3.5c-0.1-1.1 0.8-2 1.9-2.1 1.1 0 2.1 0.8 2.1 1.9l0.3 3.4c0 1.2-0.8 2.1-1.9 2.2q-0.1 0-0.2 0z"/>
			</g>
			<g id="&lt;Group&gt;">
				<path id="&lt;Path&gt;" class="s0" d="m551.9 163.3c-0.4 0-0.9-0.2-1.3-0.5l-1.3-1.1-1.6 1.2c-0.7 0.5-1.6 0.6-2.4 0.1-0.7-0.5-1-1.4-0.8-2.3l0.6-2-1.6-1.2c-0.7-0.5-1-1.5-0.8-2.3 0.3-0.8 1.1-1.4 2-1.4h2l0.7-1.9c0.3-0.8 1.3-1.3 2-1.3 0.8 0 1.6 0.6 1.8 1.4l0.6 1.8h2c0.8 0 1.6 0.6 1.9 1.4 0.3 0.8-0.1 1.8-0.8 2.3l-1.6 1.2 0.6 2c0.2 0.9-0.1 1.8-0.9 2.3-0.3 0.2-0.7 0.3-1.1 0.3z"/>
			</g>
			<g id="&lt;Group&gt;">
				<path id="&lt;Compound Path&gt;" class="s0" d="m544.7 176c-1.2 0-2.5 0-3.8-0.5q-0.3-0.1-0.5-0.3-0.5 0.1-0.9-0.1c-5.6-2.1-9.4-7.6-9.4-13.6 0-8 6-14.3 14-14.8 1 0.1 1.8 0.6 2.1 1.5 0.3 0.9-0.1 1.9-1 2.3-2.6 1.5-4.2 4.3-4.2 7.5 0 4.8 4 8.7 8.7 8.7 2 0 4-0.6 5.4-1.8 0.8-0.5 1.8-0.5 2.5 0.1 0.8 0.5 1 1.5 0.6 2.4-2.4 5.3-7.6 8.6-13.5 8.6zm-3.1-4.4q0.4 0 0.8 0.1c2 0.8 5.1 0.3 7.3-0.9q0 0 0 0c-7 0-12.7-5.7-12.7-12.8q0-2.4 0.8-4.6c-2.3 2-3.7 4.8-3.7 8.1 0 4.4 2.8 8.3 6.8 9.8q0.3 0.1 0.5 0.3 0.1 0 0.2 0z"/>
			</g>
			<g id="&lt;Group&gt;">
				<path id="&lt;Compound Path&gt;" class="s0" d="m587.1 424h-90.6c-4.2 0-7.7-3.6-7.7-7.7 0-4.3 3.5-7.9 7.7-7.9h90.6c4.4 0 7.9 3.5 7.9 7.9 0 4.1-3.6 7.7-7.9 7.7zm-90.6-11.6c-2 0-3.6 1.8-3.6 3.9 0 1.9 1.7 3.6 3.6 3.6h90.6c2.1 0 3.9-1.6 3.9-3.6 0-2.1-1.7-3.9-3.9-3.9z"/>
			</g>
			<g id="&lt;Group&gt;">
				<path id="&lt;Compound Path&gt;" class="s0" d="m592.6 539.6h-101.4c-4.7 0-8.7-3.8-8.7-8.5 0-4.8 3.9-8.6 8.7-8.6h101.4c4.7 0 8.7 3.9 8.7 8.6 0 4.7-4 8.5-8.7 8.5zm-101.4-13.1c-2.5 0-4.6 2.1-4.6 4.6 0 2.4 2.2 4.5 4.6 4.5h101.4c2.5 0 4.7-2.1 4.7-4.5 0-2.5-2.2-4.6-4.7-4.6z"/>
			</g>
			<g id="&lt;Group&gt;">
				<path id="&lt;Compound Path&gt;" class="s0" d="m289.5 668.2c-1.1 0-2-0.8-2-1.9l-12.8-229.1c0-1.1 0.8-2 1.9-2.1 1.1 0 2.1 0.8 2.2 1.9l12.7 229.1c0.1 1.1-0.8 2.1-1.9 2.1q0 0-0.1 0zm-97.1-87.3q-0.1 0-0.1 0c-1.1-0.1-2-1-1.9-2.1l6.2-142c0.1-1.1 0.8-2 2.1-1.9 1.2 0 2 1 2 2.1l-6.3 142c-0.1 1-0.9 1.9-2 1.9zm83.5-153.9c-1 0-1.9-0.8-2-1.9l-3.8-70c-0.1-1.1 0.8-2 1.9-2.1 1 0 2.1 0.8 2.1 1.9l3.9 70c0 1.1-0.8 2-1.9 2.1q-0.1 0-0.2 0zm-76.6-0.2q-0.1 0-0.1 0c-1.1-0.1-2-1-2-2.1l3.1-69.8c0-1.1 0.7-1.9 2.1-1.9 1.1 0 2 1 1.9 2.1l-3 69.8c-0.1 1-1 1.9-2 1.9zm72.2-80.7c-1.1 0-2-0.8-2-1.9l-4.8-85.5h-56.4l-3.6 85.5c0 1.1-1 1.9-2.1 1.9-1.1 0-2-1-1.9-2.1l3.6-87.4c0.1-1 1-1.9 2-1.9h60.3c1.1 0 2 0.8 2.1 1.9l4.8 87.4c0.1 1.1-0.8 2-1.9 2.1q-0.1 0-0.1 0z"/>
			</g>
			<g id="&lt;Group&gt;">
				<path id="&lt;Compound Path&gt;" class="s0" d="m253.5 346.5h-29.4c-1.1 0-2-0.9-2-2v-66.1c0-9.2 7.6-16.6 16.8-16.6 9.2 0 16.6 7.4 16.6 16.6v66.1c0 1.1-0.9 2-2 2zm-27.3-4h25.3v-64.1c0-6.9-5.7-12.6-12.6-12.6-7 0-12.7 5.7-12.7 12.6z"/>
			</g>
			<g id="&lt;Group&gt;">
				<path id="&lt;Compound Path&gt;" class="s0" d="m267 258.7h-61.1c-3.9 0-7.3-3.3-7.3-7.2 0-4.1 3.2-7.3 7.3-7.3h61.1c4.2 0 7.3 3.1 7.3 7.3 0 4.1-3.2 7.2-7.3 7.2zm-61.1-10.5c-1.8 0-3.2 1.5-3.2 3.3 0 1.7 1.5 3.2 3.2 3.2h61.1c1.9 0 3.3-1.4 3.3-3.2 0-2-1.3-3.3-3.3-3.3z"/>
			</g>
			<g id="&lt;Group&gt;">
				<path id="&lt;Compound Path&gt;" class="s0" d="m277.2 357h-81.6c-4.1 0-7.3-3.2-7.3-7.2 0-4.1 3.2-7.3 7.3-7.3h81.6c3.9 0 7.2 3.3 7.2 7.3 0 3.9-3.3 7.2-7.2 7.2zm-81.6-10.5c-1.8 0-3.2 1.4-3.2 3.3 0 1.8 1.4 3.2 3.2 3.2h81.6c1.7 0 3.2-1.5 3.2-3.2 0-1.8-1.5-3.3-3.2-3.3z"/>
			</g>
			<g id="&lt;Group&gt;">
				<path id="&lt;Path&gt;" class="s0" d="m205.5 248c-0.9 0-1.7-0.6-1.9-1.5-1.4-5.7-4-25.2 18.2-37.1 0.9-0.5 2.2-0.1 2.7 0.9 0.5 1 0.2 2.2-0.8 2.7-19.6 10.5-17.4 27.6-16.2 32.6 0.2 1-0.4 2.1-1.5 2.4q-0.2 0-0.5 0z"/>
			</g>
			<g id="&lt;Group&gt;">
				<path id="&lt;Path&gt;" class="s0" d="m222.3 213.5c-0.8 0-1.6-0.5-1.9-1.3-0.4-1.1 0.2-2.2 1.2-2.6 0.1-0.1 6.6-2.6 12.2-8.6 0.8-0.9 2-0.9 2.9-0.1 0.8 0.7 0.8 2 0 2.8-6.3 6.7-13.4 9.5-13.7 9.6q-0.3 0.2-0.7 0.2z"/>
			</g>
			<g id="&lt;Group&gt;">
				<path id="&lt;Path&gt;" class="s0" d="m249.4 213.7q-0.4 0-0.9-0.3c-0.4-0.2-10-5-14.5-9.7-0.8-0.8-0.7-2.1 0.1-2.8 0.8-0.8 2.1-0.8 2.8 0 4 4.2 13.4 8.9 13.4 8.9 1 0.5 1.4 1.7 1 2.7-0.4 0.7-1.1 1.2-1.9 1.2z"/>
			</g>
			<g id="&lt;Group&gt;">
				<path id="&lt;Path&gt;" class="s0" d="m222.1 213.7c-0.7 0-1.5-0.5-1.8-1.2-0.5-1-0.1-2.2 0.9-2.7 0.6-0.3 15.3-7.3 27.4-0.5 1 0.5 1.3 1.7 0.8 2.7-0.6 1-1.8 1.3-2.8 0.8-10.2-5.7-23.5 0.6-23.6 0.7q-0.4 0.2-0.9 0.2z"/>
			</g>
			<g id="&lt;Group&gt;">
				<path id="&lt;Path&gt;" class="s0" d="m266.2 247.8q-0.2 0-0.4 0c-1.1-0.2-1.8-1.3-1.5-2.4 4.4-21.5-16.7-32-17-32.1-1-0.5-1.4-1.7-0.9-2.7 0.5-1 1.7-1.5 2.7-1 0.2 0.1 24.2 12.1 19.1 36.6-0.2 1-1 1.6-2 1.6z"/>
			</g>
			<g id="&lt;Group&gt;">
				<path id="&lt;Compound Path&gt;" class="s0" d="m235.3 196.5c-1.7 0-3.1-1.2-3.1-2.8 0-1.5 1.4-2.7 3.1-2.7 1.6 0 3 1.2 3 2.7 0 1.6-1.4 2.8-3 2.8zm-0.1-4.1c-0.4 0.1-0.9 0.6-0.9 1.4 0 0.1 0 1.3 1 1.3 0.5 0 1-0.5 1-1.3 0-0.8-0.7-1.3-1-1.4q0 0 0 0 0 0-0.1 0z"/>
			</g>
			<g id="&lt;Group&gt;">
				<path id="&lt;Path&gt;" class="s0" d="m235.3 199.9c-1.9 0-3.5-1.3-3.5-2.9 0-1.6 1.6-3 3.5-3 1.9 0 3.4 1.4 3.4 3 0 1.6-1.5 2.9-3.4 2.9z"/>
			</g>
			<g id="&lt;Group&gt;">
				<path id="&lt;Path&gt;" class="s0" d="m235.5 203.7c-2.1 0-3.9-1.4-3.9-3.1 0-1.7 1.8-3.1 3.9-3.1 2.1 0 3.8 1.4 3.8 3.1 0 1.7-1.7 3.1-3.8 3.1z"/>
			</g>
			<g id="&lt;Group&gt;">
				<path id="&lt;Path&gt;" class="s0" d="m235.3 194.7c-1.1 0-2.1-1-2.1-2.1v-3.4c0-1.1 1-2 2.1-2 1.1 0 2 0.9 2 2v3.4c0 1.1-0.9 2.1-2 2.1z"/>
			</g>
			<g id="&lt;Group&gt;">
				<path id="&lt;Path&gt;" class="s0" d="m245.4 178.1c-0.4 0-0.8-0.2-1.2-0.4l-1.6-1.2-1.7 1.2c-0.7 0.5-1.7 0.5-2.4 0-0.7-0.5-1-1.4-0.7-2.3l0.6-1.9-1.7-1.3c-0.7-0.6-1-1.5-0.7-2.3 0.3-0.9 1.1-1.4 2-1.3l1.9 0.1 0.7-2c0.3-0.8 1.1-1.3 2-1.4 0.9 0 1.6 0.6 1.9 1.5l0.6 1.9 1.8-0.1c0.9-0.1 1.7 0.4 2 1.3 0.3 0.8 0.1 1.7-0.6 2.3l-1.7 1.3 0.7 1.8c0.3 0.9 0 1.8-0.7 2.4q-0.5 0.4-1.2 0.4z"/>
			</g>
			<g id="&lt;Group&gt;">
				<path id="&lt;Compound Path&gt;" class="s0" d="m237.9 191c-1.2 0-2.5-0.2-3.4-0.4q-0.5-0.1-0.9-0.4c-0.3 0-0.6 0-0.9-0.2-5.8-2.4-9.4-7.6-9.4-13.8 0-7.9 6.2-14.3 14.1-14.5 1.1-0.1 1.8 0.6 2.1 1.5 0.2 0.9-0.2 1.8-1 2.3-2.6 1.4-4.2 4.3-4.2 7.3 0 4.9 3.8 8.7 8.7 8.7 1.9 0 3.9-0.6 5.4-1.8 0.7-0.6 1.8-0.5 2.5 0 0.7 0.6 1 1.6 0.6 2.4-2.5 5.4-7.8 8.9-13.6 8.9zm-3-4.4q0.2 0 0.4 0c2.7 0.5 5.6 0.3 7.9-1.1q-0.1 0-0.2 0c-7.1 0-12.8-5.7-12.8-12.7 0-1.6 0.3-3.1 0.9-4.6-2.3 1.9-3.7 4.8-3.7 8 0 4.6 2.5 8.3 6.8 10.1q0.3 0.1 0.5 0.3 0.1 0 0.2 0z"/>
			</g>
			<g id="&lt;Group&gt;">
				<path id="&lt;Compound Path&gt;" class="s0" d="m281.6 438.9h-90.6c-4.4 0-7.9-3.5-7.9-7.9 0-4.1 3.6-7.6 7.9-7.6h90.6c4.3 0 7.9 3.5 7.9 7.6 0 4.4-3.5 7.9-7.9 7.9zm-90.6-11.5c-2.1 0-3.9 1.7-3.9 3.6 0 2.2 1.7 3.9 3.9 3.9h90.6c2.1 0 3.9-1.7 3.9-3.9 0-1.9-1.8-3.6-3.9-3.6z"/>
			</g>
			<g id="&lt;Group&gt;">
				<path id="&lt;Compound Path&gt;" class="s0" d="m287.1 554.4h-101.6c-4.7 0-8.5-3.8-8.5-8.5 0-4.5 4-8.5 8.5-8.5h101.6c4.7 0 8.5 3.8 8.5 8.5 0 4.8-3.8 8.5-8.5 8.5zm-101.6-12.9c-2.3 0-4.5 2.1-4.5 4.4 0 2.4 2.1 4.5 4.5 4.5h101.6c2.5 0 4.4-2 4.4-4.5 0-2.4-2-4.4-4.4-4.4z"/>
			</g>
			<g id="&lt;Group&gt;">
				<path id="&lt;Compound Path&gt;" class="s0" d="m463.3 407h-148.7c-6.4 0-11.5-5.2-11.5-11.5 0-6.4 5.1-11.6 11.5-11.6h148.7c6.4 0 11.5 5.2 11.5 11.6 0 6.3-5.1 11.5-11.5 11.5zm-148.7-19c-4.1 0-7.5 3.3-7.5 7.5 0 4.1 3.4 7.4 7.5 7.4h148.7c4.1 0 7.5-3.3 7.5-7.4 0-4.2-3.4-7.5-7.5-7.5z"/>
			</g>
			<g id="&lt;Group&gt;">
				<path id="&lt;Compound Path&gt;" class="s0" d="m463.7 569.4h-148.7c-6.4 0-11.5-5.2-11.5-11.6 0-6.3 5.1-11.5 11.5-11.5h148.7c6.4 0 11.5 5.2 11.5 11.5 0 6.4-5.1 11.6-11.5 11.6zm-148.7-19c-4.1 0-7.5 3.3-7.5 7.4 0 4.2 3.4 7.5 7.5 7.5h148.7c4.1 0 7.5-3.3 7.5-7.5 0-4.1-3.4-7.4-7.5-7.4z"/>
			</g>
			<g id="&lt;Group&gt;">
				<path id="&lt;Compound Path&gt;" class="s0" d="m429.5 387.6h-82.7c-1.2 0-2.1-0.9-2.1-2.1v-70.5c0-23.9 19.5-43.3 43.3-43.3 24 0 43.5 19.4 43.5 43.3v70.5c0 1.2-0.9 2.1-2 2.1zm-80.7-4.1h78.7v-68.5c0-21.7-17.7-39.3-39.5-39.3-21.6 0-39.2 17.6-39.2 39.3z"/>
			</g>
		</g>
	</g>
</svg>
