<?xml version="1.0" encoding="utf-8"?>
<!-- Generator: Adobe Illustrator 27.5.0, SVG Export Plug-In . SVG Version: 6.00 Build 0)  -->
<svg version="1.1" xmlns="http://www.w3.org/2000/svg" xmlns:xlink="http://www.w3.org/1999/xlink" x="0px" y="0px"
	 viewBox="0 0 750 500" style="enable-background:new 0 0 750 500;" xml:space="preserve">
<g id="Background_Simple">
	<g>
		<path style="fill:#92E3A9;" d="M582.749,108.211c-26.607-20.828-55.682-38.64-84.393-53.363
			c-34.936-17.915-75.972-30.058-114.451-16.63c-59.813,20.873-90.244,84.852-118.933,136.7
			c-3.227,5.833-14.612,27.923-19.87,17.951c-1.705-3.235,0.778-11.628,0.344-15.453c-2.131-18.773-17.34-21.111-33.72-17.416
			C155.937,172.585,64.558,311.02,66.482,364.264c1.924,53.244,31.742,101.648,84.646,109.392s498.258,0,498.258,0
			s25.009-27.106,25.971-75.51c0.962-48.404-49.056-55.18-60.599-79.382c-7.926-16.618,26.057-37.758,35.239-46.977
			c27.097-27.206,27.148-55.278,5.515-87.486C636.25,155.625,610.88,130.232,582.749,108.211z"/>
		<path style="opacity:0.7;fill:#FFFFFF;" d="M582.749,108.211c-26.607-20.828-55.682-38.64-84.393-53.363
			c-34.936-17.915-75.972-30.058-114.451-16.63c-59.813,20.873-90.244,84.852-118.933,136.7
			c-3.227,5.833-14.612,27.923-19.87,17.951c-1.705-3.235,0.778-11.628,0.344-15.453c-2.131-18.773-17.34-21.111-33.72-17.416
			C155.937,172.585,64.558,311.02,66.482,364.264c1.924,53.244,31.742,101.648,84.646,109.392s498.258,0,498.258,0
			s25.009-27.106,25.971-75.51c0.962-48.404-49.056-55.18-60.599-79.382c-7.926-16.618,26.057-37.758,35.239-46.977
			c27.097-27.206,27.148-55.278,5.515-87.486C636.25,155.625,610.88,130.232,582.749,108.211z"/>
	</g>
</g>
<g id="Clouds">
	<g>
		<path style="fill:none;stroke:#263238;stroke-linecap:round;stroke-linejoin:round;stroke-miterlimit:10;" d="M215.893,131.73
			c-1.387,0.133-2.898,0.486-4.571,1.13c-13.379,5.146-12.35,12.35-18.524,14.408c-6.175,2.058-5.146-7.204-16.466-3.087
			c-11.32,4.117-14.408,13.379-14.408,13.379h387.981c0,0-31.466-23.865-48.944-22.991s-29.846,13.089-40.504,9.944
			c0,0,0.37-10.543-5.412-23.084"/>
		<path style="fill:none;stroke:#263238;stroke-linecap:round;stroke-linejoin:round;stroke-miterlimit:10;" d="M450.154,112.785
			c-7.626-11.183-20.88-22.424-43.908-28.294c-49.372-12.585-81.72,46.311-94.069,51.456c-12.35,5.146-23.67-22.641-44.252-17.495
			c-20.583,5.146-17.495,16.466-28.816,19.553c-7.124,1.943-10.988-2.635-16.207-5.014"/>
		<path style="fill:none;stroke:#263238;stroke-linecap:round;stroke-linejoin:round;stroke-miterlimit:10;" d="M595.988,200.66
			c-14.521-1.936-22.266,7.745-22.266,7.745s-14.521-24.202-35.819-25.17c-21.298-0.968-23.234,20.329-32.914,22.266
			c-7.261,1.452-10.165-3.086-15.656-4.22"/>
		<path style="fill:none;stroke:#263238;stroke-linecap:round;stroke-linejoin:round;stroke-miterlimit:10;" d="M478.057,203.268
			c-7.5,3.252-11.439,8.041-14.695,8.041c-3.872,0-5.808-4.84-14.521-2.904c-8.713,1.936-12.585,7.745-12.585,7.745h172.317
			c0,0,1.022-7.157-3.991-11.812"/>
	</g>
</g>
<g id="Trees">
	<g>
		<path style="fill:#92E3A9;" d="M696.572,428.698c0,10.723-6.343,19.415-14.168,19.415c-7.825,0-14.168-8.693-14.168-19.415
			c0-10.723,6.343-47.576,14.168-47.576C690.229,381.122,696.572,417.975,696.572,428.698z"/>
		<path style="opacity:0.5;fill:#FFFFFF;" d="M696.572,428.698c0,10.723-6.343,19.415-14.168,19.415
			c-7.825,0-14.168-8.693-14.168-19.415c0-10.723,6.343-47.576,14.168-47.576C690.229,381.122,696.572,417.975,696.572,428.698z"/>
		<polygon style="fill:#B2B2B2;" points="690.348,434.308 686.058,435.895 686.919,433.313 684.868,436.335 682.82,437.092 
			682.674,428.612 690.127,418.711 686.133,422.705 686.808,419.927 684.897,423.94 682.632,426.205 682.404,412.956 
			681.592,432.279 674.529,424.795 678.409,430.069 674.75,429.662 679.269,431.238 681.508,434.281 681.116,443.598 
			678.512,441.83 681.035,445.526 679.839,474 683.456,474 682.843,438.445 		"/>
		<g>
			<path style="fill:#FFFFFF;" d="M690.198,412.998c0,0,0.131,1.302-0.58,2.257c-0.712,0.955-1.996,1.203-1.996,1.203
				s-0.131-1.302,0.581-2.257C688.914,413.246,690.198,412.998,690.198,412.998z"/>
			<path style="fill:#FFFFFF;" d="M694.468,418.998c0,0,0.131,1.302-0.58,2.257c-0.711,0.955-1.996,1.203-1.996,1.203
				s-0.131-1.302,0.581-2.257C693.184,419.245,694.468,418.998,694.468,418.998z"/>
			<path style="fill:#FFFFFF;" d="M694.466,430.679c0,0-0.315,1.27-1.306,1.93c-0.992,0.66-2.284,0.461-2.284,0.461
				s0.315-1.27,1.306-1.93C693.173,430.48,694.466,430.679,694.466,430.679z"/>
			<path style="fill:#FFFFFF;" d="M671.015,430.679c0,0,0.315,1.27,1.306,1.93c0.992,0.66,2.285,0.461,2.285,0.461
				s-0.315-1.27-1.306-1.93C672.308,430.48,671.015,430.679,671.015,430.679z"/>
			<path style="fill:#FFFFFF;" d="M689.534,425.83c0,0,0.131,1.302-0.581,2.257c-0.711,0.956-1.996,1.203-1.996,1.203
				s-0.131-1.302,0.58-2.257C688.25,426.078,689.534,425.83,689.534,425.83z"/>
			<path style="fill:#FFFFFF;" d="M688.428,406.471c0,0,0.131,1.302-0.581,2.257c-0.711,0.956-1.996,1.203-1.996,1.203
				s-0.131-1.302,0.58-2.257C687.144,406.719,688.428,406.471,688.428,406.471z"/>
			<path style="fill:#FFFFFF;" d="M685.884,411.449c0,0,0.131,1.302-0.58,2.257c-0.711,0.956-1.996,1.203-1.996,1.203
				s-0.131-1.302,0.581-2.257C684.599,411.697,685.884,411.449,685.884,411.449z"/>
			<path style="fill:#FFFFFF;" d="M691.924,407.825c0,0,0.131,1.302-0.58,2.257c-0.711,0.956-1.996,1.203-1.996,1.203
				s-0.131-1.302,0.58-2.257C690.639,408.073,691.924,407.825,691.924,407.825z"/>
			<path style="fill:#FFFFFF;" d="M672.297,407.825c0,0-0.131,1.302,0.581,2.257c0.711,0.956,1.996,1.203,1.996,1.203
				s0.131-1.302-0.58-2.257C673.581,408.073,672.297,407.825,672.297,407.825z"/>
			<path style="fill:#FFFFFF;" d="M688.981,400.387c0,0,0.131,1.302-0.581,2.257c-0.711,0.956-1.996,1.203-1.996,1.203
				s-0.131-1.302,0.581-2.257C687.697,400.635,688.981,400.387,688.981,400.387z"/>
			<path style="fill:#FFFFFF;" d="M687.731,393.924c0,0,0.454,1.227,0.005,2.331c-0.449,1.104-1.63,1.666-1.63,1.666
				s-0.454-1.227-0.005-2.331C686.55,394.487,687.731,393.924,687.731,393.924z"/>
			<path style="fill:#FFFFFF;" d="M678.772,392.236c0,0,1.159,0.607,1.565,1.727c0.406,1.12-0.094,2.329-0.094,2.329
				s-1.159-0.607-1.565-1.727C678.271,393.444,678.772,392.236,678.772,392.236z"/>
			<path style="fill:#FFFFFF;" d="M682.95,399.964c0,0,0.826,1.015,0.757,2.204c-0.068,1.189-1.005,2.103-1.005,2.103
				s-0.826-1.015-0.757-2.204C682.013,400.878,682.95,399.964,682.95,399.964z"/>
			<path style="fill:#FFFFFF;" d="M682.728,388.46c0,0,0.826,1.015,0.757,2.204c-0.068,1.189-1.005,2.103-1.005,2.103
				s-0.826-1.015-0.757-2.204C681.792,389.373,682.728,388.46,682.728,388.46z"/>
			<path style="fill:#FFFFFF;" d="M673.352,412.998c0,0-0.131,1.302,0.581,2.257c0.711,0.955,1.996,1.203,1.996,1.203
				s0.131-1.302-0.58-2.257C674.636,413.246,673.352,412.998,673.352,412.998z"/>
			<path style="fill:#FFFFFF;" d="M670.918,420.078c0,0-0.131,1.302,0.58,2.257c0.711,0.956,1.996,1.203,1.996,1.203
				s0.131-1.302-0.58-2.257C672.203,420.325,670.918,420.078,670.918,420.078z"/>
			<path style="fill:#FFFFFF;" d="M677.378,422.648c0,0-0.131,1.302,0.581,2.257c0.711,0.956,1.996,1.203,1.996,1.203
				s0.131-1.302-0.58-2.257C678.663,422.896,677.378,422.648,677.378,422.648z"/>
			<path style="fill:#FFFFFF;" d="M679.144,412.838c0,0-0.498,1.21-0.09,2.329c0.408,1.119,1.568,1.724,1.568,1.724
				s0.498-1.21,0.09-2.329C680.304,413.444,679.144,412.838,679.144,412.838z"/>
			<path style="fill:#FFFFFF;" d="M674.57,438.942c0,0,1.308,0.024,2.202-0.763c0.894-0.787,1.036-2.088,1.036-2.088
				s-1.308-0.024-2.202,0.763C674.711,437.641,674.57,438.942,674.57,438.942z"/>
			<path style="fill:#FFFFFF;" d="M687.121,437.511c0,0,0.355,1.259,1.368,1.887c1.012,0.628,2.298,0.388,2.298,0.388
				s-0.355-1.259-1.368-1.887C688.407,437.27,687.121,437.511,687.121,437.511z"/>
			<path style="fill:#FFFFFF;" d="M676.029,406.471c0,0-0.131,1.302,0.58,2.257c0.711,0.956,1.996,1.203,1.996,1.203
				s0.131-1.302-0.58-2.257C677.314,406.719,676.029,406.471,676.029,406.471z"/>
			<path style="fill:#FFFFFF;" d="M676.006,400.719c0,0-0.131,1.302,0.58,2.257c0.711,0.956,1.996,1.203,1.996,1.203
				s0.131-1.302-0.581-2.257C677.291,400.967,676.006,400.719,676.006,400.719z"/>
		</g>
	</g>
	<g>
		<path style="fill:#92E3A9;" d="M87.653,428.698c0,10.723-6.343,19.415-14.168,19.415c-7.825,0-14.168-8.693-14.168-19.415
			c0-10.723,6.343-47.576,14.168-47.576C81.31,381.122,87.653,417.975,87.653,428.698z"/>
		<path style="opacity:0.5;fill:#FFFFFF;" d="M87.653,428.698c0,10.723-6.343,19.415-14.168,19.415
			c-7.825,0-14.168-8.693-14.168-19.415c0-10.723,6.343-47.576,14.168-47.576C81.31,381.122,87.653,417.975,87.653,428.698z"/>
		<polygon style="fill:#B2B2B2;" points="81.429,434.308 77.139,435.895 78,433.313 75.949,436.335 73.901,437.092 73.755,428.612 
			81.208,418.711 77.214,422.705 77.889,419.927 75.978,423.94 73.713,426.205 73.485,412.956 72.673,432.279 65.61,424.795 
			69.49,430.069 65.831,429.662 70.35,431.238 72.589,434.281 72.197,443.598 69.593,441.83 72.116,445.526 70.92,474 74.537,474 
			73.924,438.445 		"/>
		<g>
			<path style="fill:#FFFFFF;" d="M81.279,412.998c0,0,0.131,1.302-0.58,2.257c-0.711,0.955-1.996,1.203-1.996,1.203
				s-0.131-1.302,0.58-2.257C79.994,413.246,81.279,412.998,81.279,412.998z"/>
			<path style="fill:#FFFFFF;" d="M85.549,418.998c0,0,0.131,1.302-0.58,2.257c-0.712,0.955-1.996,1.203-1.996,1.203
				s-0.131-1.302,0.58-2.257C84.265,419.245,85.549,418.998,85.549,418.998z"/>
			<path style="fill:#FFFFFF;" d="M85.547,430.679c0,0-0.315,1.27-1.306,1.93c-0.992,0.66-2.285,0.461-2.285,0.461
				s0.315-1.27,1.306-1.93C84.255,430.48,85.547,430.679,85.547,430.679z"/>
			<path style="fill:#FFFFFF;" d="M62.096,430.679c0,0,0.315,1.27,1.306,1.93c0.992,0.66,2.285,0.461,2.285,0.461
				s-0.315-1.27-1.306-1.93C63.389,430.48,62.096,430.679,62.096,430.679z"/>
			<path style="fill:#FFFFFF;" d="M80.615,425.83c0,0,0.131,1.302-0.581,2.257c-0.711,0.956-1.996,1.203-1.996,1.203
				s-0.131-1.302,0.58-2.257C79.331,426.078,80.615,425.83,80.615,425.83z"/>
			<path style="fill:#FFFFFF;" d="M79.509,406.471c0,0,0.131,1.302-0.58,2.257c-0.712,0.956-1.996,1.203-1.996,1.203
				s-0.131-1.302,0.58-2.257C78.225,406.719,79.509,406.471,79.509,406.471z"/>
			<path style="fill:#FFFFFF;" d="M76.965,411.449c0,0,0.131,1.302-0.58,2.257c-0.712,0.956-1.996,1.203-1.996,1.203
				s-0.131-1.302,0.581-2.257C75.68,411.697,76.965,411.449,76.965,411.449z"/>
			<path style="fill:#FFFFFF;" d="M83.005,407.825c0,0,0.131,1.302-0.58,2.257c-0.712,0.956-1.996,1.203-1.996,1.203
				s-0.131-1.302,0.58-2.257C81.72,408.073,83.005,407.825,83.005,407.825z"/>
			<path style="fill:#FFFFFF;" d="M63.378,407.825c0,0-0.131,1.302,0.58,2.257c0.712,0.956,1.996,1.203,1.996,1.203
				s0.131-1.302-0.58-2.257C64.662,408.073,63.378,407.825,63.378,407.825z"/>
			<path style="fill:#FFFFFF;" d="M80.062,400.387c0,0,0.131,1.302-0.581,2.257c-0.711,0.956-1.996,1.203-1.996,1.203
				s-0.131-1.302,0.58-2.257C78.778,400.635,80.062,400.387,80.062,400.387z"/>
			<path style="fill:#FFFFFF;" d="M78.812,393.924c0,0,0.454,1.227,0.005,2.331c-0.449,1.104-1.63,1.666-1.63,1.666
				s-0.454-1.227-0.005-2.331C77.631,394.487,78.812,393.924,78.812,393.924z"/>
			<path style="fill:#FFFFFF;" d="M69.853,392.236c0,0,1.159,0.607,1.565,1.727c0.406,1.12-0.094,2.329-0.094,2.329
				s-1.159-0.607-1.565-1.727C69.352,393.444,69.853,392.236,69.853,392.236z"/>
			<path style="fill:#FFFFFF;" d="M74.031,399.964c0,0,0.826,1.015,0.757,2.204c-0.069,1.189-1.005,2.103-1.005,2.103
				s-0.826-1.015-0.757-2.204C73.094,400.878,74.031,399.964,74.031,399.964z"/>
			<path style="fill:#FFFFFF;" d="M73.809,388.46c0,0,0.826,1.015,0.757,2.204c-0.068,1.189-1.005,2.103-1.005,2.103
				s-0.826-1.015-0.757-2.204C72.873,389.373,73.809,388.46,73.809,388.46z"/>
			<path style="fill:#FFFFFF;" d="M64.433,412.998c0,0-0.131,1.302,0.58,2.257c0.712,0.955,1.996,1.203,1.996,1.203
				s0.131-1.302-0.58-2.257C65.717,413.246,64.433,412.998,64.433,412.998z"/>
			<path style="fill:#FFFFFF;" d="M61.999,420.078c0,0-0.131,1.302,0.58,2.257c0.712,0.956,1.996,1.203,1.996,1.203
				s0.131-1.302-0.58-2.257C63.284,420.325,61.999,420.078,61.999,420.078z"/>
			<path style="fill:#FFFFFF;" d="M68.459,422.648c0,0-0.131,1.302,0.58,2.257c0.711,0.956,1.996,1.203,1.996,1.203
				s0.131-1.302-0.58-2.257C69.744,422.896,68.459,422.648,68.459,422.648z"/>
			<path style="fill:#FFFFFF;" d="M70.225,412.838c0,0-0.498,1.21-0.09,2.329c0.408,1.119,1.568,1.724,1.568,1.724
				s0.498-1.21,0.09-2.329C71.385,413.444,70.225,412.838,70.225,412.838z"/>
			<path style="fill:#FFFFFF;" d="M65.651,438.942c0,0,1.308,0.024,2.202-0.763c0.894-0.787,1.035-2.088,1.035-2.088
				s-1.308-0.024-2.202,0.763C65.792,437.641,65.651,438.942,65.651,438.942z"/>
			<path style="fill:#FFFFFF;" d="M78.202,437.511c0,0,0.355,1.259,1.368,1.887c1.012,0.628,2.298,0.388,2.298,0.388
				s-0.355-1.259-1.368-1.887C79.488,437.27,78.202,437.511,78.202,437.511z"/>
			<path style="fill:#FFFFFF;" d="M67.11,406.471c0,0-0.131,1.302,0.58,2.257c0.712,0.956,1.996,1.203,1.996,1.203
				s0.131-1.302-0.58-2.257C68.395,406.719,67.11,406.471,67.11,406.471z"/>
			<path style="fill:#FFFFFF;" d="M67.088,400.719c0,0-0.131,1.302,0.58,2.257c0.711,0.956,1.996,1.203,1.996,1.203
				s0.131-1.302-0.58-2.257C68.372,400.967,67.088,400.719,67.088,400.719z"/>
		</g>
	</g>
	<g>
		<path style="fill:#92E3A9;" d="M51.927,441.723c0,7.64-4.519,13.833-10.094,13.833c-5.575,0-10.095-6.193-10.095-13.833
			c0-7.64,4.519-33.898,10.095-33.898C47.408,407.825,51.927,434.083,51.927,441.723z"/>
		<path style="opacity:0.5;fill:#FFFFFF;" d="M51.927,441.723c0,7.64-4.519,13.833-10.094,13.833
			c-5.575,0-10.095-6.193-10.095-13.833c0-7.64,4.519-33.898,10.095-33.898C47.408,407.825,51.927,434.083,51.927,441.723z"/>
		<polygon style="fill:#B2B2B2;" points="47.493,445.72 44.436,446.85 45.05,445.01 43.588,447.164 42.129,447.703 42.025,441.661 
			47.335,434.607 44.489,437.452 44.971,435.474 43.61,438.332 41.996,439.946 41.833,430.507 41.254,444.274 36.222,438.941 
			38.986,442.699 36.38,442.409 39.6,443.533 41.194,445.701 40.916,452.339 39.06,451.079 40.858,453.712 40.005,474 42.583,474 
			42.146,448.667 		"/>
		<g>
			<path style="fill:#FFFFFF;" d="M47.386,430.536c0,0,0.093,0.927-0.414,1.608c-0.507,0.681-1.422,0.857-1.422,0.857
				s-0.093-0.927,0.414-1.608C46.471,430.713,47.386,430.536,47.386,430.536z"/>
			<path style="fill:#FFFFFF;" d="M50.429,434.811c0,0,0.093,0.927-0.414,1.608c-0.507,0.681-1.422,0.857-1.422,0.857
				s-0.093-0.927,0.414-1.608C49.513,434.988,50.429,434.811,50.429,434.811z"/>
			<path style="fill:#FFFFFF;" d="M50.427,443.134c0,0-0.224,0.905-0.931,1.375c-0.707,0.47-1.628,0.328-1.628,0.328
				s0.224-0.905,0.931-1.375C49.506,442.992,50.427,443.134,50.427,443.134z"/>
			<path style="fill:#FFFFFF;" d="M33.718,443.134c0,0,0.224,0.905,0.931,1.375c0.706,0.47,1.628,0.328,1.628,0.328
				s-0.224-0.905-0.931-1.375C34.639,442.992,33.718,443.134,33.718,443.134z"/>
			<path style="fill:#FFFFFF;" d="M46.913,439.679c0,0,0.093,0.927-0.413,1.608c-0.507,0.681-1.422,0.857-1.422,0.857
				s-0.093-0.927,0.414-1.608C45.998,439.856,46.913,439.679,46.913,439.679z"/>
			<path style="fill:#FFFFFF;" d="M46.125,425.886c0,0,0.093,0.927-0.414,1.608c-0.507,0.681-1.422,0.857-1.422,0.857
				s-0.093-0.927,0.414-1.608C45.21,426.063,46.125,425.886,46.125,425.886z"/>
			<path style="fill:#FFFFFF;" d="M44.312,429.433c0,0,0.093,0.927-0.414,1.608c-0.507,0.681-1.422,0.857-1.422,0.857
				s-0.093-0.927,0.414-1.608C43.397,429.609,44.312,429.433,44.312,429.433z"/>
			<path style="fill:#FFFFFF;" d="M48.616,426.851c0,0,0.093,0.927-0.414,1.608c-0.507,0.681-1.422,0.857-1.422,0.857
				s-0.093-0.927,0.413-1.608C47.701,427.027,48.616,426.851,48.616,426.851z"/>
			<path style="fill:#FFFFFF;" d="M34.632,426.851c0,0-0.093,0.927,0.414,1.608c0.507,0.681,1.422,0.857,1.422,0.857
				s0.093-0.927-0.414-1.608C35.547,427.027,34.632,426.851,34.632,426.851z"/>
			<path style="fill:#FFFFFF;" d="M46.519,421.551c0,0,0.093,0.927-0.413,1.608c-0.507,0.681-1.422,0.857-1.422,0.857
				s-0.093-0.927,0.414-1.608C45.604,421.728,46.519,421.551,46.519,421.551z"/>
			<path style="fill:#FFFFFF;" d="M45.628,416.947c0,0,0.323,0.874,0.004,1.66c-0.32,0.786-1.161,1.187-1.161,1.187
				s-0.323-0.874-0.004-1.661C44.787,417.347,45.628,416.947,45.628,416.947z"/>
			<path style="fill:#FFFFFF;" d="M39.245,415.743c0,0,0.826,0.433,1.115,1.23c0.289,0.798-0.067,1.659-0.067,1.659
				s-0.826-0.432-1.115-1.23C38.889,416.604,39.245,415.743,39.245,415.743z"/>
			<path style="fill:#FFFFFF;" d="M42.222,421.25c0,0,0.588,0.723,0.54,1.57c-0.049,0.847-0.716,1.498-0.716,1.498
				s-0.588-0.723-0.54-1.571C41.555,421.901,42.222,421.25,42.222,421.25z"/>
			<path style="fill:#FFFFFF;" d="M42.064,413.053c0,0,0.588,0.723,0.539,1.57c-0.049,0.847-0.716,1.498-0.716,1.498
				s-0.588-0.723-0.539-1.57C41.397,413.704,42.064,413.053,42.064,413.053z"/>
			<path style="fill:#FFFFFF;" d="M35.383,430.536c0,0-0.093,0.927,0.413,1.608c0.507,0.681,1.422,0.857,1.422,0.857
				s0.093-0.927-0.414-1.608C36.298,430.713,35.383,430.536,35.383,430.536z"/>
			<path style="fill:#FFFFFF;" d="M33.649,435.581c0,0-0.093,0.927,0.414,1.608c0.507,0.681,1.422,0.857,1.422,0.857
				s0.093-0.927-0.414-1.608C34.564,435.757,33.649,435.581,33.649,435.581z"/>
			<path style="fill:#FFFFFF;" d="M38.252,437.412c0,0-0.093,0.927,0.414,1.608c0.507,0.681,1.422,0.857,1.422,0.857
				s0.093-0.927-0.414-1.608C39.167,437.589,38.252,437.412,38.252,437.412z"/>
			<path style="fill:#FFFFFF;" d="M39.51,430.423c0,0-0.355,0.862-0.064,1.659c0.291,0.797,1.117,1.229,1.117,1.229
				s0.355-0.862,0.064-1.659C40.337,430.854,39.51,430.423,39.51,430.423z"/>
			<path style="fill:#FFFFFF;" d="M36.251,449.021c0,0,0.932,0.017,1.569-0.544s0.738-1.488,0.738-1.488s-0.932-0.017-1.569,0.544
				C36.352,448.095,36.251,449.021,36.251,449.021z"/>
			<path style="fill:#FFFFFF;" d="M45.194,448.002c0,0,0.253,0.897,0.974,1.345c0.721,0.448,1.637,0.276,1.637,0.276
				s-0.253-0.897-0.974-1.345C46.11,447.83,45.194,448.002,45.194,448.002z"/>
			<path style="fill:#FFFFFF;" d="M37.291,425.886c0,0-0.093,0.927,0.414,1.608c0.507,0.681,1.422,0.857,1.422,0.857
				s0.093-0.927-0.414-1.608C38.206,426.063,37.291,425.886,37.291,425.886z"/>
			<path style="fill:#FFFFFF;" d="M37.275,421.788c0,0-0.093,0.927,0.414,1.608c0.507,0.681,1.422,0.857,1.422,0.857
				s0.093-0.927-0.414-1.608C38.19,421.964,37.275,421.788,37.275,421.788z"/>
		</g>
	</g>
	<g>
		<path style="fill:#92E3A9;" d="M709.149,441.723c0,7.64-4.519,13.833-10.095,13.833c-5.575,0-10.094-6.193-10.094-13.833
			c0-7.64,4.52-33.898,10.094-33.898C704.629,407.825,709.149,434.083,709.149,441.723z"/>
		<path style="opacity:0.5;fill:#FFFFFF;" d="M709.149,441.723c0,7.64-4.519,13.833-10.095,13.833
			c-5.575,0-10.094-6.193-10.094-13.833c0-7.64,4.52-33.898,10.094-33.898C704.629,407.825,709.149,434.083,709.149,441.723z"/>
		<polygon style="fill:#B2B2B2;" points="704.714,445.72 701.658,446.85 702.271,445.01 700.81,447.164 699.351,447.703 
			699.247,441.661 704.557,434.607 701.711,437.452 702.192,435.474 700.831,438.332 699.217,439.946 699.054,430.507 
			698.476,444.274 693.444,438.941 696.208,442.699 693.601,442.409 696.821,443.533 698.416,445.701 698.137,452.339 
			696.281,451.079 698.079,453.712 697.227,474 699.804,474 699.367,448.667 		"/>
		<g>
			<path style="fill:#FFFFFF;" d="M704.608,430.536c0,0,0.093,0.927-0.414,1.608c-0.507,0.681-1.422,0.857-1.422,0.857
				s-0.093-0.927,0.414-1.608C703.693,430.713,704.608,430.536,704.608,430.536z"/>
			<path style="fill:#FFFFFF;" d="M707.65,434.811c0,0,0.093,0.927-0.414,1.608c-0.507,0.681-1.422,0.857-1.422,0.857
				s-0.093-0.927,0.414-1.608C706.735,434.988,707.65,434.811,707.65,434.811z"/>
			<path style="fill:#FFFFFF;" d="M707.649,443.134c0,0-0.224,0.905-0.931,1.375c-0.706,0.47-1.628,0.328-1.628,0.328
				s0.224-0.905,0.931-1.375C706.728,442.992,707.649,443.134,707.649,443.134z"/>
			<path style="fill:#FFFFFF;" d="M690.94,443.134c0,0,0.224,0.905,0.931,1.375c0.707,0.47,1.628,0.328,1.628,0.328
				s-0.224-0.905-0.931-1.375C691.861,442.992,690.94,443.134,690.94,443.134z"/>
			<path style="fill:#FFFFFF;" d="M704.135,439.679c0,0,0.093,0.927-0.414,1.608c-0.507,0.681-1.422,0.857-1.422,0.857
				s-0.093-0.927,0.414-1.608C703.219,439.856,704.135,439.679,704.135,439.679z"/>
			<path style="fill:#FFFFFF;" d="M703.347,425.886c0,0,0.093,0.927-0.413,1.608c-0.507,0.681-1.422,0.857-1.422,0.857
				s-0.093-0.927,0.414-1.608C702.431,426.063,703.347,425.886,703.347,425.886z"/>
			<path style="fill:#FFFFFF;" d="M701.534,429.433c0,0,0.093,0.927-0.414,1.608c-0.507,0.681-1.422,0.857-1.422,0.857
				s-0.093-0.927,0.414-1.608C700.619,429.609,701.534,429.433,701.534,429.433z"/>
			<path style="fill:#FFFFFF;" d="M705.837,426.851c0,0,0.093,0.927-0.414,1.608c-0.507,0.681-1.422,0.857-1.422,0.857
				s-0.093-0.927,0.414-1.608C704.922,427.027,705.837,426.851,705.837,426.851z"/>
			<path style="fill:#FFFFFF;" d="M691.853,426.851c0,0-0.093,0.927,0.413,1.608c0.507,0.681,1.422,0.857,1.422,0.857
				s0.093-0.927-0.414-1.608C692.768,427.027,691.853,426.851,691.853,426.851z"/>
			<path style="fill:#FFFFFF;" d="M703.741,421.551c0,0,0.093,0.927-0.414,1.608c-0.507,0.681-1.422,0.857-1.422,0.857
				s-0.093-0.927,0.414-1.608C702.826,421.728,703.741,421.551,703.741,421.551z"/>
			<path style="fill:#FFFFFF;" d="M702.85,416.947c0,0,0.323,0.874,0.004,1.66c-0.32,0.786-1.161,1.187-1.161,1.187
				s-0.323-0.874-0.004-1.661C702.008,417.347,702.85,416.947,702.85,416.947z"/>
			<path style="fill:#FFFFFF;" d="M696.466,415.743c0,0,0.826,0.433,1.115,1.23c0.289,0.798-0.067,1.659-0.067,1.659
				s-0.826-0.432-1.115-1.23C696.11,416.604,696.466,415.743,696.466,415.743z"/>
			<path style="fill:#FFFFFF;" d="M699.443,421.25c0,0,0.588,0.723,0.539,1.57c-0.049,0.847-0.716,1.498-0.716,1.498
				s-0.588-0.723-0.539-1.571C698.776,421.901,699.443,421.25,699.443,421.25z"/>
			<path style="fill:#FFFFFF;" d="M699.286,413.053c0,0,0.588,0.723,0.539,1.57c-0.049,0.847-0.716,1.498-0.716,1.498
				s-0.588-0.723-0.539-1.57C698.618,413.704,699.286,413.053,699.286,413.053z"/>
			<path style="fill:#FFFFFF;" d="M692.605,430.536c0,0-0.093,0.927,0.414,1.608c0.507,0.681,1.422,0.857,1.422,0.857
				s0.093-0.927-0.414-1.608C693.52,430.713,692.605,430.536,692.605,430.536z"/>
			<path style="fill:#FFFFFF;" d="M690.871,435.581c0,0-0.093,0.927,0.414,1.608c0.507,0.681,1.422,0.857,1.422,0.857
				s0.093-0.927-0.414-1.608C691.786,435.757,690.871,435.581,690.871,435.581z"/>
			<path style="fill:#FFFFFF;" d="M695.473,437.412c0,0-0.093,0.927,0.414,1.608c0.507,0.681,1.422,0.857,1.422,0.857
				s0.093-0.927-0.414-1.608C696.389,437.589,695.473,437.412,695.473,437.412z"/>
			<path style="fill:#FFFFFF;" d="M696.732,430.423c0,0-0.355,0.862-0.064,1.659c0.291,0.797,1.117,1.229,1.117,1.229
				s0.355-0.862,0.064-1.659C697.558,430.854,696.732,430.423,696.732,430.423z"/>
			<path style="fill:#FFFFFF;" d="M693.473,449.021c0,0,0.932,0.017,1.569-0.544c0.637-0.561,0.738-1.488,0.738-1.488
				s-0.932-0.017-1.569,0.544C693.573,448.095,693.473,449.021,693.473,449.021z"/>
			<path style="fill:#FFFFFF;" d="M702.415,448.002c0,0,0.253,0.897,0.974,1.345c0.721,0.448,1.637,0.276,1.637,0.276
				s-0.253-0.897-0.974-1.345C703.331,447.83,702.415,448.002,702.415,448.002z"/>
			<path style="fill:#FFFFFF;" d="M694.512,425.886c0,0-0.093,0.927,0.414,1.608c0.507,0.681,1.422,0.857,1.422,0.857
				s0.093-0.927-0.414-1.608S694.512,425.886,694.512,425.886z"/>
			<path style="fill:#FFFFFF;" d="M694.496,421.788c0,0-0.093,0.927,0.414,1.608c0.507,0.681,1.422,0.857,1.422,0.857
				s0.093-0.927-0.414-1.608C695.411,421.964,694.496,421.788,694.496,421.788z"/>
		</g>
	</g>
</g>
<g id="Floor_00000094590480975440719910000018357167453164384424_">
	
		<line style="fill:none;stroke:#263238;stroke-linecap:round;stroke-linejoin:round;stroke-miterlimit:10;" x1="27.926" y1="474" x2="721.513" y2="474"/>
</g>
<g id="Mosque">
	<g>
		<g>
			<rect x="320.205" y="332.607" style="fill:#FFFFFF;stroke:#263238;stroke-miterlimit:10;" width="107.377" height="53.822"/>
			<rect x="320.205" y="332.607" style="fill:#FFFFFF;stroke:#263238;stroke-miterlimit:10;" width="107.377" height="4.231"/>
			<path style="fill:#92E3A9;stroke:#263238;stroke-linecap:round;stroke-linejoin:round;stroke-miterlimit:10;" d="M427.52,330.145
				c-0.777-28.797-24.348-51.907-53.332-51.907s-52.555,23.11-53.332,51.907H427.52z"/>
			<path style="fill:none;stroke:#263238;stroke-linecap:round;stroke-linejoin:round;stroke-miterlimit:10;" d="M412.935,330.145
				c-0.564-28.797-17.689-51.907-38.747-51.907s-38.183,23.11-38.747,51.907H412.935z"/>
			<path style="fill:none;stroke:#263238;stroke-linecap:round;stroke-linejoin:round;stroke-miterlimit:10;" d="M389.541,330.145
				c-0.224-28.797-7.009-51.907-15.353-51.907s-15.129,23.11-15.353,51.907H389.541z"/>
			
				<rect x="366.688" y="275.661" style="fill:#92E3A9;stroke:#263238;stroke-linecap:round;stroke-linejoin:round;stroke-miterlimit:10;" width="14.999" height="3.243"/>
			
				<line style="fill:none;stroke:#263238;stroke-linecap:round;stroke-linejoin:round;stroke-miterlimit:10;" x1="374.409" y1="258.233" x2="374.409" y2="249.234"/>
			<path style="fill:#92E3A9;stroke:#263238;stroke-linecap:round;stroke-linejoin:round;stroke-miterlimit:10;" d="
				M366.688,275.661c0,0,5.451-1.349,7.721-17.428c0,0-0.387,13.67,7.278,17.428H366.688z"/>
			<path style="fill:#92E3A9;stroke:#263238;stroke-miterlimit:10;" d="M375.28,235.832c0.977,1.179,1.588,2.672,1.588,4.322
				c0,3.761-3.049,6.81-6.81,6.81c-0.564,0-1.104-0.088-1.628-0.218c1.249,1.507,3.112,2.488,5.222,2.488
				c3.761,0,6.81-3.049,6.81-6.81C380.462,239.227,378.251,236.565,375.28,235.832z"/>
			<rect x="317.229" y="327.988" style="fill:#FFFFFF;stroke:#263238;stroke-miterlimit:10;" width="113.218" height="4.944"/>
			<g>
				
					<rect x="324.966" y="342.333" style="fill:#263238;stroke:#263238;stroke-linecap:round;stroke-linejoin:round;stroke-miterlimit:10;" width="6.393" height="16.576"/>
				
					<rect x="343.081" y="342.333" style="fill:#263238;stroke:#263238;stroke-linecap:round;stroke-linejoin:round;stroke-miterlimit:10;" width="6.393" height="16.576"/>
				
					<rect x="361.195" y="342.333" style="fill:#263238;stroke:#263238;stroke-linecap:round;stroke-linejoin:round;stroke-miterlimit:10;" width="6.393" height="16.576"/>
				
					<rect x="379.31" y="342.333" style="fill:#263238;stroke:#263238;stroke-linecap:round;stroke-linejoin:round;stroke-miterlimit:10;" width="6.393" height="16.576"/>
				
					<rect x="397.425" y="342.333" style="fill:#263238;stroke:#263238;stroke-linecap:round;stroke-linejoin:round;stroke-miterlimit:10;" width="6.393" height="16.576"/>
				
					<rect x="415.539" y="342.333" style="fill:#263238;stroke:#263238;stroke-linecap:round;stroke-linejoin:round;stroke-miterlimit:10;" width="6.394" height="16.576"/>
			</g>
		</g>
		
			<rect x="112.593" y="378.81" style="fill:#92E3A9;stroke:#263238;stroke-linecap:round;stroke-linejoin:round;stroke-miterlimit:10;" width="522.491" height="95.19"/>
		
			<rect x="112.593" y="378.81" style="fill:#FFFFFF;stroke:#263238;stroke-linecap:round;stroke-linejoin:round;stroke-miterlimit:10;" width="522.491" height="14.192"/>
		
			<rect x="112.593" y="378.468" style="fill:#FFFFFF;stroke:#263238;stroke-linecap:round;stroke-linejoin:round;stroke-miterlimit:10;" width="522.491" height="5.012"/>
		
			<rect x="228.773" y="349.113" style="fill:#FFFFFF;stroke:#263238;stroke-linecap:round;stroke-linejoin:round;stroke-miterlimit:10;" width="290.132" height="27.768"/>
		<polygon style="fill:#FFFFFF;stroke:#263238;stroke-linecap:round;stroke-linejoin:round;stroke-miterlimit:10;" points="
			518.904,353.434 228.773,353.434 225.383,345.763 522.294,345.763 		"/>
		<g>
			
				<rect x="183.863" y="368.63" style="fill:#FFFFFF;stroke:#263238;stroke-linecap:round;stroke-linejoin:round;stroke-miterlimit:10;" width="379.951" height="53.527"/>
			
				<rect x="183.863" y="395.394" style="fill:#92E3A9;stroke:#263238;stroke-linecap:round;stroke-linejoin:round;stroke-miterlimit:10;" width="379.951" height="26.764"/>
			<polygon style="fill:#FFFFFF;stroke:#263238;stroke-linecap:round;stroke-linejoin:round;stroke-miterlimit:10;" points="
				563.814,372.951 183.863,372.951 178.228,365.281 569.449,365.281 			"/>
			
				<rect x="271.739" y="368.63" style="fill:#FFFFFF;stroke:#263238;stroke-linecap:round;stroke-linejoin:round;stroke-miterlimit:10;" width="204.199" height="53.527"/>
			<polygon style="fill:#FFFFFF;stroke:#263238;stroke-linecap:round;stroke-linejoin:round;stroke-miterlimit:10;" points="
				475.938,372.951 271.739,372.951 268.711,365.281 478.967,365.281 			"/>
			<g>
				<g>
					<g>
						<g>
							<polyline style="fill:none;stroke:#263238;stroke-width:0.35;stroke-miterlimit:10;" points="190.033,378.511 
								188.689,378.511 188.689,376.657 185.536,376.657 185.536,378.511 184.193,378.511 							"/>
						</g>
						<g>
							<polyline style="fill:none;stroke:#263238;stroke-width:0.35;stroke-miterlimit:10;" points="195.873,378.511 
								194.529,378.511 194.529,376.657 191.376,376.657 191.376,378.511 190.033,378.511 							"/>
						</g>
						<g>
							<polyline style="fill:none;stroke:#263238;stroke-width:0.35;stroke-miterlimit:10;" points="201.713,378.511 
								200.369,378.511 200.369,376.657 197.216,376.657 197.216,378.511 195.873,378.511 							"/>
						</g>
						<g>
							<polyline style="fill:none;stroke:#263238;stroke-width:0.35;stroke-miterlimit:10;" points="207.553,378.511 
								206.209,378.511 206.209,376.657 203.056,376.657 203.056,378.511 201.713,378.511 							"/>
						</g>
						<g>
							<polyline style="fill:none;stroke:#263238;stroke-width:0.35;stroke-miterlimit:10;" points="213.393,378.511 
								212.049,378.511 212.049,376.657 208.896,376.657 208.896,378.511 207.553,378.511 							"/>
						</g>
						<g>
							<polyline style="fill:none;stroke:#263238;stroke-width:0.35;stroke-miterlimit:10;" points="219.233,378.511 
								217.89,378.511 217.89,376.657 214.736,376.657 214.736,378.511 213.393,378.511 							"/>
						</g>
						<g>
							<polyline style="fill:none;stroke:#263238;stroke-width:0.35;stroke-miterlimit:10;" points="225.073,378.511 
								223.73,378.511 223.73,376.657 220.576,376.657 220.576,378.511 219.233,378.511 							"/>
						</g>
						<g>
							<polyline style="fill:none;stroke:#263238;stroke-width:0.35;stroke-miterlimit:10;" points="230.913,378.511 
								229.57,378.511 229.57,376.657 226.417,376.657 226.417,378.511 225.073,378.511 							"/>
						</g>
						<g>
							<polyline style="fill:none;stroke:#263238;stroke-width:0.35;stroke-miterlimit:10;" points="236.753,378.511 
								235.41,378.511 235.41,376.657 232.257,376.657 232.257,378.511 230.913,378.511 							"/>
						</g>
						<g>
							<polyline style="fill:none;stroke:#263238;stroke-width:0.35;stroke-miterlimit:10;" points="242.593,378.511 
								241.25,378.511 241.25,376.657 238.097,376.657 238.097,378.511 236.753,378.511 							"/>
						</g>
						<g>
							<polyline style="fill:none;stroke:#263238;stroke-width:0.35;stroke-miterlimit:10;" points="248.433,378.511 
								247.09,378.511 247.09,376.657 243.937,376.657 243.937,378.511 242.593,378.511 							"/>
						</g>
						<g>
							<polyline style="fill:none;stroke:#263238;stroke-width:0.35;stroke-miterlimit:10;" points="254.273,378.511 
								252.93,378.511 252.93,376.657 249.777,376.657 249.777,378.511 248.433,378.511 							"/>
						</g>
						<g>
							<polyline style="fill:none;stroke:#263238;stroke-width:0.35;stroke-miterlimit:10;" points="260.113,378.511 
								258.77,378.511 258.77,376.657 255.617,376.657 255.617,378.511 254.273,378.511 							"/>
						</g>
						<g>
							<polyline style="fill:none;stroke:#263238;stroke-width:0.35;stroke-miterlimit:10;" points="265.954,378.511 
								264.61,378.511 264.61,376.657 261.457,376.657 261.457,378.511 260.113,378.511 							"/>
						</g>
						<g>
							<polyline style="fill:none;stroke:#263238;stroke-width:0.35;stroke-miterlimit:10;" points="271.794,378.511 
								270.45,378.511 270.45,376.657 267.297,376.657 267.297,378.511 265.954,378.511 							"/>
						</g>
						<g>
							<polyline style="fill:none;stroke:#263238;stroke-width:0.35;stroke-miterlimit:10;" points="277.634,378.511 
								276.29,378.511 276.29,376.657 273.137,376.657 273.137,378.511 271.794,378.511 							"/>
						</g>
						<g>
							<polyline style="fill:none;stroke:#263238;stroke-width:0.35;stroke-miterlimit:10;" points="283.474,378.511 
								282.13,378.511 282.13,376.657 278.977,376.657 278.977,378.511 277.634,378.511 							"/>
						</g>
						<g>
							<polyline style="fill:none;stroke:#263238;stroke-width:0.35;stroke-miterlimit:10;" points="289.314,378.511 
								287.97,378.511 287.97,376.657 284.817,376.657 284.817,378.511 283.474,378.511 							"/>
						</g>
						<g>
							<polyline style="fill:none;stroke:#263238;stroke-width:0.35;stroke-miterlimit:10;" points="295.154,378.511 
								293.81,378.511 293.81,376.657 290.657,376.657 290.657,378.511 289.314,378.511 							"/>
						</g>
						<g>
							<polyline style="fill:none;stroke:#263238;stroke-width:0.35;stroke-miterlimit:10;" points="300.994,378.511 
								299.651,378.511 299.651,376.657 296.497,376.657 296.497,378.511 295.154,378.511 							"/>
						</g>
						<g>
							<polyline style="fill:none;stroke:#263238;stroke-width:0.35;stroke-miterlimit:10;" points="306.834,378.511 
								305.491,378.511 305.491,376.657 302.337,376.657 302.337,378.511 300.994,378.511 							"/>
						</g>
						<g>
							<polyline style="fill:none;stroke:#263238;stroke-width:0.35;stroke-miterlimit:10;" points="312.674,378.511 
								311.331,378.511 311.331,376.657 308.177,376.657 308.177,378.511 306.834,378.511 							"/>
						</g>
						<g>
							<polyline style="fill:none;stroke:#263238;stroke-width:0.35;stroke-miterlimit:10;" points="318.514,378.511 
								317.171,378.511 317.171,376.657 314.018,376.657 314.018,378.511 312.674,378.511 							"/>
						</g>
						<g>
							<polyline style="fill:none;stroke:#263238;stroke-width:0.35;stroke-miterlimit:10;" points="324.354,378.511 
								323.011,378.511 323.011,376.657 319.858,376.657 319.858,378.511 318.514,378.511 							"/>
						</g>
						<g>
							<polyline style="fill:none;stroke:#263238;stroke-width:0.35;stroke-miterlimit:10;" points="330.194,378.511 
								328.851,378.511 328.851,376.657 325.698,376.657 325.698,378.511 324.354,378.511 							"/>
						</g>
						<g>
							<polyline style="fill:none;stroke:#263238;stroke-width:0.35;stroke-miterlimit:10;" points="336.034,378.511 
								334.691,378.511 334.691,376.657 331.538,376.657 331.538,378.511 330.194,378.511 							"/>
						</g>
						<g>
							<polyline style="fill:none;stroke:#263238;stroke-width:0.35;stroke-miterlimit:10;" points="341.874,378.511 
								340.531,378.511 340.531,376.657 337.378,376.657 337.378,378.511 336.034,378.511 							"/>
						</g>
						<g>
							<polyline style="fill:none;stroke:#263238;stroke-width:0.35;stroke-miterlimit:10;" points="347.715,378.511 
								346.371,378.511 346.371,376.657 343.218,376.657 343.218,378.511 341.874,378.511 							"/>
						</g>
						<g>
							<polyline style="fill:none;stroke:#263238;stroke-width:0.35;stroke-miterlimit:10;" points="353.555,378.511 
								352.211,378.511 352.211,376.657 349.058,376.657 349.058,378.511 347.715,378.511 							"/>
						</g>
						<g>
							<polyline style="fill:none;stroke:#263238;stroke-width:0.35;stroke-miterlimit:10;" points="359.395,378.511 
								358.051,378.511 358.051,376.657 354.898,376.657 354.898,378.511 353.555,378.511 							"/>
						</g>
						<g>
							<polyline style="fill:none;stroke:#263238;stroke-width:0.35;stroke-miterlimit:10;" points="365.235,378.511 
								363.891,378.511 363.891,376.657 360.738,376.657 360.738,378.511 359.395,378.511 							"/>
						</g>
						<g>
							<polyline style="fill:none;stroke:#263238;stroke-width:0.35;stroke-miterlimit:10;" points="371.075,378.511 
								369.731,378.511 369.731,376.657 366.578,376.657 366.578,378.511 365.235,378.511 							"/>
						</g>
						<g>
							<polyline style="fill:none;stroke:#263238;stroke-width:0.35;stroke-miterlimit:10;" points="376.915,378.511 
								375.572,378.511 375.572,376.657 372.418,376.657 372.418,378.511 371.075,378.511 							"/>
						</g>
						<g>
							<polyline style="fill:none;stroke:#263238;stroke-width:0.35;stroke-miterlimit:10;" points="382.755,378.511 
								381.412,378.511 381.412,376.657 378.258,376.657 378.258,378.511 376.915,378.511 							"/>
						</g>
						<g>
							<polyline style="fill:none;stroke:#263238;stroke-width:0.35;stroke-miterlimit:10;" points="388.595,378.511 
								387.252,378.511 387.252,376.657 384.098,376.657 384.098,378.511 382.755,378.511 							"/>
						</g>
						<g>
							<polyline style="fill:none;stroke:#263238;stroke-width:0.35;stroke-miterlimit:10;" points="394.435,378.511 
								393.092,378.511 393.092,376.657 389.939,376.657 389.939,378.511 388.595,378.511 							"/>
						</g>
						<g>
							<polyline style="fill:none;stroke:#263238;stroke-width:0.35;stroke-miterlimit:10;" points="400.275,378.511 
								398.932,378.511 398.932,376.657 395.779,376.657 395.779,378.511 394.435,378.511 							"/>
						</g>
						<g>
							<polyline style="fill:none;stroke:#263238;stroke-width:0.35;stroke-miterlimit:10;" points="406.115,378.511 
								404.772,378.511 404.772,376.657 401.619,376.657 401.619,378.511 400.275,378.511 							"/>
						</g>
						<g>
							<polyline style="fill:none;stroke:#263238;stroke-width:0.35;stroke-miterlimit:10;" points="411.955,378.511 
								410.612,378.511 410.612,376.657 407.459,376.657 407.459,378.511 406.115,378.511 							"/>
						</g>
						<g>
							<polyline style="fill:none;stroke:#263238;stroke-width:0.35;stroke-miterlimit:10;" points="417.795,378.511 
								416.452,378.511 416.452,376.657 413.299,376.657 413.299,378.511 411.955,378.511 							"/>
						</g>
						<g>
							<polyline style="fill:none;stroke:#263238;stroke-width:0.35;stroke-miterlimit:10;" points="423.635,378.511 
								422.292,378.511 422.292,376.657 419.139,376.657 419.139,378.511 417.795,378.511 							"/>
						</g>
						<g>
							<polyline style="fill:none;stroke:#263238;stroke-width:0.35;stroke-miterlimit:10;" points="429.476,378.511 
								428.132,378.511 428.132,376.657 424.979,376.657 424.979,378.511 423.635,378.511 							"/>
						</g>
						<g>
							<polyline style="fill:none;stroke:#263238;stroke-width:0.35;stroke-miterlimit:10;" points="435.316,378.511 
								433.972,378.511 433.972,376.657 430.819,376.657 430.819,378.511 429.476,378.511 							"/>
						</g>
						<g>
							<polyline style="fill:none;stroke:#263238;stroke-width:0.35;stroke-miterlimit:10;" points="441.156,378.511 
								439.812,378.511 439.812,376.657 436.659,376.657 436.659,378.511 435.316,378.511 							"/>
						</g>
						<g>
							<polyline style="fill:none;stroke:#263238;stroke-width:0.35;stroke-miterlimit:10;" points="446.996,378.511 
								445.652,378.511 445.652,376.657 442.499,376.657 442.499,378.511 441.156,378.511 							"/>
						</g>
						<g>
							<polyline style="fill:none;stroke:#263238;stroke-width:0.35;stroke-miterlimit:10;" points="452.836,378.511 
								451.492,378.511 451.492,376.657 448.339,376.657 448.339,378.511 446.996,378.511 							"/>
						</g>
						<g>
							<polyline style="fill:none;stroke:#263238;stroke-width:0.35;stroke-miterlimit:10;" points="458.676,378.511 
								457.332,378.511 457.332,376.657 454.179,376.657 454.179,378.511 452.836,378.511 							"/>
						</g>
						<g>
							<polyline style="fill:none;stroke:#263238;stroke-width:0.35;stroke-miterlimit:10;" points="464.516,378.511 
								463.173,378.511 463.173,376.657 460.019,376.657 460.019,378.511 458.676,378.511 							"/>
						</g>
						<g>
							<polyline style="fill:none;stroke:#263238;stroke-width:0.35;stroke-miterlimit:10;" points="470.356,378.511 
								469.013,378.511 469.013,376.657 465.859,376.657 465.859,378.511 464.516,378.511 							"/>
						</g>
						<g>
							<polyline style="fill:none;stroke:#263238;stroke-width:0.35;stroke-miterlimit:10;" points="476.196,378.511 
								474.853,378.511 474.853,376.657 471.699,376.657 471.699,378.511 470.356,378.511 							"/>
						</g>
						<g>
							<polyline style="fill:none;stroke:#263238;stroke-width:0.35;stroke-miterlimit:10;" points="482.036,378.511 
								480.693,378.511 480.693,376.657 477.54,376.657 477.54,378.511 476.196,378.511 							"/>
						</g>
						<g>
							<polyline style="fill:none;stroke:#263238;stroke-width:0.35;stroke-miterlimit:10;" points="487.876,378.511 
								486.533,378.511 486.533,376.657 483.38,376.657 483.38,378.511 482.036,378.511 							"/>
						</g>
						<g>
							<polyline style="fill:none;stroke:#263238;stroke-width:0.35;stroke-miterlimit:10;" points="493.716,378.511 
								492.373,378.511 492.373,376.657 489.22,376.657 489.22,378.511 487.876,378.511 							"/>
						</g>
						<g>
							<polyline style="fill:none;stroke:#263238;stroke-width:0.35;stroke-miterlimit:10;" points="499.556,378.511 
								498.213,378.511 498.213,376.657 495.06,376.657 495.06,378.511 493.716,378.511 							"/>
						</g>
						<g>
							<polyline style="fill:none;stroke:#263238;stroke-width:0.35;stroke-miterlimit:10;" points="505.396,378.511 
								504.053,378.511 504.053,376.657 500.9,376.657 500.9,378.511 499.556,378.511 							"/>
						</g>
						<g>
							<polyline style="fill:none;stroke:#263238;stroke-width:0.35;stroke-miterlimit:10;" points="511.237,378.511 
								509.893,378.511 509.893,376.657 506.74,376.657 506.74,378.511 505.396,378.511 							"/>
						</g>
						<g>
							<polyline style="fill:none;stroke:#263238;stroke-width:0.35;stroke-miterlimit:10;" points="517.077,378.511 
								515.733,378.511 515.733,376.657 512.58,376.657 512.58,378.511 511.237,378.511 							"/>
						</g>
						<g>
							<polyline style="fill:none;stroke:#263238;stroke-width:0.35;stroke-miterlimit:10;" points="522.917,378.511 
								521.573,378.511 521.573,376.657 518.42,376.657 518.42,378.511 517.077,378.511 							"/>
						</g>
						<g>
							<polyline style="fill:none;stroke:#263238;stroke-width:0.35;stroke-miterlimit:10;" points="528.757,378.511 
								527.413,378.511 527.413,376.657 524.26,376.657 524.26,378.511 522.917,378.511 							"/>
						</g>
						<g>
							<polyline style="fill:none;stroke:#263238;stroke-width:0.35;stroke-miterlimit:10;" points="534.597,378.511 
								533.253,378.511 533.253,376.657 530.1,376.657 530.1,378.511 528.757,378.511 							"/>
						</g>
						<g>
							<polyline style="fill:none;stroke:#263238;stroke-width:0.35;stroke-miterlimit:10;" points="540.437,378.511 
								539.094,378.511 539.094,376.657 535.94,376.657 535.94,378.511 534.597,378.511 							"/>
						</g>
						<g>
							<polyline style="fill:none;stroke:#263238;stroke-width:0.35;stroke-miterlimit:10;" points="546.277,378.511 
								544.934,378.511 544.934,376.657 541.78,376.657 541.78,378.511 540.437,378.511 							"/>
						</g>
						<g>
							<polyline style="fill:none;stroke:#263238;stroke-width:0.35;stroke-miterlimit:10;" points="552.117,378.511 
								550.774,378.511 550.774,376.657 547.62,376.657 547.62,378.511 546.277,378.511 							"/>
						</g>
						<g>
							<polyline style="fill:none;stroke:#263238;stroke-width:0.35;stroke-miterlimit:10;" points="557.957,378.511 
								556.614,378.511 556.614,376.657 553.461,376.657 553.461,378.511 552.117,378.511 							"/>
						</g>
						<g>
							<polyline style="fill:none;stroke:#263238;stroke-width:0.35;stroke-miterlimit:10;" points="563.797,378.511 
								562.454,378.511 562.454,376.657 559.301,376.657 559.301,378.511 557.957,378.511 							"/>
						</g>
					</g>
				</g>
			</g>
			<g>
				<polygon style="fill:#263238;stroke:#263238;stroke-linecap:round;stroke-linejoin:round;stroke-miterlimit:10;" points="
					204.571,394.171 198.884,386.114 193.197,394.171 193.197,422.132 204.571,422.132 				"/>
				<polygon style="fill:#263238;stroke:#263238;stroke-linecap:round;stroke-linejoin:round;stroke-miterlimit:10;" points="
					231.584,394.171 225.897,386.114 220.21,394.171 220.21,422.132 231.584,422.132 				"/>
				<polygon style="fill:#263238;stroke:#263238;stroke-linecap:round;stroke-linejoin:round;stroke-miterlimit:10;" points="
					261.44,394.171 255.753,386.114 250.066,394.171 250.066,422.132 261.44,422.132 				"/>
				<polygon style="fill:#263238;stroke:#263238;stroke-linecap:round;stroke-linejoin:round;stroke-miterlimit:10;" points="
					311.675,394.171 302.434,386.114 293.193,394.171 293.193,422.132 311.675,422.132 				"/>
				<polygon style="fill:#263238;stroke:#263238;stroke-linecap:round;stroke-linejoin:round;stroke-miterlimit:10;" points="
					454.56,394.171 445.319,386.114 436.078,394.171 436.078,422.132 454.56,422.132 				"/>
				<polygon style="fill:#263238;stroke:#263238;stroke-linecap:round;stroke-linejoin:round;stroke-miterlimit:10;" points="
					383.473,394.171 374.232,386.114 364.991,394.171 364.991,422.132 383.473,422.132 				"/>
			</g>
			<g>
				<polygon style="fill:#263238;stroke:#263238;stroke-linecap:round;stroke-linejoin:round;stroke-miterlimit:10;" points="
					498.871,394.171 493.184,386.114 487.497,394.171 487.497,422.132 498.871,422.132 				"/>
				<polygon style="fill:#263238;stroke:#263238;stroke-linecap:round;stroke-linejoin:round;stroke-miterlimit:10;" points="
					525.884,394.171 520.197,386.114 514.51,394.171 514.51,422.132 525.884,422.132 				"/>
				<polygon style="fill:#263238;stroke:#263238;stroke-linecap:round;stroke-linejoin:round;stroke-miterlimit:10;" points="
					555.741,394.171 550.054,386.114 544.367,394.171 544.367,422.132 555.741,422.132 				"/>
			</g>
		</g>
		<g>
			
				<rect x="171.707" y="406.011" style="fill:#FFFFFF;stroke:#263238;stroke-linecap:round;stroke-linejoin:round;stroke-miterlimit:10;" width="404.263" height="59.981"/>
			
				<rect x="171.707" y="432.101" style="fill:#92E3A9;stroke:#263238;stroke-linecap:round;stroke-linejoin:round;stroke-miterlimit:10;" width="404.263" height="33.892"/>
			<polygon style="fill:#FFFFFF;stroke:#263238;stroke-linecap:round;stroke-linejoin:round;stroke-miterlimit:10;" points="
				575.97,410.332 171.707,410.332 165.711,402.662 581.966,402.662 			"/>
			
				<rect x="265.206" y="406.011" style="fill:none;stroke:#263238;stroke-linecap:round;stroke-linejoin:round;stroke-miterlimit:10;" width="217.266" height="59.981"/>
			<polygon style="fill:#FFFFFF;stroke:#263238;stroke-linecap:round;stroke-linejoin:round;stroke-miterlimit:10;" points="
				482.471,410.332 265.206,410.332 261.984,402.662 485.694,402.662 			"/>
			<g>
				<polygon style="fill:#263238;stroke:#263238;stroke-linecap:round;stroke-linejoin:round;stroke-miterlimit:10;" points="
					193.74,431.552 187.689,423.495 181.638,431.552 181.638,465.966 193.74,465.966 				"/>
				<polygon style="fill:#263238;stroke:#263238;stroke-linecap:round;stroke-linejoin:round;stroke-miterlimit:10;" points="
					222.481,431.552 216.43,423.495 210.38,431.552 210.38,465.966 222.481,465.966 				"/>
				<polygon style="fill:#263238;stroke:#263238;stroke-linecap:round;stroke-linejoin:round;stroke-miterlimit:10;" points="
					254.248,431.552 248.197,423.495 242.147,431.552 242.147,465.966 254.248,465.966 				"/>
				<polygon style="fill:#263238;stroke:#263238;stroke-linecap:round;stroke-linejoin:round;stroke-miterlimit:10;" points="
					307.698,431.552 297.865,423.495 288.032,431.552 288.032,465.966 307.698,465.966 				"/>
				<polygon style="fill:#263238;stroke:#263238;stroke-linecap:round;stroke-linejoin:round;stroke-miterlimit:10;" points="
					459.725,431.552 449.893,423.495 440.06,431.552 440.06,465.966 459.725,465.966 				"/>
				<polygon style="fill:#263238;stroke:#263238;stroke-linecap:round;stroke-linejoin:round;stroke-miterlimit:10;" points="
					384.09,431.552 374.257,423.495 364.424,431.552 364.424,465.966 384.09,465.966 				"/>
			</g>
			<g>
				<polygon style="fill:#263238;stroke:#263238;stroke-linecap:round;stroke-linejoin:round;stroke-miterlimit:10;" points="
					506.872,431.552 500.821,423.495 494.77,431.552 494.77,465.966 506.872,465.966 				"/>
				<polygon style="fill:#263238;stroke:#263238;stroke-linecap:round;stroke-linejoin:round;stroke-miterlimit:10;" points="
					535.613,431.552 529.562,423.495 523.511,431.552 523.511,465.966 535.613,465.966 				"/>
				<polygon style="fill:#263238;stroke:#263238;stroke-linecap:round;stroke-linejoin:round;stroke-miterlimit:10;" points="
					567.38,431.552 561.329,423.495 555.279,431.552 555.279,465.966 567.38,465.966 				"/>
			</g>
		</g>
		<g>
			<rect x="349.678" y="396.579" style="fill:#FFFFFF;stroke:#263238;stroke-miterlimit:10;" width="49.344" height="66.352"/>
			<path style="fill:#263238;stroke:#263238;stroke-miterlimit:10;" d="M390.64,462.931h-32.58v-34.986
				c0-3.941,1.818-7.661,4.926-10.084l11.27-8.782l11.401,8.783c3.142,2.42,4.982,6.161,4.982,10.127V462.931z"/>
			<path style="fill:#8F8F8F;stroke:#263238;stroke-miterlimit:10;" d="M387.739,462.931H360.96v-29.676
				c0-3.343,1.494-6.498,4.049-8.553l9.264-7.449l9.371,7.449c2.582,2.053,4.095,5.226,4.095,8.59V462.931z"/>
			<rect x="349.678" y="396.579" style="fill:#FFFFFF;stroke:#263238;stroke-miterlimit:10;" width="49.344" height="4.472"/>
			<g>
				<rect x="298.621" y="398.944" style="fill:#FFFFFF;stroke:#263238;stroke-miterlimit:10;" width="53.474" height="63.968"/>
				
					<rect x="298.621" y="432.626" style="fill:#92E3A9;stroke:#263238;stroke-linecap:round;stroke-linejoin:round;stroke-miterlimit:10;" width="53.474" height="30.286"/>
				<polygon style="fill:#263238;stroke:#263238;stroke-linecap:round;stroke-linejoin:round;stroke-miterlimit:10;" points="
					328.932,431.495 325.331,426.394 321.731,431.495 321.731,457.159 328.932,457.159 				"/>
				<path style="fill:#263238;stroke:#263238;stroke-linecap:round;stroke-linejoin:round;stroke-miterlimit:10;" d="
					M327.176,416.847c0-1.13-0.916-2.046-2.046-2.046c-1.13,0-2.046,0.916-2.046,2.046c0,1.13,0.916,2.046,2.046,2.046
					C326.26,418.893,327.176,417.977,327.176,416.847z"/>
				<rect x="315.796" y="398.944" style="fill:none;stroke:#263238;stroke-miterlimit:10;" width="19.125" height="63.968"/>
				<rect x="298.621" y="398.944" style="fill:#FFFFFF;stroke:#263238;stroke-miterlimit:10;" width="53.474" height="2.107"/>
				<path style="fill:#92E3A9;stroke:#263238;stroke-linecap:round;stroke-linejoin:round;stroke-miterlimit:10;" d="
					M352.065,397.718c-0.387-14.341-12.125-25.85-26.56-25.85c-14.434,0-26.173,11.509-26.56,25.85H352.065z"/>
				<path style="fill:none;stroke:#263238;stroke-linecap:round;stroke-linejoin:round;stroke-miterlimit:10;" d="M344.802,397.718
					c-0.281-14.341-8.809-25.85-19.296-25.85c-10.487,0-19.015,11.509-19.296,25.85H344.802z"/>
				<path style="fill:none;stroke:#263238;stroke-linecap:round;stroke-linejoin:round;stroke-miterlimit:10;" d="M333.151,397.718
					c-0.111-14.341-3.491-25.85-7.646-25.85c-4.155,0-7.534,11.509-7.646,25.85H333.151z"/>
				<path style="fill:#FFFFFF;stroke:#263238;stroke-linecap:round;stroke-linejoin:round;stroke-miterlimit:10;" d="
					M300.09,390.769c-0.667,2.212-1.079,4.536-1.144,6.95h53.119c-0.065-2.414-0.477-4.738-1.144-6.95H300.09z"/>
				
					<rect x="321.771" y="370.585" style="fill:#92E3A9;stroke:#263238;stroke-linecap:round;stroke-linejoin:round;stroke-miterlimit:10;" width="7.469" height="1.615"/>
				<path style="fill:#92E3A9;stroke:#263238;stroke-linecap:round;stroke-linejoin:round;stroke-miterlimit:10;" d="
					M321.771,370.585c0,0,2.715-0.672,3.845-8.679c0,0-0.193,6.808,3.625,8.679H321.771z"/>
				<polygon style="fill:#FFFFFF;stroke:#263238;stroke-miterlimit:10;" points="353.523,399.106 297.14,399.106 296.112,396.644 
					354.551,396.644 				"/>
				<path style="fill:#92E3A9;stroke:#263238;stroke-miterlimit:10;" d="M327.528,359.791c0-1.117-0.906-2.023-2.023-2.023
					c-1.117,0-2.023,0.906-2.023,2.023c0,1.117,0.906,2.023,2.023,2.023C326.622,361.813,327.528,360.908,327.528,359.791z"/>
				<line style="fill:none;stroke:#263238;stroke-miterlimit:10;" x1="325.505" y1="357.768" x2="325.505" y2="349.557"/>
			</g>
			<g>
				<rect x="396.128" y="398.944" style="fill:#FFFFFF;stroke:#263238;stroke-miterlimit:10;" width="53.474" height="63.968"/>
				
					<rect x="396.128" y="432.626" style="fill:#92E3A9;stroke:#263238;stroke-linecap:round;stroke-linejoin:round;stroke-miterlimit:10;" width="53.474" height="30.286"/>
				<polygon style="fill:#263238;stroke:#263238;stroke-linecap:round;stroke-linejoin:round;stroke-miterlimit:10;" points="
					426.439,431.495 422.838,426.394 419.237,431.495 419.237,457.159 426.439,457.159 				"/>
				<path style="fill:#263238;stroke:#263238;stroke-linecap:round;stroke-linejoin:round;stroke-miterlimit:10;" d="
					M424.683,416.847c0-1.13-0.916-2.046-2.046-2.046c-1.13,0-2.046,0.916-2.046,2.046c0,1.13,0.916,2.046,2.046,2.046
					C423.767,418.893,424.683,417.977,424.683,416.847z"/>
				<rect x="413.302" y="398.944" style="fill:none;stroke:#263238;stroke-miterlimit:10;" width="19.125" height="63.968"/>
				<rect x="396.128" y="398.944" style="fill:#FFFFFF;stroke:#263238;stroke-miterlimit:10;" width="53.474" height="2.107"/>
				<path style="fill:#92E3A9;stroke:#263238;stroke-linecap:round;stroke-linejoin:round;stroke-miterlimit:10;" d="
					M449.571,397.718c-0.387-14.341-12.125-25.85-26.56-25.85c-14.434,0-26.173,11.509-26.56,25.85H449.571z"/>
				<path style="fill:none;stroke:#263238;stroke-linecap:round;stroke-linejoin:round;stroke-miterlimit:10;" d="M442.308,397.718
					c-0.281-14.341-8.809-25.85-19.296-25.85s-19.015,11.509-19.296,25.85H442.308z"/>
				<path style="fill:none;stroke:#263238;stroke-linecap:round;stroke-linejoin:round;stroke-miterlimit:10;" d="M430.658,397.718
					c-0.111-14.341-3.491-25.85-7.646-25.85c-4.155,0-7.534,11.509-7.646,25.85H430.658z"/>
				<path style="fill:#FFFFFF;stroke:#263238;stroke-linecap:round;stroke-linejoin:round;stroke-miterlimit:10;" d="
					M397.593,390.78c-0.665,2.209-1.076,4.528-1.141,6.938h53.119c-0.065-2.41-0.476-4.729-1.141-6.938H397.593z"/>
				
					<rect x="419.277" y="370.585" style="fill:#92E3A9;stroke:#263238;stroke-linecap:round;stroke-linejoin:round;stroke-miterlimit:10;" width="7.47" height="1.615"/>
				<path style="fill:#92E3A9;stroke:#263238;stroke-linecap:round;stroke-linejoin:round;stroke-miterlimit:10;" d="
					M419.277,370.585c0,0,2.714-0.672,3.845-8.679c0,0-0.193,6.808,3.625,8.679H419.277z"/>
				<polygon style="fill:#FFFFFF;stroke:#263238;stroke-miterlimit:10;" points="451.029,399.106 394.646,399.106 393.619,396.644 
					452.057,396.644 				"/>
				<circle style="fill:#92E3A9;stroke:#263238;stroke-miterlimit:10;" cx="423.012" cy="359.791" r="2.023"/>
				<line style="fill:none;stroke:#263238;stroke-miterlimit:10;" x1="423.012" y1="357.768" x2="423.012" y2="349.557"/>
			</g>
			<rect x="358.275" y="432.089" style="fill:#8F8F8F;stroke:#263238;stroke-miterlimit:10;" width="2.324" height="22.579"/>
			<rect x="388.159" y="432.089" style="fill:#8F8F8F;stroke:#263238;stroke-miterlimit:10;" width="2.324" height="22.579"/>
			<g>
				
					<rect x="363.736" y="434.125" style="fill:none;stroke:#263238;stroke-width:0.5;stroke-miterlimit:10;" width="9.509" height="25.432"/>
				
					<rect x="375.456" y="434.125" style="fill:none;stroke:#263238;stroke-width:0.5;stroke-miterlimit:10;" width="9.509" height="25.432"/>
			</g>
		</g>
		<g>
			<path style="fill:#92E3A9;" d="M591.745,459.914c-2.255-2.573-3.382,1.372-3.382,1.372s-0.188-1.201-2.067-3.087
				c-1.879-1.887-3.758,2.401-3.758,2.401s-0.376-1.2-0.94-2.915c-0.564-1.715-3.57,2.401-3.57,2.401s0-1.372-1.879-2.915
				c-1.879-1.543-3.946,3.602-3.946,3.602s0,0-1.691-1.715c-1.691-1.715-5.073,1.887-5.073,1.887s-0.752-1.543-4.322-4.288
				c-3.57-2.744-2.631,3.087-2.631,3.087s0,0-0.939-1.201c-0.94-1.201-2.819,3.602-2.819,3.602s0,0-1.879-2.744
				c-1.879-2.744-2.067,1.029-2.067,1.029s0-1.372-1.691-3.43c-1.691-2.058-6.201,3.773-6.201,3.773s-1.127-2.058-2.255-2.744
				c-1.128-0.686-2.067,1.715-2.067,1.715s0,0-0.752-0.686c-0.752-0.686-1.315,1.887-1.315,1.887s-3.382-2.573-5.261-2.401
				c-0.425,0.039-0.572,0.322-0.558,0.725c-1.756-1.047-2.636,2.019-2.636,2.019s-0.188-1.201-2.067-3.087
				c-1.879-1.887-3.758,2.401-3.758,2.401s-0.376-1.2-0.94-2.915c-0.564-1.715-3.57,2.401-3.57,2.401s0-1.372-1.879-2.915
				c-1.879-1.543-3.946,3.602-3.946,3.602s0,0-1.691-1.715c-1.691-1.715-5.073,1.887-5.073,1.887s-0.752-1.543-4.322-4.288
				s-2.631,3.087-2.631,3.087s0,0-0.939-1.201c-0.94-1.201-2.819,3.602-2.819,3.602s0,0-1.879-2.744
				c-1.879-2.744-2.067,1.029-2.067,1.029s0-1.372-1.691-3.43c-1.691-2.058-6.201,3.773-6.201,3.773s-1.128-2.058-2.255-2.744
				c-1.127-0.686-2.067,1.715-2.067,1.715s0,0-0.752-0.686c-0.752-0.686-1.315,1.887-1.315,1.887s-3.382-2.573-5.261-2.401
				c-1.879,0.171,1.503,4.974,1.503,4.974l0.752,1.201h59.941c0,0,0.041-0.196,0.055-0.513l0.321,0.513h59.94
				C593.436,464.716,594,462.486,591.745,459.914z"/>
			<path style="opacity:0.32;" d="M591.745,459.914c-2.255-2.573-3.382,1.372-3.382,1.372s-0.188-1.201-2.067-3.087
				c-1.879-1.887-3.758,2.401-3.758,2.401s-0.376-1.2-0.94-2.915c-0.564-1.715-3.57,2.401-3.57,2.401s0-1.372-1.879-2.915
				c-1.879-1.543-3.946,3.602-3.946,3.602s0,0-1.691-1.715c-1.691-1.715-5.073,1.887-5.073,1.887s-0.752-1.543-4.322-4.288
				c-3.57-2.744-2.631,3.087-2.631,3.087s0,0-0.939-1.201c-0.94-1.201-2.819,3.602-2.819,3.602s0,0-1.879-2.744
				c-1.879-2.744-2.067,1.029-2.067,1.029s0-1.372-1.691-3.43c-1.691-2.058-6.201,3.773-6.201,3.773s-1.127-2.058-2.255-2.744
				c-1.128-0.686-2.067,1.715-2.067,1.715s0,0-0.752-0.686c-0.752-0.686-1.315,1.887-1.315,1.887s-3.382-2.573-5.261-2.401
				c-0.425,0.039-0.572,0.322-0.558,0.725c-1.756-1.047-2.636,2.019-2.636,2.019s-0.188-1.201-2.067-3.087
				c-1.879-1.887-3.758,2.401-3.758,2.401s-0.376-1.2-0.94-2.915c-0.564-1.715-3.57,2.401-3.57,2.401s0-1.372-1.879-2.915
				c-1.879-1.543-3.946,3.602-3.946,3.602s0,0-1.691-1.715c-1.691-1.715-5.073,1.887-5.073,1.887s-0.752-1.543-4.322-4.288
				s-2.631,3.087-2.631,3.087s0,0-0.939-1.201c-0.94-1.201-2.819,3.602-2.819,3.602s0,0-1.879-2.744
				c-1.879-2.744-2.067,1.029-2.067,1.029s0-1.372-1.691-3.43c-1.691-2.058-6.201,3.773-6.201,3.773s-1.128-2.058-2.255-2.744
				c-1.127-0.686-2.067,1.715-2.067,1.715s0,0-0.752-0.686c-0.752-0.686-1.315,1.887-1.315,1.887s-3.382-2.573-5.261-2.401
				c-1.879,0.171,1.503,4.974,1.503,4.974l0.752,1.201h59.941c0,0,0.041-0.196,0.055-0.513l0.321,0.513h59.94
				C593.436,464.716,594,462.486,591.745,459.914z"/>
		</g>
		<g>
			<path style="fill:#92E3A9;" d="M278.155,459.914c-2.255-2.573-3.382,1.372-3.382,1.372s-0.188-1.201-2.067-3.087
				c-1.879-1.887-3.758,2.401-3.758,2.401s-0.376-1.2-0.94-2.915c-0.564-1.715-3.57,2.401-3.57,2.401s0-1.372-1.879-2.915
				s-3.946,3.602-3.946,3.602s0,0-1.691-1.715c-1.691-1.715-5.073,1.887-5.073,1.887s-0.752-1.543-4.322-4.288
				c-3.57-2.744-2.631,3.087-2.631,3.087s0,0-0.94-1.201c-0.939-1.201-2.818,3.602-2.818,3.602s0,0-1.879-2.744
				c-1.879-2.744-2.067,1.029-2.067,1.029s0-1.372-1.691-3.43c-1.691-2.058-6.201,3.773-6.201,3.773s-1.127-2.058-2.255-2.744
				c-1.128-0.686-2.067,1.715-2.067,1.715s0,0-0.752-0.686c-0.752-0.686-1.315,1.887-1.315,1.887s-3.382-2.573-5.261-2.401
				c-0.425,0.039-0.572,0.322-0.558,0.725c-1.757-1.047-2.636,2.019-2.636,2.019s-0.188-1.201-2.067-3.087
				c-1.879-1.887-3.758,2.401-3.758,2.401s-0.376-1.2-0.939-2.915c-0.564-1.715-3.57,2.401-3.57,2.401s0-1.372-1.879-2.915
				c-1.879-1.543-3.946,3.602-3.946,3.602s0,0-1.691-1.715c-1.691-1.715-5.073,1.887-5.073,1.887s-0.752-1.543-4.322-4.288
				s-2.631,3.087-2.631,3.087s0,0-0.939-1.201c-0.94-1.201-2.819,3.602-2.819,3.602s0,0-1.879-2.744
				c-1.879-2.744-2.067,1.029-2.067,1.029s0-1.372-1.691-3.43c-1.691-2.058-6.201,3.773-6.201,3.773s-1.128-2.058-2.255-2.744
				c-1.127-0.686-2.067,1.715-2.067,1.715s0,0-0.752-0.686c-0.752-0.686-1.315,1.887-1.315,1.887s-3.382-2.573-5.261-2.401
				c-1.879,0.171,1.503,4.974,1.503,4.974l0.752,1.201h59.94c0,0,0.041-0.196,0.055-0.513l0.321,0.513h59.94
				C279.846,464.716,280.409,462.486,278.155,459.914z"/>
			<path style="opacity:0.32;" d="M278.155,459.914c-2.255-2.573-3.382,1.372-3.382,1.372s-0.188-1.201-2.067-3.087
				c-1.879-1.887-3.758,2.401-3.758,2.401s-0.376-1.2-0.94-2.915c-0.564-1.715-3.57,2.401-3.57,2.401s0-1.372-1.879-2.915
				s-3.946,3.602-3.946,3.602s0,0-1.691-1.715c-1.691-1.715-5.073,1.887-5.073,1.887s-0.752-1.543-4.322-4.288
				c-3.57-2.744-2.631,3.087-2.631,3.087s0,0-0.94-1.201c-0.939-1.201-2.818,3.602-2.818,3.602s0,0-1.879-2.744
				c-1.879-2.744-2.067,1.029-2.067,1.029s0-1.372-1.691-3.43c-1.691-2.058-6.201,3.773-6.201,3.773s-1.127-2.058-2.255-2.744
				c-1.128-0.686-2.067,1.715-2.067,1.715s0,0-0.752-0.686c-0.752-0.686-1.315,1.887-1.315,1.887s-3.382-2.573-5.261-2.401
				c-0.425,0.039-0.572,0.322-0.558,0.725c-1.757-1.047-2.636,2.019-2.636,2.019s-0.188-1.201-2.067-3.087
				c-1.879-1.887-3.758,2.401-3.758,2.401s-0.376-1.2-0.939-2.915c-0.564-1.715-3.57,2.401-3.57,2.401s0-1.372-1.879-2.915
				c-1.879-1.543-3.946,3.602-3.946,3.602s0,0-1.691-1.715c-1.691-1.715-5.073,1.887-5.073,1.887s-0.752-1.543-4.322-4.288
				s-2.631,3.087-2.631,3.087s0,0-0.939-1.201c-0.94-1.201-2.819,3.602-2.819,3.602s0,0-1.879-2.744
				c-1.879-2.744-2.067,1.029-2.067,1.029s0-1.372-1.691-3.43c-1.691-2.058-6.201,3.773-6.201,3.773s-1.128-2.058-2.255-2.744
				c-1.127-0.686-2.067,1.715-2.067,1.715s0,0-0.752-0.686c-0.752-0.686-1.315,1.887-1.315,1.887s-3.382-2.573-5.261-2.401
				c-1.879,0.171,1.503,4.974,1.503,4.974l0.752,1.201h59.94c0,0,0.041-0.196,0.055-0.513l0.321,0.513h59.94
				C279.846,464.716,280.409,462.486,278.155,459.914z"/>
		</g>
		<g>
			<rect x="153.281" y="462.669" style="fill:#FFFFFF;stroke:#263238;stroke-miterlimit:10;" width="441.607" height="11.141"/>
			<rect x="237.79" y="462.669" style="fill:#FFFFFF;stroke:#263238;stroke-miterlimit:10;" width="272.59" height="11.141"/>
		</g>
		<g>
			<path style="fill:#92E3A9;" d="M463.456,457.621c-1.332,0-2.536,0.53-3.431,1.381c-0.914-0.652-2.054-1.058-3.311-1.058
				c-1.152,0-2.213,0.334-3.087,0.892c-0.653-0.496-1.432-0.79-2.273-0.79c-0.19,0-0.371,0.036-0.555,0.065
				c-0.265-2.661-2.484-4.747-5.215-4.747c-1.923,0-3.589,1.042-4.508,2.581c-1.545-2.063-4.162-3.419-7.132-3.419
				c-0.636,0-1.254,0.067-1.851,0.185c-2.063-1.996-4.94-3.24-8.128-3.24c-5.486,0-10.063,3.672-11.126,8.553
				c-1.265-1.038-2.946-1.677-4.797-1.677c-3.928,0-7.112,2.852-7.112,6.369c0,3.518,3.184,6.369,7.112,6.369
				c2.69,0,5.03-1.338,6.239-3.311c1.996,3.078,5.581,5.139,9.684,5.139c3.117,0,5.939-1.187,7.992-3.106
				c0.639,0.136,1.302,0.216,1.987,0.216c3.852,0,7.111-2.283,8.206-5.429c0.924,0.801,2.115,1.303,3.434,1.303
				c0.597,0,1.162-0.121,1.697-0.304c0.321,2.269,2.015,4.006,4.073,4.006c0.87,0,1.675-0.312,2.341-0.841
				c0.86,0.529,1.898,0.841,3.018,0.841c1.353,0,2.574-0.466,3.517-1.211c0.872,0.745,1.988,1.211,3.225,1.211
				c2.755,0,4.989-2.234,4.989-4.989C468.445,459.855,466.211,457.621,463.456,457.621z"/>
			<path style="opacity:0.32;" d="M463.456,457.621c-1.332,0-2.536,0.53-3.431,1.381c-0.914-0.652-2.054-1.058-3.311-1.058
				c-1.152,0-2.213,0.334-3.087,0.892c-0.653-0.496-1.432-0.79-2.273-0.79c-0.19,0-0.371,0.036-0.555,0.065
				c-0.265-2.661-2.484-4.747-5.215-4.747c-1.923,0-3.589,1.042-4.508,2.581c-1.545-2.063-4.162-3.419-7.132-3.419
				c-0.636,0-1.254,0.067-1.851,0.185c-2.063-1.996-4.94-3.24-8.128-3.24c-5.486,0-10.063,3.672-11.126,8.553
				c-1.265-1.038-2.946-1.677-4.797-1.677c-3.928,0-7.112,2.852-7.112,6.369c0,3.518,3.184,6.369,7.112,6.369
				c2.69,0,5.03-1.338,6.239-3.311c1.996,3.078,5.581,5.139,9.684,5.139c3.117,0,5.939-1.187,7.992-3.106
				c0.639,0.136,1.302,0.216,1.987,0.216c3.852,0,7.111-2.283,8.206-5.429c0.924,0.801,2.115,1.303,3.434,1.303
				c0.597,0,1.162-0.121,1.697-0.304c0.321,2.269,2.015,4.006,4.073,4.006c0.87,0,1.675-0.312,2.341-0.841
				c0.86,0.529,1.898,0.841,3.018,0.841c1.353,0,2.574-0.466,3.517-1.211c0.872,0.745,1.988,1.211,3.225,1.211
				c2.755,0,4.989-2.234,4.989-4.989C468.445,459.855,466.211,457.621,463.456,457.621z"/>
		</g>
		<g>
			<path style="fill:#92E3A9;" d="M340.729,456.347c-1.851,0-3.532,0.639-4.797,1.677c-1.062-4.882-5.639-8.553-11.126-8.553
				c-3.188,0-6.065,1.243-8.127,3.24c-0.597-0.118-1.215-0.185-1.851-0.185c-2.969,0-5.586,1.356-7.132,3.419
				c-0.919-1.539-2.585-2.581-4.508-2.581c-2.731,0-4.95,2.086-5.215,4.747c-0.183-0.029-0.365-0.065-0.555-0.065
				c-0.84,0-1.62,0.293-2.273,0.79c-0.874-0.557-1.935-0.892-3.087-0.892c-1.257,0-2.397,0.406-3.311,1.058
				c-0.895-0.851-2.098-1.381-3.431-1.381c-2.755,0-4.989,2.234-4.989,4.989c0,2.755,2.234,4.989,4.989,4.989
				c1.237,0,2.353-0.466,3.225-1.211c0.943,0.745,2.164,1.211,3.517,1.211c1.12,0,2.159-0.311,3.019-0.841
				c0.666,0.529,1.471,0.841,2.341,0.841c2.058,0,3.752-1.737,4.073-4.006c0.535,0.183,1.1,0.304,1.697,0.304
				c1.319,0,2.51-0.502,3.434-1.303c1.094,3.146,4.354,5.429,8.206,5.429c0.685,0,1.348-0.08,1.987-0.216
				c2.052,1.919,4.874,3.106,7.991,3.106c4.104,0,7.688-2.061,9.684-5.139c1.209,1.973,3.549,3.311,6.239,3.311
				c3.928,0,7.112-2.852,7.112-6.369C347.841,459.199,344.657,456.347,340.729,456.347z"/>
			<path style="opacity:0.32;" d="M340.729,456.347c-1.851,0-3.532,0.639-4.797,1.677c-1.062-4.882-5.639-8.553-11.126-8.553
				c-3.188,0-6.065,1.243-8.127,3.24c-0.597-0.118-1.215-0.185-1.851-0.185c-2.969,0-5.586,1.356-7.132,3.419
				c-0.919-1.539-2.585-2.581-4.508-2.581c-2.731,0-4.95,2.086-5.215,4.747c-0.183-0.029-0.365-0.065-0.555-0.065
				c-0.84,0-1.62,0.293-2.273,0.79c-0.874-0.557-1.935-0.892-3.087-0.892c-1.257,0-2.397,0.406-3.311,1.058
				c-0.895-0.851-2.098-1.381-3.431-1.381c-2.755,0-4.989,2.234-4.989,4.989c0,2.755,2.234,4.989,4.989,4.989
				c1.237,0,2.353-0.466,3.225-1.211c0.943,0.745,2.164,1.211,3.517,1.211c1.12,0,2.159-0.311,3.019-0.841
				c0.666,0.529,1.471,0.841,2.341,0.841c2.058,0,3.752-1.737,4.073-4.006c0.535,0.183,1.1,0.304,1.697,0.304
				c1.319,0,2.51-0.502,3.434-1.303c1.094,3.146,4.354,5.429,8.206,5.429c0.685,0,1.348-0.08,1.987-0.216
				c2.052,1.919,4.874,3.106,7.991,3.106c4.104,0,7.688-2.061,9.684-5.139c1.209,1.973,3.549,3.311,6.239,3.311
				c3.928,0,7.112-2.852,7.112-6.369C347.841,459.199,344.657,456.347,340.729,456.347z"/>
		</g>
		<g>
			<rect x="277.432" y="462.669" style="fill:#FFFFFF;stroke:#263238;stroke-miterlimit:10;" width="193.305" height="11.141"/>
			<rect x="314.424" y="462.669" style="fill:#FFFFFF;stroke:#263238;stroke-miterlimit:10;" width="119.321" height="11.141"/>
		</g>
		<g>
			<rect x="351.055" y="462.669" style="fill:#FFFFFF;stroke:#263238;stroke-miterlimit:10;" width="46.059" height="11.141"/>
			<g>
				<line style="fill:none;stroke:#263238;stroke-miterlimit:10;" x1="350.478" y1="465.266" x2="396.802" y2="465.266"/>
				<line style="fill:none;stroke:#263238;stroke-miterlimit:10;" x1="350.478" y1="468.083" x2="396.802" y2="468.083"/>
				<line style="fill:none;stroke:#263238;stroke-miterlimit:10;" x1="350.478" y1="470.901" x2="396.802" y2="470.901"/>
			</g>
		</g>
		<g>
			<rect x="358.135" y="452.452" style="fill:#8F8F8F;stroke:#263238;stroke-miterlimit:10;" width="5.33" height="9.857"/>
			<rect x="358.135" y="455.001" style="fill:#263238;stroke:#263238;stroke-miterlimit:10;" width="5.33" height="2.448"/>
		</g>
		<g>
			<rect x="385.197" y="452.452" style="fill:#8F8F8F;stroke:#263238;stroke-miterlimit:10;" width="5.33" height="9.857"/>
			<rect x="385.197" y="455.001" style="fill:#263238;stroke:#263238;stroke-miterlimit:10;" width="5.33" height="2.448"/>
		</g>
		<g>
			<polygon style="fill:#263238;stroke:#263238;stroke-linecap:round;stroke-linejoin:round;stroke-miterlimit:10;" points="
				147.915,406.037 147.915,392.446 145.234,388.649 142.554,392.446 142.554,406.037 			"/>
			
				<rect x="142.554" y="434.646" style="fill:#263238;stroke:#263238;stroke-linecap:round;stroke-linejoin:round;stroke-miterlimit:10;" width="5.361" height="22.614"/>
		</g>
		<g>
			<polygon style="fill:#263238;stroke:#263238;stroke-linecap:round;stroke-linejoin:round;stroke-miterlimit:10;" points="
				608.504,406.037 608.504,392.446 605.823,388.649 603.143,392.446 603.143,406.037 			"/>
			
				<rect x="603.143" y="434.646" style="fill:#263238;stroke:#263238;stroke-linecap:round;stroke-linejoin:round;stroke-miterlimit:10;" width="5.361" height="22.614"/>
		</g>
		<g>
			<polygon style="fill:#92E3A9;stroke:#263238;stroke-linecap:round;stroke-linejoin:round;stroke-miterlimit:10;" points="
				636.619,52.883 618.993,87.022 654.246,87.022 			"/>
			<polygon style="fill:none;stroke:#263238;stroke-linecap:round;stroke-linejoin:round;stroke-miterlimit:10;" points="
				636.619,52.883 624.573,87.022 648.666,87.022 			"/>
			<polygon style="fill:none;stroke:#263238;stroke-linecap:round;stroke-linejoin:round;stroke-miterlimit:10;" points="
				636.619,52.883 632.042,87.022 641.196,87.022 			"/>
			
				<rect x="622.948" y="89.367" style="fill:#92E3A9;stroke:#263238;stroke-linecap:round;stroke-linejoin:round;stroke-miterlimit:10;" width="27.263" height="70.422"/>
			
				<rect x="622.948" y="89.367" style="fill:#FFFFFF;stroke:#263238;stroke-linecap:round;stroke-linejoin:round;stroke-miterlimit:10;" width="27.263" height="41.018"/>
			
				<rect x="622.948" y="119.243" style="fill:#263238;stroke:#263238;stroke-linecap:round;stroke-linejoin:round;stroke-miterlimit:10;" width="27.263" height="1.903"/>
			
				<rect x="631.261" y="89.367" style="fill:none;stroke:#263238;stroke-linecap:round;stroke-linejoin:round;stroke-miterlimit:10;" width="10.638" height="70.422"/>
			
				<rect x="618.967" y="162.296" style="fill:#92E3A9;stroke:#263238;stroke-linecap:round;stroke-linejoin:round;stroke-miterlimit:10;" width="35.225" height="311.551"/>
			
				<rect x="618.967" y="245.481" style="fill:#263238;stroke:#263238;stroke-linecap:round;stroke-linejoin:round;stroke-miterlimit:10;" width="35.225" height="3.739"/>
			
				<rect x="618.967" y="162.296" style="fill:#FFFFFF;stroke:#263238;stroke-linecap:round;stroke-linejoin:round;stroke-miterlimit:10;" width="35.225" height="19.735"/>
			
				<rect x="618.967" y="253.33" style="fill:#FFFFFF;stroke:#263238;stroke-linecap:round;stroke-linejoin:round;stroke-miterlimit:10;" width="35.225" height="10.438"/>
			
				<rect x="629.708" y="162.296" style="fill:none;stroke:#263238;stroke-linecap:round;stroke-linejoin:round;stroke-miterlimit:10;" width="13.745" height="311.551"/>
			<polygon style="fill:#FFFFFF;stroke:#263238;stroke-linecap:round;stroke-linejoin:round;stroke-miterlimit:10;" points="
				655.954,378.27 617.206,378.27 618.967,383.413 654.193,383.413 			"/>
			<polygon style="fill:#FFFFFF;stroke:#263238;stroke-linecap:round;stroke-linejoin:round;stroke-miterlimit:10;" points="
				655.954,248.553 617.206,248.553 618.967,253.696 654.193,253.696 			"/>
			<polygon style="fill:#263238;stroke:#263238;stroke-linecap:round;stroke-linejoin:round;stroke-miterlimit:10;" points="
				665.077,159.894 608.083,159.894 618.967,162.7 654.193,162.7 			"/>
			
				<rect x="618.967" y="461.169" style="fill:#FFFFFF;stroke:#263238;stroke-linecap:round;stroke-linejoin:round;stroke-miterlimit:10;" width="35.225" height="12.678"/>
			<polygon style="fill:#263238;stroke:#263238;stroke-linecap:round;stroke-linejoin:round;stroke-miterlimit:10;" points="
				639.26,406.037 639.26,392.446 636.58,388.649 633.899,392.446 633.899,406.037 			"/>
			
				<rect x="633.899" y="434.646" style="fill:#263238;stroke:#263238;stroke-linecap:round;stroke-linejoin:round;stroke-miterlimit:10;" width="5.361" height="22.614"/>
			
				<rect x="635.274" y="335.769" style="fill:#263238;stroke:#263238;stroke-linecap:round;stroke-linejoin:round;stroke-miterlimit:10;" width="2.612" height="18.355"/>
			
				<rect x="635.274" y="286.006" style="fill:#263238;stroke:#263238;stroke-linecap:round;stroke-linejoin:round;stroke-miterlimit:10;" width="2.612" height="18.355"/>
			
				<rect x="635.274" y="208.855" style="fill:#263238;stroke:#263238;stroke-linecap:round;stroke-linejoin:round;stroke-miterlimit:10;" width="2.612" height="18.355"/>
			
				<rect x="635.274" y="126.082" style="fill:#263238;stroke:#263238;stroke-linecap:round;stroke-linejoin:round;stroke-miterlimit:10;" width="2.612" height="11.563"/>
			
				<rect x="608.083" y="146.598" style="fill:#FFFFFF;stroke:#263238;stroke-linecap:round;stroke-linejoin:round;stroke-miterlimit:10;" width="57.073" height="13.297"/>
			
				<rect x="619.725" y="146.598" style="fill:none;stroke:#263238;stroke-linecap:round;stroke-linejoin:round;stroke-miterlimit:10;" width="33.788" height="13.297"/>
			
				<rect x="606.579" y="144.637" style="fill:#FFFFFF;stroke:#263238;stroke-linecap:round;stroke-linejoin:round;stroke-miterlimit:10;" width="60.08" height="2.426"/>
			
				<rect x="606.579" y="157.468" style="fill:#FFFFFF;stroke:#263238;stroke-linecap:round;stroke-linejoin:round;stroke-miterlimit:10;" width="60.08" height="2.426"/>
			
				<line style="fill:none;stroke:#263238;stroke-linecap:round;stroke-linejoin:round;stroke-miterlimit:10;" x1="636.328" y1="156.986" x2="636.328" y2="147.896"/>
			<g>
				
					<polygon style="fill:none;stroke:#263238;stroke-width:0.5;stroke-linecap:round;stroke-linejoin:round;stroke-miterlimit:10;" points="
					622.656,147.715 626.269,152.292 622.535,156.99 				"/>
				
					<polygon style="fill:none;stroke:#263238;stroke-width:0.5;stroke-linecap:round;stroke-linejoin:round;stroke-miterlimit:10;" points="
					633.641,147.715 630.027,152.292 633.761,156.99 				"/>
				
					<polygon style="fill:none;stroke:#263238;stroke-width:0.5;stroke-linecap:round;stroke-linejoin:round;stroke-miterlimit:10;" points="
					632.785,147.318 628.208,150.63 623.511,147.208 				"/>
				
					<polygon style="fill:none;stroke:#263238;stroke-width:0.5;stroke-linecap:round;stroke-linejoin:round;stroke-miterlimit:10;" points="
					632.785,157.387 628.208,154.075 623.511,157.497 				"/>
			</g>
			<g>
				
					<polygon style="fill:none;stroke:#263238;stroke-width:0.5;stroke-linecap:round;stroke-linejoin:round;stroke-miterlimit:10;" points="
					639.482,147.715 643.096,152.292 639.362,156.99 				"/>
				
					<polygon style="fill:none;stroke:#263238;stroke-width:0.5;stroke-linecap:round;stroke-linejoin:round;stroke-miterlimit:10;" points="
					650.467,147.715 646.854,152.292 650.588,156.99 				"/>
				
					<polygon style="fill:none;stroke:#263238;stroke-width:0.5;stroke-linecap:round;stroke-linejoin:round;stroke-miterlimit:10;" points="
					649.612,147.318 645.035,150.63 640.338,147.208 				"/>
				
					<polygon style="fill:none;stroke:#263238;stroke-width:0.5;stroke-linecap:round;stroke-linejoin:round;stroke-miterlimit:10;" points="
					649.612,157.387 645.035,154.075 640.338,157.497 				"/>
			</g>
			<g>
				
					<polygon style="fill:none;stroke:#263238;stroke-width:0.5;stroke-linecap:round;stroke-linejoin:round;stroke-miterlimit:10;" points="
					655.92,147.715 658.35,152.292 655.839,156.99 				"/>
				
					<polygon style="fill:none;stroke:#263238;stroke-width:0.5;stroke-linecap:round;stroke-linejoin:round;stroke-miterlimit:10;" points="
					663.306,147.715 660.876,152.292 663.387,156.99 				"/>
				
					<polygon style="fill:none;stroke:#263238;stroke-width:0.5;stroke-linecap:round;stroke-linejoin:round;stroke-miterlimit:10;" points="
					662.731,147.318 659.654,150.63 656.496,147.208 				"/>
				
					<polygon style="fill:none;stroke:#263238;stroke-width:0.5;stroke-linecap:round;stroke-linejoin:round;stroke-miterlimit:10;" points="
					662.731,157.387 659.654,154.075 656.496,157.497 				"/>
			</g>
			<g>
				
					<polygon style="fill:none;stroke:#263238;stroke-width:0.5;stroke-linecap:round;stroke-linejoin:round;stroke-miterlimit:10;" points="
					609.806,147.715 612.236,152.292 609.725,156.99 				"/>
				
					<polygon style="fill:none;stroke:#263238;stroke-width:0.5;stroke-linecap:round;stroke-linejoin:round;stroke-miterlimit:10;" points="
					617.192,147.715 614.762,152.292 617.273,156.99 				"/>
				
					<polygon style="fill:none;stroke:#263238;stroke-width:0.5;stroke-linecap:round;stroke-linejoin:round;stroke-miterlimit:10;" points="
					616.617,147.318 613.539,150.63 610.381,147.208 				"/>
				
					<polygon style="fill:none;stroke:#263238;stroke-width:0.5;stroke-linecap:round;stroke-linejoin:round;stroke-miterlimit:10;" points="
					616.617,157.387 613.539,154.075 610.381,157.497 				"/>
			</g>
			<polygon style="fill:#FFFFFF;stroke:#263238;stroke-linecap:round;stroke-linejoin:round;stroke-miterlimit:10;" points="
				658.679,101.493 614.499,101.493 622.936,110.739 650.242,110.739 			"/>
			
				<rect x="614.499" y="88.197" style="fill:#FFFFFF;stroke:#263238;stroke-linecap:round;stroke-linejoin:round;stroke-miterlimit:10;" width="44.241" height="13.297"/>
			
				<rect x="623.523" y="88.197" style="fill:none;stroke:#263238;stroke-linecap:round;stroke-linejoin:round;stroke-miterlimit:10;" width="26.192" height="13.297"/>
			
				<rect x="613.333" y="86.236" style="fill:#92E3A9;stroke:#263238;stroke-linecap:round;stroke-linejoin:round;stroke-miterlimit:10;" width="46.573" height="2.426"/>
			
				<rect x="613.333" y="99.067" style="fill:#92E3A9;stroke:#263238;stroke-linecap:round;stroke-linejoin:round;stroke-miterlimit:10;" width="46.573" height="2.426"/>
			
				<line style="fill:none;stroke:#263238;stroke-linecap:round;stroke-linejoin:round;stroke-miterlimit:10;" x1="636.328" y1="98.585" x2="636.328" y2="89.495"/>
			
				<line style="fill:#FFFFFF;stroke:#263238;stroke-linecap:round;stroke-linejoin:round;stroke-miterlimit:10;" x1="636.619" y1="52.883" x2="636.619" y2="35.314"/>
			<path style="fill:#92E3A9;stroke:#263238;stroke-linecap:round;stroke-linejoin:round;stroke-miterlimit:10;" d="M638.946,49.274
				c0-1.285-1.042-2.327-2.327-2.327c-1.285,0-2.327,1.042-2.327,2.327c0,1.285,1.042,2.327,2.327,2.327
				C637.904,51.601,638.946,50.559,638.946,49.274z"/>
			<path style="fill:#92E3A9;stroke:#263238;stroke-linecap:round;stroke-linejoin:round;stroke-miterlimit:10;" d="M638.997,32.654
				c-4.336,0-7.85-3.515-7.85-7.85c0-2.364,1.05-4.479,2.703-5.918c-3.18,1.003-5.486,3.975-5.486,7.486
				c0,4.336,3.515,7.85,7.85,7.85c1.972,0,3.768-0.732,5.147-1.932C640.615,32.525,639.821,32.654,638.997,32.654z"/>
		</g>
		<g>
			<polygon style="fill:#92E3A9;stroke:#263238;stroke-linecap:round;stroke-linejoin:round;stroke-miterlimit:10;" points="
				113.542,52.883 95.916,87.022 131.168,87.022 			"/>
			<polygon style="fill:none;stroke:#263238;stroke-linecap:round;stroke-linejoin:round;stroke-miterlimit:10;" points="
				113.542,52.883 101.495,87.022 125.589,87.022 			"/>
			<polygon style="fill:none;stroke:#263238;stroke-linecap:round;stroke-linejoin:round;stroke-miterlimit:10;" points="
				113.542,52.883 108.965,87.022 118.119,87.022 			"/>
			
				<rect x="99.871" y="89.367" style="fill:#92E3A9;stroke:#263238;stroke-linecap:round;stroke-linejoin:round;stroke-miterlimit:10;" width="27.263" height="70.422"/>
			
				<rect x="99.871" y="89.367" style="fill:#FFFFFF;stroke:#263238;stroke-linecap:round;stroke-linejoin:round;stroke-miterlimit:10;" width="27.263" height="41.018"/>
			
				<rect x="99.871" y="119.243" style="fill:#263238;stroke:#263238;stroke-linecap:round;stroke-linejoin:round;stroke-miterlimit:10;" width="27.263" height="1.903"/>
			
				<rect x="108.184" y="89.367" style="fill:none;stroke:#263238;stroke-linecap:round;stroke-linejoin:round;stroke-miterlimit:10;" width="10.638" height="70.422"/>
			
				<rect x="95.89" y="162.296" style="fill:#92E3A9;stroke:#263238;stroke-linecap:round;stroke-linejoin:round;stroke-miterlimit:10;" width="35.225" height="311.551"/>
			
				<rect x="95.89" y="245.481" style="fill:#263238;stroke:#263238;stroke-linecap:round;stroke-linejoin:round;stroke-miterlimit:10;" width="35.225" height="3.739"/>
			
				<rect x="95.89" y="162.296" style="fill:#FFFFFF;stroke:#263238;stroke-linecap:round;stroke-linejoin:round;stroke-miterlimit:10;" width="35.225" height="19.735"/>
			
				<rect x="95.89" y="253.33" style="fill:#FFFFFF;stroke:#263238;stroke-linecap:round;stroke-linejoin:round;stroke-miterlimit:10;" width="35.225" height="10.438"/>
			
				<rect x="106.63" y="162.296" style="fill:none;stroke:#263238;stroke-linecap:round;stroke-linejoin:round;stroke-miterlimit:10;" width="13.745" height="311.551"/>
			<polygon style="fill:#FFFFFF;stroke:#263238;stroke-linecap:round;stroke-linejoin:round;stroke-miterlimit:10;" points="
				132.877,378.27 94.129,378.27 95.89,383.413 131.115,383.413 			"/>
			<polygon style="fill:#FFFFFF;stroke:#263238;stroke-linecap:round;stroke-linejoin:round;stroke-miterlimit:10;" points="
				132.877,248.553 94.129,248.553 95.89,253.696 131.115,253.696 			"/>
			<polygon style="fill:#263238;stroke:#263238;stroke-linecap:round;stroke-linejoin:round;stroke-miterlimit:10;" points="
				142,159.894 85.006,159.894 95.89,162.7 131.115,162.7 			"/>
			
				<rect x="95.89" y="461.169" style="fill:#FFFFFF;stroke:#263238;stroke-linecap:round;stroke-linejoin:round;stroke-miterlimit:10;" width="35.225" height="12.678"/>
			<polygon style="fill:#263238;stroke:#263238;stroke-linecap:round;stroke-linejoin:round;stroke-miterlimit:10;" points="
				116.183,406.037 116.183,392.446 113.503,388.649 110.822,392.446 110.822,406.037 			"/>
			
				<rect x="110.822" y="434.646" style="fill:#263238;stroke:#263238;stroke-linecap:round;stroke-linejoin:round;stroke-miterlimit:10;" width="5.361" height="22.614"/>
			
				<rect x="112.197" y="335.769" style="fill:#263238;stroke:#263238;stroke-linecap:round;stroke-linejoin:round;stroke-miterlimit:10;" width="2.612" height="18.355"/>
			
				<rect x="112.197" y="286.006" style="fill:#263238;stroke:#263238;stroke-linecap:round;stroke-linejoin:round;stroke-miterlimit:10;" width="2.612" height="18.355"/>
			
				<rect x="112.197" y="208.855" style="fill:#263238;stroke:#263238;stroke-linecap:round;stroke-linejoin:round;stroke-miterlimit:10;" width="2.612" height="18.355"/>
			
				<rect x="112.197" y="126.082" style="fill:#263238;stroke:#263238;stroke-linecap:round;stroke-linejoin:round;stroke-miterlimit:10;" width="2.612" height="11.563"/>
			
				<rect x="85.006" y="146.598" style="fill:#FFFFFF;stroke:#263238;stroke-linecap:round;stroke-linejoin:round;stroke-miterlimit:10;" width="57.073" height="13.297"/>
			
				<rect x="96.648" y="146.598" style="fill:none;stroke:#263238;stroke-linecap:round;stroke-linejoin:round;stroke-miterlimit:10;" width="33.788" height="13.297"/>
			
				<rect x="83.502" y="144.637" style="fill:#FFFFFF;stroke:#263238;stroke-linecap:round;stroke-linejoin:round;stroke-miterlimit:10;" width="60.081" height="2.426"/>
			
				<rect x="83.502" y="157.468" style="fill:#FFFFFF;stroke:#263238;stroke-linecap:round;stroke-linejoin:round;stroke-miterlimit:10;" width="60.081" height="2.426"/>
			
				<line style="fill:none;stroke:#263238;stroke-linecap:round;stroke-linejoin:round;stroke-miterlimit:10;" x1="113.251" y1="156.986" x2="113.251" y2="147.896"/>
			<g>
				
					<polygon style="fill:none;stroke:#263238;stroke-width:0.5;stroke-linecap:round;stroke-linejoin:round;stroke-miterlimit:10;" points="
					99.578,147.715 103.192,152.292 99.458,156.99 				"/>
				
					<polygon style="fill:none;stroke:#263238;stroke-width:0.5;stroke-linecap:round;stroke-linejoin:round;stroke-miterlimit:10;" points="
					110.563,147.715 106.95,152.292 110.684,156.99 				"/>
				
					<polygon style="fill:none;stroke:#263238;stroke-width:0.5;stroke-linecap:round;stroke-linejoin:round;stroke-miterlimit:10;" points="
					109.708,147.318 105.131,150.63 100.434,147.208 				"/>
				
					<polygon style="fill:none;stroke:#263238;stroke-width:0.5;stroke-linecap:round;stroke-linejoin:round;stroke-miterlimit:10;" points="
					109.708,157.387 105.131,154.075 100.434,157.497 				"/>
			</g>
			<g>
				
					<polygon style="fill:none;stroke:#263238;stroke-width:0.5;stroke-linecap:round;stroke-linejoin:round;stroke-miterlimit:10;" points="
					116.405,147.715 120.019,152.292 116.285,156.99 				"/>
				
					<polygon style="fill:none;stroke:#263238;stroke-width:0.5;stroke-linecap:round;stroke-linejoin:round;stroke-miterlimit:10;" points="
					127.39,147.715 123.777,152.292 127.511,156.99 				"/>
				
					<polygon style="fill:none;stroke:#263238;stroke-width:0.5;stroke-linecap:round;stroke-linejoin:round;stroke-miterlimit:10;" points="
					126.535,147.318 121.958,150.63 117.261,147.208 				"/>
				
					<polygon style="fill:none;stroke:#263238;stroke-width:0.5;stroke-linecap:round;stroke-linejoin:round;stroke-miterlimit:10;" points="
					126.535,157.387 121.958,154.075 117.261,157.497 				"/>
			</g>
			<g>
				
					<polygon style="fill:none;stroke:#263238;stroke-width:0.5;stroke-linecap:round;stroke-linejoin:round;stroke-miterlimit:10;" points="
					132.843,147.715 135.273,152.292 132.762,156.99 				"/>
				
					<polygon style="fill:none;stroke:#263238;stroke-width:0.5;stroke-linecap:round;stroke-linejoin:round;stroke-miterlimit:10;" points="
					140.229,147.715 137.799,152.292 140.31,156.99 				"/>
				
					<polygon style="fill:none;stroke:#263238;stroke-width:0.5;stroke-linecap:round;stroke-linejoin:round;stroke-miterlimit:10;" points="
					139.654,147.318 136.577,150.63 133.418,147.208 				"/>
				
					<polygon style="fill:none;stroke:#263238;stroke-width:0.5;stroke-linecap:round;stroke-linejoin:round;stroke-miterlimit:10;" points="
					139.654,157.387 136.577,154.075 133.418,157.497 				"/>
			</g>
			<g>
				
					<polygon style="fill:none;stroke:#263238;stroke-width:0.5;stroke-linecap:round;stroke-linejoin:round;stroke-miterlimit:10;" points="
					86.729,147.715 89.159,152.292 86.648,156.99 				"/>
				
					<polygon style="fill:none;stroke:#263238;stroke-width:0.5;stroke-linecap:round;stroke-linejoin:round;stroke-miterlimit:10;" points="
					94.115,147.715 91.685,152.292 94.196,156.99 				"/>
				
					<polygon style="fill:none;stroke:#263238;stroke-width:0.5;stroke-linecap:round;stroke-linejoin:round;stroke-miterlimit:10;" points="
					93.539,147.318 90.462,150.63 87.304,147.208 				"/>
				
					<polygon style="fill:none;stroke:#263238;stroke-width:0.5;stroke-linecap:round;stroke-linejoin:round;stroke-miterlimit:10;" points="
					93.539,157.387 90.462,154.075 87.304,157.497 				"/>
			</g>
			<polygon style="fill:#FFFFFF;stroke:#263238;stroke-linecap:round;stroke-linejoin:round;stroke-miterlimit:10;" points="
				135.602,101.493 91.421,101.493 99.859,110.739 127.164,110.739 			"/>
			
				<rect x="91.421" y="88.197" style="fill:#FFFFFF;stroke:#263238;stroke-linecap:round;stroke-linejoin:round;stroke-miterlimit:10;" width="44.242" height="13.297"/>
			
				<rect x="100.446" y="88.197" style="fill:none;stroke:#263238;stroke-linecap:round;stroke-linejoin:round;stroke-miterlimit:10;" width="26.192" height="13.297"/>
			
				<rect x="90.256" y="86.236" style="fill:#92E3A9;stroke:#263238;stroke-linecap:round;stroke-linejoin:round;stroke-miterlimit:10;" width="46.573" height="2.426"/>
			
				<rect x="90.256" y="99.067" style="fill:#92E3A9;stroke:#263238;stroke-linecap:round;stroke-linejoin:round;stroke-miterlimit:10;" width="46.573" height="2.426"/>
			
				<line style="fill:none;stroke:#263238;stroke-linecap:round;stroke-linejoin:round;stroke-miterlimit:10;" x1="113.251" y1="98.585" x2="113.251" y2="89.495"/>
			
				<line style="fill:#FFFFFF;stroke:#263238;stroke-linecap:round;stroke-linejoin:round;stroke-miterlimit:10;" x1="113.542" y1="52.883" x2="113.542" y2="35.314"/>
			<path style="fill:#92E3A9;stroke:#263238;stroke-linecap:round;stroke-linejoin:round;stroke-miterlimit:10;" d="M115.869,49.274
				c0-1.285-1.042-2.327-2.327-2.327c-1.285,0-2.327,1.042-2.327,2.327c0,1.285,1.042,2.327,2.327,2.327
				C114.827,51.601,115.869,50.559,115.869,49.274z"/>
			<path style="fill:#92E3A9;stroke:#263238;stroke-linecap:round;stroke-linejoin:round;stroke-miterlimit:10;" d="M115.92,32.654
				c-4.336,0-7.85-3.515-7.85-7.85c0-2.364,1.05-4.479,2.703-5.918c-3.18,1.003-5.486,3.975-5.486,7.486
				c0,4.336,3.515,7.85,7.85,7.85c1.972,0,3.769-0.732,5.147-1.932C117.538,32.525,116.744,32.654,115.92,32.654z"/>
		</g>
	</g>
</g>
</svg>
